<svg width="1282" height="769" viewBox="0 0 1282 769" fill="none" xmlns="http://www.w3.org/2000/svg">
<path fill-rule="evenodd" clip-rule="evenodd" d="M565.407 65.0479C564.714 64.3273 564.025 63.6106 563.34 62.887C558.481 62.5115 545.873 56.973 534.505 51.9793C529.047 49.5815 523.875 47.3092 519.983 45.7945C517.169 44.6992 510.084 41.2352 500.745 36.669C470.269 21.769 415.789 -4.86659 407.391 0.770857L386.18 7.02423L368.26 7.02423L359.848 7.02423L344.489 21.6154C340.344 28.9805 327.227 48.9635 321.083 51.6316C318.317 52.8328 314.928 57.431 310.236 63.7978C304.506 71.5727 296.832 81.9852 285.974 92.07C271.549 105.469 243.552 148.35 239.895 155.437C234.124 156.149 231.958 162.85 229.466 170.561C226.115 180.932 222.173 193.129 208.078 195.042C177.358 199.211 164.558 203.38 159.072 210.467C156.042 214.381 150.173 221.028 148.1 222.557C146.028 224.086 141.883 228.06 141.883 231.729C141.883 236.314 96.5349 291.761 78.2493 312.605C62.8282 330.184 46.4027 407.143 36.5592 453.263C34.7307 461.83 33.1293 469.333 31.8037 475.193C23.8828 510.211 0.953731 661.543 0.953731 733.665L587.519 923.483L587.52 923.483L1281.64 923.483L1281.64 668.762C1281.64 630.408 1253.48 527.019 1235.2 506.174C1216.91 485.33 1171.56 429.883 1171.56 425.298C1171.56 421.629 1167.42 417.655 1165.35 416.126C1163.27 414.597 1157.4 407.95 1154.37 404.036C1148.89 396.949 1136.09 392.78 1105.37 388.611C1091.27 386.698 1087.33 374.501 1083.98 364.13C1081.49 356.419 1079.32 349.718 1073.55 349.006C1069.89 341.919 1041.9 299.038 1027.47 285.639C1016.61 275.554 1008.94 265.142 1003.21 257.367C998.518 251 995.13 246.402 992.363 245.201C986.219 242.533 973.103 222.55 968.958 215.185L953.598 200.593L945.186 200.593L927.266 200.593L906.055 194.34C895.084 186.975 870.142 173.412 858.147 178.081C850.663 180.994 838.661 176.162 828.946 172.249C823.089 169.891 818.063 167.867 815.358 168.076C672.369 102.236 634.958 94.9307 585.809 94.5838C578.519 78.6854 571.801 71.6984 565.407 65.0479Z" fill="url(#paint0_linear_1251_36)"/>
<path d="M335.764 526.471C340.937 530.874 342.875 538.625 349.181 541.967L349.154 551.439L61.4759 550.604C70.0023 533.179 121.034 472.5 129.027 467.039C135.421 462.67 145.039 446.976 149.049 439.675C156.261 428.528 168.066 415.134 173.068 409.83C185.083 392.914 192.112 375.983 197.122 367.521C202.133 359.06 208.61 360.575 213.091 362.582C217.572 364.589 276.258 415.116 294.134 440.096C312.011 465.077 306.844 479.242 315.41 496.498C323.836 513.474 329.299 520.968 335.764 526.471Z" fill="url(#paint1_linear_1251_36)"/>
<path d="M289.409 521.847C289.787 529.027 302.161 537.506 308.3 540.848L308.262 553.811L119.811 549.774C120.156 545.454 121.447 535.719 123.853 531.339C126.861 525.863 138.406 498.974 157.885 487.064C177.364 475.155 182.367 469.186 194.378 453.765C206.389 438.344 207.918 426.88 209.429 421.4C210.941 415.92 215.457 405.962 222.429 408.974C228.006 411.383 242.658 424.987 249.286 431.488C254.062 435.091 261.88 444.321 265.192 448.486C275.124 461.976 285.048 478.458 287.505 490.93C289.961 503.401 293.444 505.904 296.42 511.397C298.8 515.792 297.401 516.884 296.404 516.881C293.915 515.544 289.031 514.666 289.409 521.847Z" fill="url(#paint2_linear_1251_36)"/>
<path d="M289.411 521.846C289.789 529.027 302.163 537.506 308.302 540.847L308.265 553.811L144.742 549.846C143.915 548.68 143.462 544.258 148.273 535.896C154.286 525.444 163.801 511.012 168.304 505.541C171.906 501.164 181.124 497.435 185.283 496.117C196.256 494.653 212.251 480.74 213.284 468.278C214.318 455.817 216.815 454.328 221.818 448.359C226.821 442.39 237.295 440.926 241.797 435.953C245.398 431.975 248.292 431.318 249.289 431.487C254.065 435.091 261.882 444.321 265.194 448.485C275.126 461.976 285.05 478.458 287.507 490.929C289.963 503.401 293.446 505.904 296.422 511.397C298.802 515.791 297.403 516.884 296.406 516.881C293.917 515.544 289.033 514.666 289.411 521.846Z" fill="#332D4E"/>
<path d="M305.698 199.273C343.218 210.113 366.897 210.113 391.577 228.456C401.86 235.96 412.839 249.3 418.258 265.559C421.177 270.423 431.599 280.651 449.942 282.652C468.286 284.653 495.105 313.502 506.223 327.676L526.233 359.36L534.154 391.46" stroke="#5E4F5E" stroke-opacity="0.29" stroke-width="5.00269" stroke-linecap="round"/>
<path d="M621.08 81.856C619.601 82.5954 618.615 86.1695 618.307 87.8641C618.23 89.6359 617.937 94.2885 617.383 98.7253C616.689 104.271 615.072 113.283 619.694 123.22C624.315 133.157 628.706 138.703 630.092 140.782C631.202 142.446 630.555 143.786 630.092 144.249C622.467 150.95 616.689 150.026 609.295 160.886C601.9 171.747 599.358 177.293 599.821 179.373C600.19 181.037 599.975 182.839 599.821 183.533C599.127 186.306 600.052 191.389 604.442 188.616C608.833 185.843 609.295 185.843 610.913 185.381C612.53 184.919 620.618 186.537 630.092 185.15C637.672 184.041 642.032 182.223 643.264 181.453C645.575 180.297 650.104 178.541 649.734 180.76C649.365 182.978 649.888 185.535 650.197 186.537C652.045 192.545 650.659 197.166 652.507 199.246C653.986 200.91 654.356 202.558 654.356 203.175C654.171 206.502 655.203 208.566 655.743 209.183C659.209 215.653 657.36 214.267 661.289 219.35C665.217 224.434 667.759 225.821 669.376 228.131C670.671 229.98 671.302 229.21 671.456 228.594C673.536 221.43 675.847 220.275 676.54 217.964C677.233 215.653 681.393 213.342 682.548 209.183C683.704 205.023 688.325 200.402 687.863 196.473C687.493 193.33 688.017 190.388 688.325 189.31C688.787 187.923 689.712 184.411 689.712 181.453C689.712 177.755 692.485 175.214 693.178 174.52C693.871 173.827 696.182 174.751 701.959 177.755C707.736 180.76 713.975 182.839 718.828 182.608C723.681 182.377 727.84 181.915 731.307 180.297C734.773 178.68 736.159 179.835 738.932 179.142C741.705 178.449 742.861 178.218 744.478 176.831C745.772 175.722 749.485 174.52 751.18 174.058C753.398 173.688 753.645 172.21 753.49 171.516C753.675 170.777 749.716 167.973 747.713 166.664C744.401 164.276 736.853 158.668 733.155 155.34C728.534 151.181 726.454 150.488 724.605 149.795C722.756 149.101 721.601 148.408 720.215 146.79C718.828 145.173 715.131 142.862 712.82 142.4C710.971 142.03 709.277 140.859 708.66 140.32C707.182 139.211 707.89 138.009 708.429 137.547C713.744 131.77 717.211 124.375 717.673 119.754C718.135 115.132 720.446 109.586 720.215 106.813C719.984 104.04 723.45 102.423 724.143 101.036C724.836 99.6496 724.605 98.9564 722.756 98.9564H707.505C702.144 98.9564 698.493 99.8807 697.337 100.343C697.337 100.343 689.943 103.116 685.321 105.427C680.699 107.737 677.002 112.128 675.385 113.283C673.767 114.439 672.612 115.825 670.301 115.132C668.452 114.578 666.295 114.439 665.448 114.439C662.213 114.439 659.671 113.746 657.129 109.817C655.096 106.675 652.43 104.04 651.352 103.116C645.344 98.2631 645.344 98.2631 637.949 95.4901C630.555 92.7171 628.937 89.7128 627.088 87.1709C625.24 84.629 622.929 80.9317 621.08 81.856Z" fill="url(#paint3_linear_1251_36)"/>
<path d="M633.789 104.731C632.125 104.731 631.093 106.118 630.785 106.811C629.629 109.122 630.785 110.508 631.94 110.277C633.096 110.046 634.251 108.891 634.713 107.967C635.175 107.042 635.868 104.731 633.789 104.731Z" fill="url(#paint4_linear_1251_36)"/>
<path d="M638.179 110.74C637.255 110.924 636.099 112.049 635.637 112.588C634.944 113.975 635.175 113.513 634.944 114.437C634.713 115.361 636.099 117.21 637.717 116.285C639.335 115.361 640.259 114.206 640.259 112.588C640.259 110.971 639.335 110.508 638.179 110.74Z" fill="url(#paint5_linear_1251_36)"/>
<path d="M644.418 117.21C643.263 116.285 641.645 117.903 641.645 118.134C640.49 119.521 640.952 121.369 642.339 120.907C643.725 120.445 645.574 118.134 644.418 117.21Z" fill="url(#paint6_linear_1251_36)"/>
<path d="M648.347 120.907C646.96 120.676 645.574 122.063 645.574 122.294C644.649 123.403 644.572 124.142 644.649 124.373C645.112 125.76 646.036 126.222 647.191 125.991C648.347 125.76 649.502 123.68 649.502 122.987C649.502 122.294 649.733 121.138 648.347 120.907Z" fill="url(#paint7_linear_1251_36)"/>
<path d="M651.12 130.382C649.456 130.566 649.194 128.764 649.271 127.84C649.733 126.222 651.12 126.222 651.813 128.302C652.368 129.966 651.582 130.382 651.12 130.382Z" fill="url(#paint8_linear_1251_36)"/>
<path d="M653.662 134.079C652.737 134.264 652.66 132.769 652.737 131.999C652.737 131.845 652.922 131.537 653.662 131.537C654.586 131.537 655.048 132.23 654.817 133.155C654.632 133.894 653.97 134.079 653.662 134.079Z" fill="url(#paint9_linear_1251_36)"/>
<path d="M655.741 139.394C655.187 138.654 655.818 137.545 656.204 137.083C657.128 136.852 657.128 136.852 657.821 136.852C658.514 136.852 659.67 137.545 659.67 138.238C659.67 138.932 659.901 140.318 658.514 140.78C657.128 141.242 656.435 140.318 655.741 139.394Z" fill="url(#paint10_linear_1251_36)"/>
<path d="M660.825 140.318C660.455 138.285 662.212 137.16 663.136 136.852C664.985 136.39 668.22 138.007 667.527 140.318C666.833 142.629 665.678 143.091 664.523 143.322C663.367 143.553 661.287 142.86 660.825 140.318Z" fill="url(#paint11_linear_1251_36)"/>
<path d="M664.754 135.927C664.014 135.188 664.754 133.617 665.216 132.923C666.833 131.768 666.602 133.617 666.602 133.848C666.602 134.079 665.678 136.852 664.754 135.927Z" fill="url(#paint12_linear_1251_36)"/>
<path d="M666.371 131.075C666.001 130.335 666.987 128.918 667.527 128.302C668.682 127.377 667.989 129.688 667.758 129.919C667.527 130.15 666.833 131.999 666.371 131.075Z" fill="url(#paint13_linear_1251_36)"/>
<path d="M667.758 126.684C667.573 126.13 668.297 124.604 668.682 123.911C669.144 123.218 669.606 123.68 669.375 124.373C669.19 124.928 668.836 125.683 668.682 125.991C668.451 126.453 667.943 127.239 667.758 126.684Z" fill="url(#paint14_linear_1251_36)"/>
<path d="M669.144 122.294C668.959 121.739 669.221 120.984 669.375 120.676C669.641 119.832 670.531 119.983 670.531 120.676C670.531 121.231 670.223 121.831 670.069 122.063C669.837 122.371 669.329 122.848 669.144 122.294Z" fill="url(#paint15_linear_1251_36)"/>
<path d="M669.837 119.058C669.653 118.504 669.76 117.595 669.837 117.21C670.531 116.054 670.993 116.979 670.762 118.134C670.531 119.29 670.069 119.752 669.837 119.058Z" fill="url(#paint16_linear_1251_36)"/>
<path d="M671.455 145.171C669.421 144.062 669.683 141.165 670.069 139.856C670.265 138.747 671.383 138.315 671.917 138.238C673.997 138.469 674.459 138.7 676.077 140.549C677.694 142.398 677.463 144.478 676.308 145.171C675.152 145.864 673.997 146.557 671.455 145.171Z" fill="url(#paint17_linear_1251_36)"/>
<path d="M672.61 136.852C672.426 136.112 673.15 135.157 673.535 134.772C674.921 134.772 674.921 135.003 675.152 135.696C675.383 136.39 674.69 137.545 673.997 137.545C673.304 137.545 672.842 137.776 672.61 136.852Z" fill="url(#paint18_linear_1251_36)"/>
<path d="M677.232 133.155C676.493 132.6 676.77 131.537 677.001 131.075C677.463 130.613 677.925 130.382 679.081 131.075C680.005 131.629 679.62 132.538 679.312 132.923C678.927 133.232 677.972 133.709 677.232 133.155Z" fill="url(#paint19_linear_1251_36)"/>
<path d="M680.929 128.533C680.929 127.609 681.7 126.761 682.085 126.453C682.547 126.222 684.165 125.991 684.396 126.684C684.627 127.377 684.396 128.764 683.24 129.226C682.085 129.688 680.929 129.688 680.929 128.533Z" fill="url(#paint20_linear_1251_36)"/>
<path d="M685.782 123.911C685.412 122.987 685.936 121.986 686.244 121.6C686.799 121.416 687.4 121.369 687.631 121.369C688.555 121.369 689.942 122.063 689.942 123.449C689.942 124.836 688.555 125.991 687.631 125.76C686.706 125.529 686.244 125.067 685.782 123.911Z" fill="url(#paint21_linear_1251_36)"/>
<path d="M690.404 120.214C689.849 119.29 690.481 118.596 690.866 118.365C691.154 118.134 692.252 117.903 693.177 118.827C693.916 119.567 693.331 120.368 692.946 120.676C692.329 120.907 690.958 121.138 690.404 120.214Z" fill="url(#paint22_linear_1251_36)"/>
<path d="M696.181 116.285C695.626 114.807 696.412 114.129 696.874 113.975C697.336 113.744 698.492 113.466 699.416 114.206C700.34 114.945 699.955 115.9 699.647 116.285C698.723 116.902 696.735 117.764 696.181 116.285Z" fill="url(#paint23_linear_1251_36)"/>
<path d="M702.189 110.508C701.265 108.845 701.804 107.504 702.189 107.042C702.928 105.933 704.192 105.81 704.731 105.887C706.811 106.811 707.273 107.273 707.735 109.353C708.105 111.017 706.811 111.741 706.117 111.895C705.193 112.126 703.113 112.172 702.189 110.508Z" fill="url(#paint24_linear_1251_36)"/>
<path d="M709.353 104.5C709.353 103.761 710.123 103.268 710.508 103.114C712.126 102.421 713.512 103.345 713.05 104.5C712.588 105.656 711.432 106.118 710.739 105.887C710.046 105.656 709.353 105.425 709.353 104.5Z" fill="url(#paint25_linear_1251_36)"/>
<path d="M679.081 141.474C678.526 141.104 679.466 140.549 680.005 140.318C680.19 140.133 680.698 139.933 680.929 139.856C681.854 140.087 681.854 141.474 681.623 141.705C681.392 141.936 679.774 141.936 679.081 141.474Z" fill="url(#paint26_linear_1251_36)"/>
<path d="M687.169 139.394C685.089 139.394 683.933 140.318 683.702 140.549C683.702 141.242 683.24 140.78 685.551 141.474C687.4 142.029 687.862 141.243 687.862 140.78C688.047 139.671 687.477 139.394 687.169 139.394Z" fill="url(#paint27_linear_1251_36)"/>
<path d="M690.866 140.549C690.311 140.179 691.097 139.625 691.559 139.394L693.87 139.163C696.458 139.348 695.719 140.164 695.025 140.549C693.87 140.703 691.421 140.919 690.866 140.549Z" fill="url(#paint28_linear_1251_36)"/>
<path d="M704.269 139.163C701.496 138.979 700.34 139.548 700.109 139.856C701.403 141.15 704.192 141.011 705.424 140.78C706.194 140.318 707.042 139.348 704.269 139.163Z" fill="url(#paint29_linear_1251_36)"/>
<path d="M678.619 153.028C678.064 152.658 678.387 151.025 678.619 150.255C678.9 148.869 682.085 148.406 682.085 150.255C682.085 152.104 682.085 153.028 680.929 153.49C679.774 153.952 679.312 153.49 678.619 153.028Z" fill="url(#paint30_linear_1251_36)"/>
<path d="M687.169 155.339C685.875 155.154 686.013 153.721 686.244 153.028C687.631 151.873 688.555 153.028 688.786 154.183C689.017 155.339 688.786 155.57 687.169 155.339Z" fill="url(#paint31_linear_1251_36)"/>
<path d="M692.715 156.494C691.79 155.57 692.329 154.569 692.715 154.183C694.101 153.721 693.639 153.952 695.257 154.415C696.551 154.784 696.412 155.647 696.181 156.032C695.411 156.571 693.639 157.419 692.715 156.494Z" fill="url(#paint32_linear_1251_36)"/>
<path d="M698.954 158.574C698.769 157.28 699.647 156.648 700.109 156.494C702.42 156.032 702.189 157.419 701.496 158.112C700.802 158.805 699.185 160.192 698.954 158.574Z" fill="url(#paint33_linear_1251_36)"/>
<path d="M704.731 161.347C704.176 160.053 705.578 158.959 706.348 158.574C708.752 157.28 709.815 158.343 710.046 159.036C710.046 161.578 708.89 163.196 708.197 163.658C707.504 164.12 706.348 164.351 706.348 163.427C706.348 162.502 705.424 162.965 704.731 161.347Z" fill="url(#paint34_linear_1251_36)"/>
<path d="M713.05 162.271C712.495 161.717 713.281 160.962 713.743 160.654C714.333 160.127 716.285 160.192 716.747 160.654C717.209 161.116 716.747 162.271 716.285 162.733C715.823 163.196 713.743 162.965 713.05 162.271Z" fill="url(#paint35_linear_1251_36)"/>
<path d="M721.831 165.275C721.646 163.427 722.678 162.502 723.217 162.271C725.528 161.809 725.066 163.427 724.604 164.813C724.142 166.2 722.062 167.586 721.831 165.275Z" fill="url(#paint36_linear_1251_36)"/>
<path d="M727.608 168.511C727.608 167.401 728.532 166.354 728.995 165.969C730.104 164.859 731.151 165.506 731.536 165.969C732.23 167.586 730.381 170.359 729.457 170.59C728.532 170.821 727.608 169.897 727.608 168.511Z" fill="url(#paint37_linear_1251_36)"/>
<path d="M734.541 170.128C734.356 169.019 735.08 168.125 735.465 167.817C738.238 167.124 738.007 168.511 737.314 169.666C736.62 170.821 734.772 171.515 734.541 170.128Z" fill="url(#paint38_linear_1251_36)"/>
<path d="M739.855 169.666C740.41 169.296 741.627 169.05 742.166 168.973C742.628 168.893 744.015 168.973 744.015 169.666C744.015 170.359 743.553 171.052 742.166 171.052C740.78 171.052 739.162 170.128 739.855 169.666Z" fill="url(#paint39_linear_1251_36)"/>
<path d="M670.069 152.566C669.514 151.826 669.837 150.255 670.069 149.562C671.178 148.083 672.687 148.637 673.304 149.1C673.689 149.87 674.274 151.642 673.535 152.566C672.61 153.721 670.762 153.49 670.069 152.566Z" fill="url(#paint40_linear_1251_36)"/>
<path d="M673.766 156.263C673.581 157.372 672.61 156.417 672.148 155.801C672.148 155.108 672.148 154.183 672.61 154.183C673.073 154.183 673.997 154.877 673.766 156.263Z" fill="url(#paint41_linear_1251_36)"/>
<path d="M674.459 157.65C674.089 157.835 674.305 158.497 674.459 158.805C675.152 160.192 676.539 160.654 676.539 159.729C676.539 158.805 674.921 157.419 674.459 157.65Z" fill="url(#paint42_linear_1251_36)"/>
<path d="M677.232 160.654C676.677 161.023 677.001 161.886 677.232 162.271C679.312 164.351 679.312 163.196 679.312 162.502C679.312 161.809 677.925 160.192 677.232 160.654Z" fill="url(#paint43_linear_1251_36)"/>
<path d="M680.005 164.351C680.005 165.738 681.623 166.662 682.085 166.893C684.165 167.586 683.24 165.969 682.547 165.044C681.854 164.12 680.005 162.965 680.005 164.351Z" fill="url(#paint44_linear_1251_36)"/>
<path d="M684.165 167.586C684.165 168.279 686.706 170.128 686.706 170.59C688.555 173.132 689.479 171.977 689.017 171.052C688.648 170.313 687.323 169.05 686.706 168.511C686.244 168.048 684.165 166.893 684.165 167.586Z" fill="url(#paint45_linear_1251_36)"/>
<path d="M659.901 156.494C659.161 155.57 659.285 154.415 659.439 153.952C660.594 152.797 661.518 153.028 662.674 153.49C663.829 153.952 664.06 156.263 663.367 156.956C662.674 157.65 660.825 157.65 659.901 156.494Z" fill="url(#paint46_linear_1251_36)"/>
<path d="M657.359 159.729C657.282 159.036 657.498 157.65 658.977 157.65C660.825 157.65 658.514 160.654 657.359 159.729Z" fill="url(#paint47_linear_1251_36)"/>
<path d="M656.666 160.654C655.557 161.265 654.971 162.449 654.817 162.965C654.817 163.889 655.279 164.351 655.972 163.658C656.666 162.965 658.052 159.889 656.666 160.654Z" fill="url(#paint48_linear_1251_36)"/>
<path d="M654.355 165.044C653.246 165.997 652.814 168.06 652.737 168.973C652.66 169.435 652.737 170.221 653.662 169.666C654.586 169.111 655.125 167.894 655.279 167.355C655.433 166.188 655.464 164.091 654.355 165.044Z" fill="url(#paint49_linear_1251_36)"/>
<path d="M651.351 176.367C652.46 174.888 652.275 172.978 652.044 172.208C651.351 170.128 650.658 174.057 649.964 175.674C649.271 177.292 649.733 178.216 650.195 177.754C650.565 177.384 651.12 176.675 651.351 176.367Z" fill="url(#paint50_linear_1251_36)"/>
<path d="M665.447 156.956C665.077 156.032 666.371 154.877 667.064 154.415C667.681 153.952 668.959 153.259 669.144 154.183C669.375 155.339 668.451 156.263 668.22 156.494C667.989 156.725 665.909 158.112 665.447 156.956Z" fill="url(#paint51_linear_1251_36)"/>
<path d="M666.602 162.271C665.863 162.086 666.14 161.116 666.371 160.654C667.527 159.498 668.22 159.729 668.451 160.654C668.682 161.578 667.527 162.502 666.602 162.271Z" fill="url(#paint52_linear_1251_36)"/>
<path d="M665.216 166.431C664.846 165.691 665.37 164.89 665.678 164.582C666.602 163.843 667.296 164.274 667.527 164.582C667.758 164.967 668.081 165.876 667.527 166.431C666.833 167.124 665.678 167.355 665.216 166.431Z" fill="url(#paint53_linear_1251_36)"/>
<path d="M665.678 168.511C664.199 168.511 662.751 169.897 662.212 170.59C661.75 171.438 660.964 173.317 661.518 174.057C662.212 174.981 664.06 174.981 665.678 174.75C667.296 174.519 668.451 173.825 668.451 171.515C668.451 169.204 667.527 168.511 665.678 168.511Z" fill="url(#paint54_linear_1251_36)"/>
<path d="M663.136 179.371C662.397 179.187 662.982 177.908 663.367 177.292C665.216 175.905 666.602 176.367 666.371 177.754C666.14 179.14 664.06 179.602 663.136 179.371Z" fill="url(#paint55_linear_1251_36)"/>
<path d="M666.602 185.611C663.829 186.905 661.75 185.842 661.056 185.148C660.671 184.532 660.363 182.93 662.212 181.451C664.06 179.972 666.217 180.835 667.064 181.451C668.066 182.298 669.375 184.317 666.602 185.611Z" fill="url(#paint56_linear_1251_36)"/>
<path d="M664.291 189.539C663.182 190.094 663.059 191.003 663.136 191.388C665.216 192.774 667.527 191.388 667.064 190.463C666.602 189.539 665.678 188.846 664.291 189.539Z" fill="url(#paint57_linear_1251_36)"/>
<path d="M666.371 193.699C664.523 194.253 663.906 195.624 663.829 196.24C664.985 199.244 667.527 198.32 669.144 198.089C670.762 197.858 671.686 196.24 670.762 194.854C669.837 193.467 668.682 193.005 666.371 193.699Z" fill="url(#paint58_linear_1251_36)"/>
<path d="M667.064 201.786C665.401 201.602 665.139 202.942 665.216 203.635C665.678 205.484 667.064 205.022 667.527 205.022C667.989 205.022 669.144 202.017 667.064 201.786Z" fill="url(#paint59_linear_1251_36)"/>
<path d="M667.527 211.954C669.006 210.66 667.527 209.566 666.602 209.181C664.06 209.643 664.754 211.261 665.216 211.954C665.678 212.647 665.678 213.572 667.527 211.954Z" fill="url(#paint60_linear_1251_36)"/>
<path d="M666.602 217.962C665.308 217.962 665.447 216.422 665.678 215.651C666.787 214.727 667.681 215.574 667.989 216.114C668.066 216.73 667.896 217.962 666.602 217.962Z" fill="url(#paint61_linear_1251_36)"/>
<path d="M655.51 149.1C654.031 147.066 655.356 145.325 656.204 144.709C656.897 144.024 657.359 144.478 658.283 144.247C659.208 144.016 661.287 145.171 660.825 147.944C660.363 150.718 657.821 151.179 657.128 150.717C656.573 150.347 655.818 149.485 655.51 149.1Z" fill="url(#paint62_linear_1251_36)"/>
<path d="M654.817 143.785C654.632 143.045 652.737 143.168 651.813 143.322C650.658 143.435 651.12 144.709 652.737 145.171C654.355 145.633 655.048 144.709 654.817 143.785Z" fill="url(#paint63_linear_1251_36)"/>
<path d="M649.04 143.322C648.485 142.952 647.576 143.168 647.191 143.322C644.881 143.784 647.191 144.709 648.347 144.709C649.502 144.709 649.733 143.785 649.04 143.322Z" fill="url(#paint64_linear_1251_36)"/>
<path d="M643.494 144.247C644.234 143.508 642.57 143.322 641.645 143.322C639.427 143.692 639.797 144.093 640.259 144.247C641.029 144.555 642.755 144.986 643.494 144.247Z" fill="url(#paint65_linear_1251_36)"/>
<path d="M637.024 143.785C637.209 143.045 635.56 142.86 634.713 142.86C633.604 142.86 633.789 143.168 634.02 143.322C634.944 143.784 636.839 144.524 637.024 143.785Z" fill="url(#paint66_linear_1251_36)"/>
<path d="M654.355 149.562C653.246 149.007 651.736 150.563 651.12 151.41C649.502 154.183 652.506 152.335 653.2 152.104C653.893 151.873 655.741 150.255 654.355 149.562Z" fill="url(#paint67_linear_1251_36)"/>
<path d="M647.885 155.339C648.069 154.415 647.499 153.105 647.191 152.566C645.343 151.642 645.574 152.104 643.494 153.49C641.83 154.599 642.801 156.263 643.494 156.956C646.267 158.574 647.654 156.494 647.885 155.339Z" fill="url(#paint68_linear_1251_36)"/>
<path d="M640.721 159.729C639.797 159.729 638.872 157.65 639.103 156.494C640.49 154.415 641.645 155.339 642.339 157.65C642.893 159.498 641.491 159.806 640.721 159.729Z" fill="url(#paint69_linear_1251_36)"/>
<path d="M637.024 159.113C635.73 158.62 634.79 159.473 634.482 159.96C633.557 161.439 634.559 162.271 635.175 162.502C637.486 162.733 637.717 161.809 637.948 161.578C638.179 161.347 638.641 159.729 637.024 159.113Z" fill="url(#paint70_linear_1251_36)"/>
<path d="M630.322 163.889C629.768 162.78 630.553 161.578 631.016 161.116C631.755 160.561 632.248 161.039 632.402 161.347C633.095 163.196 632.633 164.12 632.402 164.582C632.171 165.044 631.016 165.275 630.322 163.889Z" fill="url(#paint71_linear_1251_36)"/>
<path d="M622.697 165.506C622.512 163.658 623.39 162.579 623.852 162.271C625.008 161.424 627.457 160.192 628.012 162.04C628.705 164.351 628.936 166.662 628.243 168.511C627.688 169.989 626.009 169.743 625.239 169.435C624.777 169.435 622.928 167.817 622.697 165.506Z" fill="url(#paint72_linear_1251_36)"/>
<path d="M621.31 169.897C621.126 168.233 619.539 167.663 618.768 167.586C618.46 167.586 617.705 167.817 617.151 168.742C616.458 169.897 618.075 170.359 619 171.052C619.924 171.746 621.541 171.977 621.31 169.897Z" fill="url(#paint73_linear_1251_36)"/>
<path d="M613.222 173.363C611.605 173.363 611.143 171.515 611.143 171.284C611.143 169.989 611.605 169.512 611.836 169.435C613.13 168.695 614.07 169.743 614.378 170.359C614.532 171.361 614.516 173.363 613.222 173.363Z" fill="url(#paint74_linear_1251_36)"/>
<path d="M608.601 172.901C607.908 173.132 607.908 174.057 607.908 174.288C607.723 175.767 608.293 175.828 608.601 175.674C609.217 175.443 610.449 174.796 610.449 174.057C610.449 173.132 609.294 172.67 608.601 172.901Z" fill="url(#paint75_linear_1251_36)"/>
<path d="M607.214 178.909C607.769 177.985 607.137 177.292 606.752 177.061C606.013 176.876 605.674 177.138 605.597 177.292C604.857 178.216 604.98 178.755 605.135 178.909C606.244 179.464 606.983 179.14 607.214 178.909Z" fill="url(#paint76_linear_1251_36)"/>
<path d="M602.13 182.375C601.899 181.913 602.593 180.065 602.824 180.065C603.132 179.834 603.794 179.51 603.979 180.065C604.164 180.619 604.056 181.066 603.979 181.22C603.979 181.682 602.362 182.838 602.13 182.375Z" fill="url(#paint77_linear_1251_36)"/>
<path d="M661.981 151.179C661.796 150.44 662.674 149.793 663.136 149.562C663.444 149.408 664.199 149.284 664.754 150.024C665.447 150.948 664.754 152.104 664.061 152.566C663.367 153.028 662.212 152.104 661.981 151.179Z" fill="url(#paint78_linear_1251_36)"/>
<path d="M664.523 147.713C663.829 147.944 663.136 146.096 663.136 145.864C662.951 145.311 663.059 144.709 663.136 144.478C664.291 144.016 665.216 144.247 665.909 145.402C666.603 146.558 665.216 147.482 664.523 147.713Z" fill="url(#paint79_linear_1251_36)"/>
<path d="M666.371 149.1C666.186 148.175 667.527 147.482 668.22 147.251C669.837 147.251 668.451 149.562 668.22 150.255C667.989 150.948 666.602 150.255 666.371 149.1Z" fill="url(#paint80_linear_1251_36)"/>
<defs>
<linearGradient id="paint0_linear_1251_36" x1="422.062" y1="15.1296" x2="722.133" y2="665.072" gradientUnits="userSpaceOnUse">
<stop stop-color="#776577"/>
<stop offset="1" stop-color="#605060"/>
</linearGradient>
<linearGradient id="paint1_linear_1251_36" x1="205.201" y1="421.744" x2="205.315" y2="551.022" gradientUnits="userSpaceOnUse">
<stop stop-color="#887C88"/>
<stop offset="1" stop-color="#7C727C"/>
</linearGradient>
<linearGradient id="paint2_linear_1251_36" x1="214.453" y1="408.402" x2="214.032" y2="553.538" gradientUnits="userSpaceOnUse">
<stop stop-color="#615C78"/>
<stop offset="1" stop-color="#484554"/>
</linearGradient>
<linearGradient id="paint3_linear_1251_36" x1="618.752" y1="78.1699" x2="668.554" y2="224.423" gradientUnits="userSpaceOnUse">
<stop stop-color="#CD4138"/>
<stop offset="1" stop-color="#A33029"/>
</linearGradient>
<linearGradient id="paint4_linear_1251_36" x1="673.049" y1="102.875" x2="673.049" y2="217.962" gradientUnits="userSpaceOnUse">
<stop stop-color="#E66C5A"/>
<stop offset="1" stop-color="#B74736"/>
</linearGradient>
<linearGradient id="paint5_linear_1251_36" x1="673.049" y1="102.875" x2="673.049" y2="217.962" gradientUnits="userSpaceOnUse">
<stop stop-color="#E66C5A"/>
<stop offset="1" stop-color="#B74736"/>
</linearGradient>
<linearGradient id="paint6_linear_1251_36" x1="673.049" y1="102.875" x2="673.049" y2="217.962" gradientUnits="userSpaceOnUse">
<stop stop-color="#E66C5A"/>
<stop offset="1" stop-color="#B74736"/>
</linearGradient>
<linearGradient id="paint7_linear_1251_36" x1="673.049" y1="102.875" x2="673.049" y2="217.962" gradientUnits="userSpaceOnUse">
<stop stop-color="#E66C5A"/>
<stop offset="1" stop-color="#B74736"/>
</linearGradient>
<linearGradient id="paint8_linear_1251_36" x1="673.049" y1="102.875" x2="673.049" y2="217.962" gradientUnits="userSpaceOnUse">
<stop stop-color="#E66C5A"/>
<stop offset="1" stop-color="#B74736"/>
</linearGradient>
<linearGradient id="paint9_linear_1251_36" x1="673.049" y1="102.875" x2="673.049" y2="217.962" gradientUnits="userSpaceOnUse">
<stop stop-color="#E66C5A"/>
<stop offset="1" stop-color="#B74736"/>
</linearGradient>
<linearGradient id="paint10_linear_1251_36" x1="673.049" y1="102.875" x2="673.049" y2="217.962" gradientUnits="userSpaceOnUse">
<stop stop-color="#E66C5A"/>
<stop offset="1" stop-color="#B74736"/>
</linearGradient>
<linearGradient id="paint11_linear_1251_36" x1="673.049" y1="102.875" x2="673.049" y2="217.962" gradientUnits="userSpaceOnUse">
<stop stop-color="#E66C5A"/>
<stop offset="1" stop-color="#B74736"/>
</linearGradient>
<linearGradient id="paint12_linear_1251_36" x1="673.049" y1="102.875" x2="673.049" y2="217.962" gradientUnits="userSpaceOnUse">
<stop stop-color="#E66C5A"/>
<stop offset="1" stop-color="#B74736"/>
</linearGradient>
<linearGradient id="paint13_linear_1251_36" x1="673.049" y1="102.875" x2="673.049" y2="217.962" gradientUnits="userSpaceOnUse">
<stop stop-color="#E66C5A"/>
<stop offset="1" stop-color="#B74736"/>
</linearGradient>
<linearGradient id="paint14_linear_1251_36" x1="673.049" y1="102.875" x2="673.049" y2="217.962" gradientUnits="userSpaceOnUse">
<stop stop-color="#E66C5A"/>
<stop offset="1" stop-color="#B74736"/>
</linearGradient>
<linearGradient id="paint15_linear_1251_36" x1="673.049" y1="102.875" x2="673.049" y2="217.962" gradientUnits="userSpaceOnUse">
<stop stop-color="#E66C5A"/>
<stop offset="1" stop-color="#B74736"/>
</linearGradient>
<linearGradient id="paint16_linear_1251_36" x1="673.049" y1="102.875" x2="673.049" y2="217.962" gradientUnits="userSpaceOnUse">
<stop stop-color="#E66C5A"/>
<stop offset="1" stop-color="#B74736"/>
</linearGradient>
<linearGradient id="paint17_linear_1251_36" x1="673.049" y1="102.875" x2="673.049" y2="217.962" gradientUnits="userSpaceOnUse">
<stop stop-color="#E66C5A"/>
<stop offset="1" stop-color="#B74736"/>
</linearGradient>
<linearGradient id="paint18_linear_1251_36" x1="673.049" y1="102.875" x2="673.049" y2="217.962" gradientUnits="userSpaceOnUse">
<stop stop-color="#E66C5A"/>
<stop offset="1" stop-color="#B74736"/>
</linearGradient>
<linearGradient id="paint19_linear_1251_36" x1="673.049" y1="102.875" x2="673.049" y2="217.962" gradientUnits="userSpaceOnUse">
<stop stop-color="#E66C5A"/>
<stop offset="1" stop-color="#B74736"/>
</linearGradient>
<linearGradient id="paint20_linear_1251_36" x1="673.049" y1="102.875" x2="673.049" y2="217.962" gradientUnits="userSpaceOnUse">
<stop stop-color="#E66C5A"/>
<stop offset="1" stop-color="#B74736"/>
</linearGradient>
<linearGradient id="paint21_linear_1251_36" x1="673.049" y1="102.875" x2="673.049" y2="217.962" gradientUnits="userSpaceOnUse">
<stop stop-color="#E66C5A"/>
<stop offset="1" stop-color="#B74736"/>
</linearGradient>
<linearGradient id="paint22_linear_1251_36" x1="673.049" y1="102.875" x2="673.049" y2="217.962" gradientUnits="userSpaceOnUse">
<stop stop-color="#E66C5A"/>
<stop offset="1" stop-color="#B74736"/>
</linearGradient>
<linearGradient id="paint23_linear_1251_36" x1="673.049" y1="102.875" x2="673.049" y2="217.962" gradientUnits="userSpaceOnUse">
<stop stop-color="#E66C5A"/>
<stop offset="1" stop-color="#B74736"/>
</linearGradient>
<linearGradient id="paint24_linear_1251_36" x1="673.049" y1="102.875" x2="673.049" y2="217.962" gradientUnits="userSpaceOnUse">
<stop stop-color="#E66C5A"/>
<stop offset="1" stop-color="#B74736"/>
</linearGradient>
<linearGradient id="paint25_linear_1251_36" x1="673.049" y1="102.875" x2="673.049" y2="217.962" gradientUnits="userSpaceOnUse">
<stop stop-color="#E66C5A"/>
<stop offset="1" stop-color="#B74736"/>
</linearGradient>
<linearGradient id="paint26_linear_1251_36" x1="673.049" y1="102.875" x2="673.049" y2="217.962" gradientUnits="userSpaceOnUse">
<stop stop-color="#E66C5A"/>
<stop offset="1" stop-color="#B74736"/>
</linearGradient>
<linearGradient id="paint27_linear_1251_36" x1="673.049" y1="102.875" x2="673.049" y2="217.962" gradientUnits="userSpaceOnUse">
<stop stop-color="#E66C5A"/>
<stop offset="1" stop-color="#B74736"/>
</linearGradient>
<linearGradient id="paint28_linear_1251_36" x1="673.049" y1="102.875" x2="673.049" y2="217.962" gradientUnits="userSpaceOnUse">
<stop stop-color="#E66C5A"/>
<stop offset="1" stop-color="#B74736"/>
</linearGradient>
<linearGradient id="paint29_linear_1251_36" x1="673.049" y1="102.875" x2="673.049" y2="217.962" gradientUnits="userSpaceOnUse">
<stop stop-color="#E66C5A"/>
<stop offset="1" stop-color="#B74736"/>
</linearGradient>
<linearGradient id="paint30_linear_1251_36" x1="673.049" y1="102.875" x2="673.049" y2="217.962" gradientUnits="userSpaceOnUse">
<stop stop-color="#E66C5A"/>
<stop offset="1" stop-color="#B74736"/>
</linearGradient>
<linearGradient id="paint31_linear_1251_36" x1="673.049" y1="102.875" x2="673.049" y2="217.962" gradientUnits="userSpaceOnUse">
<stop stop-color="#E66C5A"/>
<stop offset="1" stop-color="#B74736"/>
</linearGradient>
<linearGradient id="paint32_linear_1251_36" x1="673.049" y1="102.875" x2="673.049" y2="217.962" gradientUnits="userSpaceOnUse">
<stop stop-color="#E66C5A"/>
<stop offset="1" stop-color="#B74736"/>
</linearGradient>
<linearGradient id="paint33_linear_1251_36" x1="673.049" y1="102.875" x2="673.049" y2="217.962" gradientUnits="userSpaceOnUse">
<stop stop-color="#E66C5A"/>
<stop offset="1" stop-color="#B74736"/>
</linearGradient>
<linearGradient id="paint34_linear_1251_36" x1="673.049" y1="102.875" x2="673.049" y2="217.962" gradientUnits="userSpaceOnUse">
<stop stop-color="#E66C5A"/>
<stop offset="1" stop-color="#B74736"/>
</linearGradient>
<linearGradient id="paint35_linear_1251_36" x1="673.049" y1="102.875" x2="673.049" y2="217.962" gradientUnits="userSpaceOnUse">
<stop stop-color="#E66C5A"/>
<stop offset="1" stop-color="#B74736"/>
</linearGradient>
<linearGradient id="paint36_linear_1251_36" x1="673.049" y1="102.875" x2="673.049" y2="217.962" gradientUnits="userSpaceOnUse">
<stop stop-color="#E66C5A"/>
<stop offset="1" stop-color="#B74736"/>
</linearGradient>
<linearGradient id="paint37_linear_1251_36" x1="673.049" y1="102.875" x2="673.049" y2="217.962" gradientUnits="userSpaceOnUse">
<stop stop-color="#E66C5A"/>
<stop offset="1" stop-color="#B74736"/>
</linearGradient>
<linearGradient id="paint38_linear_1251_36" x1="673.049" y1="102.875" x2="673.049" y2="217.962" gradientUnits="userSpaceOnUse">
<stop stop-color="#E66C5A"/>
<stop offset="1" stop-color="#B74736"/>
</linearGradient>
<linearGradient id="paint39_linear_1251_36" x1="673.049" y1="102.875" x2="673.049" y2="217.962" gradientUnits="userSpaceOnUse">
<stop stop-color="#E66C5A"/>
<stop offset="1" stop-color="#B74736"/>
</linearGradient>
<linearGradient id="paint40_linear_1251_36" x1="673.049" y1="102.875" x2="673.049" y2="217.962" gradientUnits="userSpaceOnUse">
<stop stop-color="#E66C5A"/>
<stop offset="1" stop-color="#B74736"/>
</linearGradient>
<linearGradient id="paint41_linear_1251_36" x1="673.049" y1="102.875" x2="673.049" y2="217.962" gradientUnits="userSpaceOnUse">
<stop stop-color="#E66C5A"/>
<stop offset="1" stop-color="#B74736"/>
</linearGradient>
<linearGradient id="paint42_linear_1251_36" x1="673.049" y1="102.875" x2="673.049" y2="217.962" gradientUnits="userSpaceOnUse">
<stop stop-color="#E66C5A"/>
<stop offset="1" stop-color="#B74736"/>
</linearGradient>
<linearGradient id="paint43_linear_1251_36" x1="673.049" y1="102.875" x2="673.049" y2="217.962" gradientUnits="userSpaceOnUse">
<stop stop-color="#E66C5A"/>
<stop offset="1" stop-color="#B74736"/>
</linearGradient>
<linearGradient id="paint44_linear_1251_36" x1="673.049" y1="102.875" x2="673.049" y2="217.962" gradientUnits="userSpaceOnUse">
<stop stop-color="#E66C5A"/>
<stop offset="1" stop-color="#B74736"/>
</linearGradient>
<linearGradient id="paint45_linear_1251_36" x1="673.049" y1="102.875" x2="673.049" y2="217.962" gradientUnits="userSpaceOnUse">
<stop stop-color="#E66C5A"/>
<stop offset="1" stop-color="#B74736"/>
</linearGradient>
<linearGradient id="paint46_linear_1251_36" x1="673.049" y1="102.875" x2="673.049" y2="217.962" gradientUnits="userSpaceOnUse">
<stop stop-color="#E66C5A"/>
<stop offset="1" stop-color="#B74736"/>
</linearGradient>
<linearGradient id="paint47_linear_1251_36" x1="673.049" y1="102.875" x2="673.049" y2="217.962" gradientUnits="userSpaceOnUse">
<stop stop-color="#E66C5A"/>
<stop offset="1" stop-color="#B74736"/>
</linearGradient>
<linearGradient id="paint48_linear_1251_36" x1="673.049" y1="102.875" x2="673.049" y2="217.962" gradientUnits="userSpaceOnUse">
<stop stop-color="#E66C5A"/>
<stop offset="1" stop-color="#B74736"/>
</linearGradient>
<linearGradient id="paint49_linear_1251_36" x1="673.049" y1="102.875" x2="673.049" y2="217.962" gradientUnits="userSpaceOnUse">
<stop stop-color="#E66C5A"/>
<stop offset="1" stop-color="#B74736"/>
</linearGradient>
<linearGradient id="paint50_linear_1251_36" x1="673.049" y1="102.875" x2="673.049" y2="217.962" gradientUnits="userSpaceOnUse">
<stop stop-color="#E66C5A"/>
<stop offset="1" stop-color="#B74736"/>
</linearGradient>
<linearGradient id="paint51_linear_1251_36" x1="673.049" y1="102.875" x2="673.049" y2="217.962" gradientUnits="userSpaceOnUse">
<stop stop-color="#E66C5A"/>
<stop offset="1" stop-color="#B74736"/>
</linearGradient>
<linearGradient id="paint52_linear_1251_36" x1="673.049" y1="102.875" x2="673.049" y2="217.962" gradientUnits="userSpaceOnUse">
<stop stop-color="#E66C5A"/>
<stop offset="1" stop-color="#B74736"/>
</linearGradient>
<linearGradient id="paint53_linear_1251_36" x1="673.049" y1="102.875" x2="673.049" y2="217.962" gradientUnits="userSpaceOnUse">
<stop stop-color="#E66C5A"/>
<stop offset="1" stop-color="#B74736"/>
</linearGradient>
<linearGradient id="paint54_linear_1251_36" x1="673.049" y1="102.875" x2="673.049" y2="217.962" gradientUnits="userSpaceOnUse">
<stop stop-color="#E66C5A"/>
<stop offset="1" stop-color="#B74736"/>
</linearGradient>
<linearGradient id="paint55_linear_1251_36" x1="673.049" y1="102.875" x2="673.049" y2="217.962" gradientUnits="userSpaceOnUse">
<stop stop-color="#E66C5A"/>
<stop offset="1" stop-color="#B74736"/>
</linearGradient>
<linearGradient id="paint56_linear_1251_36" x1="673.049" y1="102.875" x2="673.049" y2="217.962" gradientUnits="userSpaceOnUse">
<stop stop-color="#E66C5A"/>
<stop offset="1" stop-color="#B74736"/>
</linearGradient>
<linearGradient id="paint57_linear_1251_36" x1="673.049" y1="102.875" x2="673.049" y2="217.962" gradientUnits="userSpaceOnUse">
<stop stop-color="#E66C5A"/>
<stop offset="1" stop-color="#B74736"/>
</linearGradient>
<linearGradient id="paint58_linear_1251_36" x1="673.049" y1="102.875" x2="673.049" y2="217.962" gradientUnits="userSpaceOnUse">
<stop stop-color="#E66C5A"/>
<stop offset="1" stop-color="#B74736"/>
</linearGradient>
<linearGradient id="paint59_linear_1251_36" x1="673.049" y1="102.875" x2="673.049" y2="217.962" gradientUnits="userSpaceOnUse">
<stop stop-color="#E66C5A"/>
<stop offset="1" stop-color="#B74736"/>
</linearGradient>
<linearGradient id="paint60_linear_1251_36" x1="673.049" y1="102.875" x2="673.049" y2="217.962" gradientUnits="userSpaceOnUse">
<stop stop-color="#E66C5A"/>
<stop offset="1" stop-color="#B74736"/>
</linearGradient>
<linearGradient id="paint61_linear_1251_36" x1="673.049" y1="102.875" x2="673.049" y2="217.962" gradientUnits="userSpaceOnUse">
<stop stop-color="#E66C5A"/>
<stop offset="1" stop-color="#B74736"/>
</linearGradient>
<linearGradient id="paint62_linear_1251_36" x1="673.049" y1="102.875" x2="673.049" y2="217.962" gradientUnits="userSpaceOnUse">
<stop stop-color="#E66C5A"/>
<stop offset="1" stop-color="#B74736"/>
</linearGradient>
<linearGradient id="paint63_linear_1251_36" x1="673.049" y1="102.875" x2="673.049" y2="217.962" gradientUnits="userSpaceOnUse">
<stop stop-color="#E66C5A"/>
<stop offset="1" stop-color="#B74736"/>
</linearGradient>
<linearGradient id="paint64_linear_1251_36" x1="673.049" y1="102.875" x2="673.049" y2="217.962" gradientUnits="userSpaceOnUse">
<stop stop-color="#E66C5A"/>
<stop offset="1" stop-color="#B74736"/>
</linearGradient>
<linearGradient id="paint65_linear_1251_36" x1="673.049" y1="102.875" x2="673.049" y2="217.962" gradientUnits="userSpaceOnUse">
<stop stop-color="#E66C5A"/>
<stop offset="1" stop-color="#B74736"/>
</linearGradient>
<linearGradient id="paint66_linear_1251_36" x1="673.049" y1="102.875" x2="673.049" y2="217.962" gradientUnits="userSpaceOnUse">
<stop stop-color="#E66C5A"/>
<stop offset="1" stop-color="#B74736"/>
</linearGradient>
<linearGradient id="paint67_linear_1251_36" x1="673.049" y1="102.875" x2="673.049" y2="217.962" gradientUnits="userSpaceOnUse">
<stop stop-color="#E66C5A"/>
<stop offset="1" stop-color="#B74736"/>
</linearGradient>
<linearGradient id="paint68_linear_1251_36" x1="673.049" y1="102.875" x2="673.049" y2="217.962" gradientUnits="userSpaceOnUse">
<stop stop-color="#E66C5A"/>
<stop offset="1" stop-color="#B74736"/>
</linearGradient>
<linearGradient id="paint69_linear_1251_36" x1="673.049" y1="102.875" x2="673.049" y2="217.962" gradientUnits="userSpaceOnUse">
<stop stop-color="#E66C5A"/>
<stop offset="1" stop-color="#B74736"/>
</linearGradient>
<linearGradient id="paint70_linear_1251_36" x1="673.049" y1="102.875" x2="673.049" y2="217.962" gradientUnits="userSpaceOnUse">
<stop stop-color="#E66C5A"/>
<stop offset="1" stop-color="#B74736"/>
</linearGradient>
<linearGradient id="paint71_linear_1251_36" x1="673.049" y1="102.875" x2="673.049" y2="217.962" gradientUnits="userSpaceOnUse">
<stop stop-color="#E66C5A"/>
<stop offset="1" stop-color="#B74736"/>
</linearGradient>
<linearGradient id="paint72_linear_1251_36" x1="673.049" y1="102.875" x2="673.049" y2="217.962" gradientUnits="userSpaceOnUse">
<stop stop-color="#E66C5A"/>
<stop offset="1" stop-color="#B74736"/>
</linearGradient>
<linearGradient id="paint73_linear_1251_36" x1="673.049" y1="102.875" x2="673.049" y2="217.962" gradientUnits="userSpaceOnUse">
<stop stop-color="#E66C5A"/>
<stop offset="1" stop-color="#B74736"/>
</linearGradient>
<linearGradient id="paint74_linear_1251_36" x1="673.049" y1="102.875" x2="673.049" y2="217.962" gradientUnits="userSpaceOnUse">
<stop stop-color="#E66C5A"/>
<stop offset="1" stop-color="#B74736"/>
</linearGradient>
<linearGradient id="paint75_linear_1251_36" x1="673.049" y1="102.875" x2="673.049" y2="217.962" gradientUnits="userSpaceOnUse">
<stop stop-color="#E66C5A"/>
<stop offset="1" stop-color="#B74736"/>
</linearGradient>
<linearGradient id="paint76_linear_1251_36" x1="673.049" y1="102.875" x2="673.049" y2="217.962" gradientUnits="userSpaceOnUse">
<stop stop-color="#E66C5A"/>
<stop offset="1" stop-color="#B74736"/>
</linearGradient>
<linearGradient id="paint77_linear_1251_36" x1="673.049" y1="102.875" x2="673.049" y2="217.962" gradientUnits="userSpaceOnUse">
<stop stop-color="#E66C5A"/>
<stop offset="1" stop-color="#B74736"/>
</linearGradient>
<linearGradient id="paint78_linear_1251_36" x1="673.049" y1="102.875" x2="673.049" y2="217.962" gradientUnits="userSpaceOnUse">
<stop stop-color="#E66C5A"/>
<stop offset="1" stop-color="#B74736"/>
</linearGradient>
<linearGradient id="paint79_linear_1251_36" x1="673.049" y1="102.875" x2="673.049" y2="217.962" gradientUnits="userSpaceOnUse">
<stop stop-color="#E66C5A"/>
<stop offset="1" stop-color="#B74736"/>
</linearGradient>
<linearGradient id="paint80_linear_1251_36" x1="673.049" y1="102.875" x2="673.049" y2="217.962" gradientUnits="userSpaceOnUse">
<stop stop-color="#E66C5A"/>
<stop offset="1" stop-color="#B74736"/>
</linearGradient>
</defs>
</svg>
