<svg width="1920" height="378" viewBox="0 0 1920 378" fill="none" xmlns="http://www.w3.org/2000/svg">
<path d="M1833.19 167.12C1849.42 159.854 1908.23 155.346 1935.61 154H1953.86C1956.23 190.333 1959.54 263 1953.86 263C1946.77 263 1902.15 258.963 1884.91 255.935C1867.67 252.907 1840.27 249.009 1811.87 252.037C1789.16 254.459 1761.5 256 1747.5 256C1728.5 256 1713.5 258.963 1701.37 258.963C1689.2 260.981 1672.98 256.944 1673.99 252.907C1674.8 249.678 1689.88 248.87 1697.31 248.87C1715.97 248.063 1734.83 241.806 1741.93 238.778C1748.42 233.126 1739.23 230.367 1733.82 229.694C1714.55 225.657 1669.94 229.694 1644.58 229.694H1573.6C1556.57 230.502 1559.07 225.994 1562.45 223.639C1580.3 217.18 1626.67 213.546 1647.63 212.537C1668.5 212.537 1682.5 209.439 1692.25 208.5C1717.39 206.078 1781.14 204.127 1809.87 203.454H1845.36C1851.85 203.454 1855.5 202.108 1856.52 201.435C1864.63 197.398 1882.88 195.716 1891 195.38C1901.54 193.765 1898.77 189.997 1896.07 188.315C1883.9 186.296 1875.78 186.296 1852.46 182.259C1829.14 178.222 1824.07 183.269 1820.01 178.222C1816.77 174.185 1827.45 169.139 1833.19 167.12Z" fill="#B07777" fill-opacity="0.19"/>
<path d="M95.5587 8.7766C79.4013 4.56013 61.1207 2.50209 54 2.00013C42.3333 0.83346 15.1 -0.799874 -0.5 2.00013V104.5C11.6667 103.388 31 99.5 54.5 97L100.5 92C168 84 242.244 88.2119 274.999 87.459C303.896 85.6519 323.031 81.9374 328.987 80.306C340.173 76.3907 337.014 71.1452 334.036 69.0119C315.082 62.9884 264.513 58.9727 241.597 57.7178C229.79 56.5131 227.097 54.204 227.226 53.2001C227.226 49.586 233.182 47.4276 236.159 46.8001C247.967 43.186 289.5 41.7805 308.79 41.5295C328.676 40.9272 340.38 34.0001 343.746 30.6119C345.61 25.4919 336.755 22.455 332.094 21.5766C308.169 16.1554 253.508 15.804 229.168 16.306C178.676 16.306 115.756 14.0472 95.5587 8.7766Z" fill="#3D2C61" fill-opacity="0.2"/>
<path d="M1484.31 346.125C1468.15 348.152 1418.12 346.97 1395.12 346.125C1388.39 345.898 1383.91 346.031 1382.5 346.125C1373 347 1376.61 349.222 1379.13 349.504C1383.5 349.504 1389.5 350.5 1391.75 352.037C1394.68 354.031 1393.5 355.5 1391.75 355.415C1382.5 356.5 1379.22 357.092 1379.5 358.5C1379.5 360 1394.02 362.769 1395.12 363C1397.5 363.5 1407 364.5 1405.22 366.394C1402.5 370 1377.5 368 1376.61 368.928C1372 370.5 1380 375.684 1382.5 375.684C1464.11 380.752 1510.39 376.529 1548.25 372.306C1586.11 368.083 1592 363.016 1592 358.793C1592 355.415 1587.51 357.386 1585.27 358.793C1560.87 368.083 1479.26 358.793 1465.8 358.793C1455.03 358.793 1456 353.398 1459 354C1462.37 354.676 1482.5 353.675 1484.31 352.882C1495.08 348.152 1486.5 345.5 1484.31 346.125Z" fill="#A77A96" fill-opacity="0.33"/>
<path d="M875.319 161.526C836.758 157.054 786.494 159.698 779.967 161.875C771.584 164.67 758.999 162.5 744.499 166C726.496 169.31 746.499 173.5 758.501 173.5C782.501 175 804.648 188.082 827.002 187.383C844.885 186.824 851.502 203.686 857.389 206.951C871.002 214.5 891.039 216.385 910.596 217.434C941.333 216.735 950.414 217.783 965.084 222.326C979.754 226.869 1047.17 227.567 1096.41 222.326C1135.81 218.133 1156.37 217.318 1161.73 217.434C1173.26 217.434 1183.12 216.736 1182 214.5C1180.88 212.264 1170.5 210.5 1165.5 209.5C1158.69 208.138 1154.75 207.039 1148.81 205.554C1128.69 200.522 1063.12 199.73 1032.84 199.963C1004.9 200.522 1021.2 191.809 1032.84 187.383C1047.37 183.749 1048.45 179.347 1047.17 177.599C1036.55 173.965 998.033 178.182 980.103 177.6C954.396 178.997 899.535 167.466 875.319 161.526Z" fill="#4F416B" fill-opacity="0.2"/>
</svg>
