<svg width="141" height="122" viewBox="0 0 141 122" fill="none" xmlns="http://www.w3.org/2000/svg">
<path d="M43.2581 38.3334C48.0687 35.3277 55.2712 35.5669 58.271 36.0622C63.5531 45.5256 53.3167 60.7149 47.5383 67.1267C44.5044 68.7598 37.8391 71.6796 35.4495 70.2937C32.4624 68.5614 29.0158 70.4286 26.2553 71.0054C23.4947 71.5822 14.9355 75.9513 13.7124 76.5756L13.7123 76.5756C12.4895 77.1998 11.3424 77.4235 11.1281 77.3881C10.6995 77.3173 10.6409 76.6642 10.9267 76.1157C11.6202 74.7846 11.6911 74.0786 11.923 73.1824C12.7424 70.0164 12.9621 68.854 13.5363 65.8161L13.5379 65.8079C14.2571 62.0027 15.0976 59.8286 14.6113 55.4526C14.2841 52.5077 14.9779 48.8368 15.079 48.3019L15.0791 48.3017C15.1296 48.0346 15.3872 45.5026 16.9197 46.7469C18.8354 48.3023 24.7838 54.2409 26.523 55.5607C27.9143 56.6165 29.9258 58.6007 33.2831 61.8818C32.5773 60.9392 30.9618 58.7311 30.1452 57.4398C29.1245 55.8256 29.3267 53.5873 30.8273 50.3242C32.3279 47.0612 37.2448 42.0905 43.2581 38.3334Z" fill="url(#paint0_linear_752_1975)"/>
<path d="M36.2577 57.8311C35.0377 56.8036 34.1913 53.5661 34.3806 52.5647C34.5572 51.6301 35.1197 50.2911 35.9562 52.4118C36.7928 54.5325 38.6404 55.7463 39.4218 56.2883C40.2032 56.8304 40.392 58.1695 40.1146 58.4679C39.3373 58.6837 37.4776 58.8586 36.2577 57.8311Z" fill="#ECC852"/>
<path d="M48.9038 49.3891C48.9444 48.2393 49.0393 44.3861 49.0816 42.6033C49.1216 40.9577 49.964 41.2345 50.3801 41.5786C50.9177 42.6311 52.018 45.0707 52.1186 46.4091C52.2443 48.082 51.7022 48.612 51.198 48.9418C50.6937 49.2716 48.8531 50.8264 48.9038 49.3891Z" fill="#ECC852"/>
<path d="M42.1435 52.3974C41.0144 50.8892 40.5845 47.8038 41.0258 46.6375C42.0748 44.8282 42.2708 47.0487 42.4723 48.321C43.4199 50.3371 46.0514 51.5969 45.9 52.398C45.7486 53.199 45.3449 54.1651 44.6642 54.2592C43.9835 54.3533 43.5549 54.2826 42.1435 52.3974Z" fill="#ECC852"/>
<path d="M55.1918 50.0084C57.1797 43.2324 56.7033 34.2183 56.2166 30.5583C57.0943 28.7206 59.0108 30.1936 59.8593 31.1597L69.3848 50.9062L45.704 95.5282L36.6416 93.2058C30.7932 91.4141 24.2399 85.1691 23.7106 84.4622C23.1814 83.7552 22.4757 82.8127 22.6271 82.0116C22.7785 81.2105 28.7296 73.1062 36.6335 69.8678C44.5374 66.6294 52.707 58.4784 55.1918 50.0084Z" fill="url(#paint1_linear_752_1975)"/>
<path d="M52.8762 24.8485C44.9324 12.6327 26.3172 5.59398 18.0025 3.60159C18.1539 2.80052 22.6959 2.93088 24.9479 3.09619C41.1324 4.44668 54.9172 8.59513 59.7865 10.5005C67.0926 13.1525 84.4524 20.5209 95.4423 28.7788C109.18 39.1012 118 54.3943 120.494 65.7515C122.987 77.1088 125.634 80.6435 127.902 82.6702C129.717 84.2915 128.733 85.2857 128.015 85.5801C125.137 85.9998 117.086 87.9886 107.909 92.5863C96.4371 98.3334 76.9622 99.6614 73.2688 100.497C69.5754 101.333 33.6905 94.7885 37.1067 93.0808C40.523 91.3732 52.8024 80.1834 58.2627 67.6612C63.7231 55.1391 62.8059 40.1182 52.8762 24.8485Z" fill="url(#paint2_linear_752_1975)"/>
<path d="M82.7906 20.9065C80.6225 19.5162 81.0301 20.4782 81.2149 21.0594C83.5842 24.4243 84.8476 29.507 85.1832 31.6278C88.0158 48.2039 85.2162 56.0025 79.2137 69.0547C74.4117 79.4964 70.8792 82.7544 67.3994 87.1364C61.7511 93.6385 58.6413 96.8423 56.4436 98.3381L59.872 98.9042C59.0549 100.421 58.733 100.644 58.6742 100.565C57.6857 102.054 54.1358 103.533 52.4845 104.087C51.1937 104.369 50.7448 105.107 50.6817 105.441C50.2075 107.015 54.702 108.721 57.0086 109.377C65.1157 111.376 72.5965 110.298 75.3235 109.51C89.2786 102.314 86.7823 105 91.8005 97.1543C96.8188 89.3091 102.381 70.4016 100.393 51.6932C98.803 36.7265 95.6751 29.505 94.3099 27.7652C90.0449 25.0784 84.8532 22.0733 82.7906 20.9065Z" fill="url(#paint3_linear_752_1975)"/>
<path d="M109.516 72.9493C108.912 71.4839 107.277 71.6004 106.369 71.7802C105.824 72.0952 105.534 72.507 105.546 73.2009C105.57 74.5884 107.333 75.0136 108.211 75.0528C109.111 75.0424 110.121 74.4148 109.516 72.9493Z" fill="#575853" stroke="#575853" stroke-width="0.55584"/>
<defs>
<linearGradient id="paint0_linear_752_1975" x1="38.246" y1="43.5617" x2="54.052" y2="63.8647" gradientUnits="userSpaceOnUse">
<stop stop-color="#F5D76A"/>
<stop offset="1" stop-color="#DAC371"/>
</linearGradient>
<linearGradient id="paint1_linear_752_1975" x1="53.096" y1="28.9484" x2="42.1985" y2="94.9494" gradientUnits="userSpaceOnUse">
<stop stop-color="#575853"/>
<stop offset="1" stop-color="#202219"/>
</linearGradient>
<linearGradient id="paint2_linear_752_1975" x1="79.5891" y1="11.6634" x2="65.0183" y2="99.9126" gradientUnits="userSpaceOnUse">
<stop stop-color="#F5FFFD"/>
<stop offset="1" stop-color="#EBEBEB"/>
</linearGradient>
<linearGradient id="paint3_linear_752_1975" x1="88.0772" y1="21.3053" x2="73.0783" y2="112.147" gradientUnits="userSpaceOnUse">
<stop stop-color="#575853"/>
<stop offset="1" stop-color="#202219"/>
</linearGradient>
</defs>
</svg>
