<svg width="87" height="72" viewBox="0 0 87 72" fill="none" xmlns="http://www.w3.org/2000/svg">
<path d="M10.0012 50.4048C10.8014 46.0187 15.2823 39.8469 15.8239 38.9966C16.4105 38.0756 16.8989 37.2822 18.7726 35.1765C19.5074 34.3507 19.6666 34.5016 19.4575 34.1283C18.1081 32.173 18.4035 30.1261 18.7556 29.2406C20.1162 26.6731 22.0782 25.6338 23.511 25.0122C26.9903 23.5024 29.7296 23.3967 32.3724 24.4816C35.0152 25.5665 34.3238 26.0347 36.6033 24.3138C38.3913 22.964 43.8408 18.1578 48.2622 17.4215C52.6836 16.6853 56.4348 19.3752 58.1204 21.3966C59.6695 23.2543 59.5713 23.3816 59.8693 23.1566C62.9599 21.4069 64.4529 20.4388 65.6044 17.4978C66.5255 15.145 68.4355 14.5277 69.2754 14.5131C71.3259 14.5404 75.9533 15.7165 78.0587 20.2029C80.6904 25.8109 80.6139 27.0372 79.7574 29.5962C79.0721 31.6433 77.5889 32.084 75.6776 32.3053C69.9256 32.0284 69.5535 32.2345 68.8226 32.3302C65.5042 32.7646 65.3046 32.8623 65.827 33.7952C66.1425 34.3586 67.1612 35.9958 67.9362 38.47C68.7112 40.9442 67.5102 42.4035 66.8128 42.8239C63.5318 45.1423 59.4637 46.6213 55.5924 46.4106C52.9683 46.2678 53.4722 46.2592 52.4737 46.7475C50.8761 47.529 44.7901 50.7439 43.687 51.0457C42.584 51.3475 43.8103 52.1743 44.5419 53.4808C45.2736 54.7873 44.6141 55.427 44.2844 55.7469C43.7899 56.2266 41.9757 57.5298 38.3607 56.9803C36.1359 56.6421 35.3777 56.3554 35.0236 56.4726C30.5165 57.9645 28.3012 58.0975 23.8704 58.3624C17.7164 58.7304 14.2741 57.4293 12.8513 56.8572C11.0166 55.8525 9.20108 54.7908 10.0012 50.4048Z" fill="white"/>
<path d="M75.6771 32.3061C69.9251 32.0292 69.553 32.2353 68.8221 32.331C69.4379 30.6759 70.5433 28.4259 69.2434 25.4476C67.9436 22.4694 65.4993 19.6705 64.5867 19.4036C65.1764 18.6396 65.534 17.6676 65.6038 17.4986C66.525 15.1458 68.435 14.5284 69.2749 14.5139C71.3254 14.5411 75.9527 15.7173 78.0581 20.2037C80.6899 25.8117 80.6134 27.038 79.7569 29.597C79.0716 31.6441 77.5883 32.0848 75.6771 32.3061Z" fill="url(#paint0_linear_246_162)"/>
<path d="M55.5925 46.4115C52.9684 46.2687 53.4723 46.2601 52.4738 46.7484C52.8083 45.6153 52.461 42.0601 52.4012 40.3456C52.4403 37.2354 50.9209 31.7966 44.6759 27.0051C41.0176 24.1982 38.5984 23.8753 37.4512 23.6439C39.2392 22.2941 43.841 18.1586 48.2624 17.4224C52.6837 16.6862 56.435 19.3761 58.1206 21.3975C59.6697 23.2552 58.6919 22.0503 60.241 23.908C60.9452 24.7524 65.3048 32.8632 65.8272 33.7961C66.1427 34.3595 67.1613 35.9967 67.9363 38.4709C68.7113 40.945 67.5103 42.4044 66.813 42.8248C63.532 45.1431 59.4639 46.6222 55.5925 46.4115Z" fill="url(#paint1_linear_246_162)"/>
<path d="M38.3609 56.9808C36.1362 56.6426 35.3779 56.3559 35.0238 56.4731C32.9463 57.1243 31.1857 57.5517 30.5652 57.684C30.0426 56.7508 29.9006 54.6803 30.1675 52.8854C31.3019 44.0083 29.9562 42.1231 28.6124 40.5686C27.1677 38.8975 25.2824 37.6799 24.4111 37.155C21.8634 35.7858 19.6257 35.3081 18.7728 35.177C19.5076 34.3512 19.6668 34.5021 19.4577 34.1288C18.1083 32.1735 18.4037 30.1266 18.7558 29.2411C20.1164 26.6736 22.0784 25.6343 23.5112 25.0126C26.9906 23.5029 29.7298 23.3972 32.3726 24.4821C35.0154 25.567 34.5052 25.6795 35.663 24.9931C37.9548 23.6342 47.7092 42.2333 45.4897 50.263C44.8009 50.6186 44.1717 50.9137 43.6873 51.0462C42.5843 51.348 43.8105 52.1748 44.5422 53.4813C45.2738 54.7878 44.6144 55.4275 44.2847 55.7473C43.7901 56.2271 41.9759 57.5303 38.3609 56.9808Z" fill="url(#paint2_linear_246_162)"/>
<path d="M10.0003 50.4052C10.8005 46.0191 15.2814 39.8473 15.823 38.997C19.7252 38.9901 22.5165 40.268 23.3154 41.0192C26.9744 44.4599 26.1739 49.8447 25.5077 51.835C24 56.3391 23.6137 57.207 23.8695 58.3628C17.7155 58.7308 14.2732 57.4297 12.8504 56.8576C11.0157 55.8529 9.20018 54.7912 10.0003 50.4052Z" fill="url(#paint3_linear_246_162)"/>
<path d="M16.5797 48.1961C16.5898 48.8953 16.2541 50.2615 14.8299 50.133C13.0497 49.9724 13.6751 47.1482 16.5797 48.1961Z" fill="#8D583A"/>
<path d="M23.8223 58.3643L23.7084 57.7067C23.49 56.8624 25.4216 52.5887 25.8788 50.2251C26.3359 47.8615 26.375 44.7513 23.8945 41.6848C21.9101 39.2316 19.2174 39.6929 16.2797 38.99L15.871 38.7144" stroke="url(#paint4_linear_246_162)" stroke-width="0.625239"/>
<path d="M30.565 57.6831C30.4605 57.4965 30.1096 55.0526 30.5667 52.689C31.0239 50.3254 30.8446 46.371 29.9711 42.9939C29.0975 39.6169 26.5499 38.2477 25.124 37.5186C23.566 36.7219 20.8873 35.7075 19.3345 35.3575L18.9257 35.0819" stroke="url(#paint5_linear_246_162)" stroke-width="0.625239"/>
<path d="M35.8636 24.894C36.4814 25.5428 38.9245 26.7254 43.1717 36.5364C46.6477 44.5659 44.907 48.7651 45.7432 50.2583" stroke="url(#paint6_linear_246_162)" stroke-width="0.625239"/>
<path d="M59.623 23.2578C60.545 23.9956 62.7213 26.9732 65.6666 33.1411" stroke="url(#paint7_linear_246_162)" stroke-width="0.625239"/>
<path d="M37.4492 23.6426C37.9625 24.1048 40.7681 24.7402 42.3261 25.5368C43.039 25.9013 45.5867 27.2706 49.1982 31.4482C52.0874 34.7903 52.5486 39.3994 52.418 41.2862L52.5208 46.4669L52.6253 46.6536" stroke="url(#paint8_linear_246_162)" stroke-width="0.625239"/>
<path d="M64.5873 19.402C64.996 19.6776 65.9233 20.2992 67.2581 21.8998C68.8072 23.7575 69.7386 24.9663 69.8992 27.9788C70.0397 30.6151 68.9568 31.293 69.08 32.4216" stroke="url(#paint9_linear_246_162)" stroke-width="0.625239"/>
<defs>
<linearGradient id="paint0_linear_246_162" x1="67.257" y1="15.2004" x2="75.8561" y2="32.7787" gradientUnits="userSpaceOnUse">
<stop stop-color="#E59E75"/>
<stop offset="1" stop-color="#DD8A59"/>
</linearGradient>
<linearGradient id="paint1_linear_246_162" x1="45.743" y1="18.1303" x2="59.6788" y2="46.6179" gradientUnits="userSpaceOnUse">
<stop stop-color="#E59E75"/>
<stop offset="1" stop-color="#DD8A59"/>
</linearGradient>
<linearGradient id="paint2_linear_246_162" x1="24.5486" y1="24.4858" x2="40.7744" y2="57.6548" gradientUnits="userSpaceOnUse">
<stop stop-color="#E69E75"/>
<stop offset="1" stop-color="#D0855A"/>
</linearGradient>
<linearGradient id="paint3_linear_246_162" x1="12.8812" y1="40.436" x2="22.0792" y2="59.2386" gradientUnits="userSpaceOnUse">
<stop stop-color="#E59E75"/>
<stop offset="1" stop-color="#DD8A59"/>
</linearGradient>
<linearGradient id="paint4_linear_246_162" x1="17.2402" y1="38.0446" x2="26.5319" y2="57.0388" gradientUnits="userSpaceOnUse">
<stop stop-color="#B87B58"/>
<stop offset="1" stop-color="#B87B58"/>
</linearGradient>
<linearGradient id="paint5_linear_246_162" x1="21.2416" y1="33.949" x2="32.4105" y2="56.7803" gradientUnits="userSpaceOnUse">
<stop stop-color="#B87B58"/>
<stop offset="1" stop-color="#B87B58"/>
</linearGradient>
<linearGradient id="paint6_linear_246_162" x1="34.6478" y1="25.4887" x2="46.5674" y2="49.8551" gradientUnits="userSpaceOnUse">
<stop stop-color="#B87B58"/>
<stop offset="1" stop-color="#B87B58"/>
</linearGradient>
<linearGradient id="paint7_linear_246_162" x1="59.9055" y1="23.1197" x2="64.9737" y2="33.4801" gradientUnits="userSpaceOnUse">
<stop stop-color="#B87B58"/>
<stop offset="1" stop-color="#B87B58"/>
</linearGradient>
<linearGradient id="paint8_linear_246_162" x1="40.4502" y1="22.1746" x2="52.4637" y2="46.7326" gradientUnits="userSpaceOnUse">
<stop stop-color="#B87B58"/>
<stop offset="1" stop-color="#B87B58"/>
</linearGradient>
<linearGradient id="paint9_linear_246_162" x1="64.1428" y1="19.6194" x2="70.1496" y2="31.8984" gradientUnits="userSpaceOnUse">
<stop stop-color="#B87B58"/>
<stop offset="1" stop-color="#B87B58"/>
</linearGradient>
</defs>
</svg>
