<svg width="49" height="35" viewBox="0 0 49 35" fill="none" xmlns="http://www.w3.org/2000/svg">
<path d="M4.19712 22.2178C5.11399 19.8273 8.2897 16.7755 8.68466 16.348C9.11245 15.885 9.47142 15.4846 10.7488 14.4754C11.2497 14.0797 11.3231 14.1794 11.2454 13.9501C10.6952 12.7256 11.0793 11.6027 11.3715 11.1378C12.4096 9.82144 13.623 9.41987 14.4945 9.20382C16.6107 8.67904 18.1615 8.87451 19.5312 9.73014C20.901 10.5858 20.4625 10.7846 21.9269 10.0295C23.0756 9.43722 26.6502 7.24311 29.2135 7.24071C31.7768 7.2383 33.5986 9.09909 34.3306 10.392C35.0033 11.5802 34.9345 11.6426 35.126 11.5438C37.0493 10.8481 37.9916 10.4429 38.952 8.89711C39.7203 7.66051 40.8595 7.49128 41.333 7.56124C42.4825 7.76735 44.9579 8.85889 45.6633 11.5762C46.5451 14.9728 46.3715 15.6549 45.6175 17.0134C45.0143 18.1002 44.1338 18.2098 43.0361 18.1564C39.8328 17.4656 39.6018 17.5468 39.1808 17.5326C37.2695 17.468 37.1469 17.5043 37.3412 18.0772C37.4585 18.4232 37.8566 19.4381 38.0286 20.9008C38.2007 22.3634 37.3702 23.0718 36.9335 23.2432C34.8426 24.2409 32.3987 24.6936 30.2455 24.215C28.7859 23.8906 29.07 23.9326 28.4568 24.1142C27.4757 24.4048 23.7128 25.6453 23.0608 25.7123C22.4087 25.7793 23.0098 26.358 23.2819 27.1604C23.5539 27.9627 23.1151 28.2609 22.8958 28.41C22.5667 28.6336 21.4083 29.1972 19.4352 28.552C18.2209 28.155 17.8253 27.9233 17.6138 27.9562C14.9218 28.3753 13.6626 28.244 11.1442 27.9806C7.64635 27.6148 5.85032 26.5633 5.11163 26.1094C4.18752 25.374 3.28026 24.6084 4.19712 22.2178Z" fill="white"/>
<path d="M43.0342 18.1571C39.831 17.4663 39.5999 17.5475 39.179 17.5333C39.7013 16.6604 40.5622 15.4987 40.1489 13.7039C39.7356 11.9092 38.6601 10.1087 38.1756 9.87382C38.5884 9.49929 38.8929 8.98629 38.9501 8.89781C39.7184 7.6612 40.8576 7.49197 41.3312 7.56193C42.4807 7.76804 44.956 8.85958 45.6614 11.5769C46.5432 14.9735 46.3696 15.6556 45.6156 17.0141C45.0124 18.1009 44.1319 18.2105 43.0342 18.1571Z" fill="url(#paint0_linear_246_175)"/>
<path d="M30.2451 24.2154C28.7856 23.891 29.0697 23.9331 28.4565 24.1146C28.7652 23.5089 28.9487 21.4785 29.0977 20.5094C29.4509 18.7651 29.1763 15.567 26.1769 12.293C24.4199 10.3751 23.0946 9.96857 22.4745 9.7318C23.6232 9.13953 26.6499 7.24352 29.2132 7.24112C31.7765 7.23871 33.5982 9.09951 34.3302 10.3924C35.003 11.5806 34.5818 10.8124 35.2546 12.0006C35.5604 12.5407 37.1466 17.5047 37.3408 18.0776C37.4582 18.4236 37.8563 19.4386 38.0283 20.9012C38.2003 22.3638 37.3699 23.0722 36.9332 23.2436C34.8423 24.2413 32.3984 24.694 30.2451 24.2154Z" fill="url(#paint1_linear_246_175)"/>
<path d="M19.4356 28.5513C18.2213 28.1542 17.8257 27.9226 17.6142 27.9555C16.3772 28.1281 15.3423 28.2046 14.9794 28.2212C14.7851 27.6481 14.9259 26.4712 15.267 25.4872C16.8501 20.6038 16.2946 19.419 15.7049 18.4203C15.071 17.3468 14.1412 16.487 13.7074 16.111C12.4214 15.1044 11.2146 14.6277 10.7493 14.4747C11.2502 14.0789 11.3236 14.1786 11.2459 13.9493C10.6957 12.7248 11.0798 11.6019 11.372 11.137C12.4101 9.82065 13.6235 9.41908 14.4949 9.20303C16.6112 8.67825 18.1619 8.87372 19.5317 9.72935C20.9014 10.585 20.6027 10.6007 21.3264 10.3227C22.7592 9.77217 26.2602 21.1328 24.1576 25.4391C23.7326 25.5748 23.3475 25.6821 23.0612 25.7115C22.4091 25.7785 23.0102 26.3573 23.2823 27.1596C23.5543 27.962 23.1156 28.2602 22.8962 28.4092C22.5671 28.6328 21.4087 29.1965 19.4356 28.5513Z" fill="url(#paint2_linear_246_175)"/>
<path d="M4.19866 22.2175C5.11552 19.8269 8.29122 16.7751 8.68618 16.3476C10.88 16.7069 12.3127 17.6848 12.6816 18.1813C14.3715 20.4554 13.3481 23.4073 12.7617 24.4639C11.4346 26.855 11.1251 27.3068 11.1457 27.9802C7.64788 27.6144 5.85185 26.5629 5.11316 26.109C4.18906 25.3737 3.2818 24.608 4.19866 22.2175Z" fill="url(#paint3_linear_246_175)"/>
<path d="M8.12986 21.5891C8.06108 21.983 7.72685 22.7196 6.94009 22.5149C5.95664 22.259 6.60896 20.7299 8.12986 21.5891Z" fill="#8D583A"/>
<path d="M11.117 27.9783L11.123 27.5981C11.0902 27.1033 12.631 24.8811 13.1397 23.5953C13.6484 22.3095 14.0016 20.5651 12.9342 18.6109C12.0802 17.0476 10.5177 17.0563 8.94155 16.3879L8.74119 16.195" stroke="#B87B58" stroke-width="0.625239"/>
<path d="M14.9782 28.2219C14.9394 28.1072 15.0024 26.7011 15.5111 25.4153C16.0198 24.1294 16.3402 21.8903 16.209 19.9111C16.0777 17.9319 14.7918 16.9253 14.068 16.3829C13.2773 15.7902 11.8799 14.9708 11.0444 14.6297L10.8441 14.4367" stroke="#B87B58" stroke-width="0.625239"/>
<path d="M21.4501 10.2888C21.7282 10.7109 22.9753 11.6029 24.3172 17.512C25.4155 22.348 23.99 24.5461 24.3008 25.4631" stroke="#B87B58" stroke-width="0.625239"/>
<path d="M34.9766 11.5781C35.4161 12.0786 36.322 13.9545 37.3203 17.695" stroke="#B87B58" stroke-width="0.625239"/>
<path d="M22.4746 9.73047C22.7138 10.038 24.2229 10.6561 25.0137 11.2488C25.3756 11.52 26.6616 12.5266 28.2463 15.2105C29.5141 17.3576 29.2824 19.9909 29.008 21.0391L28.514 23.9603L28.5529 24.075" stroke="#B87B58" stroke-width="0.625239"/>
<path d="M38.1771 9.87389C38.3775 10.0668 38.8324 10.5024 39.4121 11.5262C40.0849 12.7144 40.4795 13.4804 40.2489 15.1884C40.0471 16.6832 39.3663 16.9634 39.3153 17.6092" stroke="#B87B58" stroke-width="0.625239"/>
<defs>
<linearGradient id="paint0_linear_246_175" x1="40.124" y1="7.76001" x2="43.2707" y2="18.3842" gradientUnits="userSpaceOnUse">
<stop stop-color="#E59E75"/>
<stop offset="1" stop-color="#CF7C4C"/>
</linearGradient>
<linearGradient id="paint1_linear_246_175" x1="27.7219" y1="7.40458" x2="32.8214" y2="24.6222" gradientUnits="userSpaceOnUse">
<stop stop-color="#E59E75"/>
<stop offset="1" stop-color="#CF7C4C"/>
</linearGradient>
<linearGradient id="paint2_linear_246_175" x1="15.1341" y1="9.00344" x2="21.0716" y2="29.0506" gradientUnits="userSpaceOnUse">
<stop stop-color="#E69E75"/>
<stop offset="1" stop-color="#C97B4F"/>
</linearGradient>
<linearGradient id="paint3_linear_246_175" x1="6.87961" y1="16.8827" x2="10.2455" y2="28.2469" gradientUnits="userSpaceOnUse">
<stop stop-color="#E59E75"/>
<stop offset="1" stop-color="#CF7C4C"/>
</linearGradient>
</defs>
</svg>
