<svg width="106" height="91" viewBox="0 0 106 91" fill="none" xmlns="http://www.w3.org/2000/svg">
<path d="M32.4382 28.7472C36.0457 26.4933 41.4469 26.6727 43.6965 27.0441C47.6575 34.1407 39.9812 45.5312 35.648 50.3394C33.3728 51.5641 28.3745 53.7536 26.5825 52.7143C24.3426 51.4153 21.7579 52.8155 19.6878 53.2481C17.6176 53.6806 11.1987 56.9571 10.2818 57.4252C9.36477 57.8933 8.50457 58.061 8.34388 58.0344C8.02251 57.9814 7.97851 57.4916 8.19283 57.0803C8.71291 56.0821 8.76607 55.5527 8.94 54.8806C9.55446 52.5064 9.71922 51.6347 10.1498 49.3566L10.151 49.3504C10.6903 46.4969 11.3206 44.8666 10.956 41.585C10.7106 39.3766 11.2309 36.6238 11.3067 36.2226L11.3067 36.2225C11.3446 36.0222 11.5378 34.1234 12.687 35.0565C14.1236 36.2229 18.5843 40.6763 19.8885 41.666C20.9319 42.4578 22.4403 43.9458 24.9579 46.4062C24.4287 45.6993 23.2172 44.0435 22.6049 43.0752C21.8395 41.8647 21.991 40.1862 23.1163 37.7392C24.2417 35.2922 27.9288 31.5647 32.4382 28.7472Z" fill="url(#paint0_linear_246_188)"/>
<path d="M27.1887 43.3658C26.2739 42.5953 25.6391 40.1675 25.7811 39.4166C25.9135 38.7157 26.3353 37.7116 26.9626 39.3019C27.59 40.8922 28.9755 41.8024 29.5615 42.2089C30.1474 42.6154 30.289 43.6196 30.081 43.8434C29.4981 44.0052 28.1035 44.1363 27.1887 43.3658Z" fill="#ECC852"/>
<path d="M36.6726 37.0342C36.703 36.1719 36.7741 33.2825 36.8059 31.9455C36.8359 30.7115 37.4675 30.919 37.7796 31.1771C38.1828 31.9663 39.0079 33.7958 39.0833 34.7994C39.1776 36.054 38.7711 36.4515 38.3929 36.6988C38.0148 36.9461 36.6345 38.112 36.6726 37.0342Z" fill="#ECC852"/>
<path d="M31.6022 39.2935C30.7555 38.1625 30.433 35.8488 30.764 34.9742C31.5507 33.6173 31.6976 35.2825 31.8487 36.2366C32.5594 37.7485 34.5327 38.6932 34.4191 39.2939C34.3056 39.8947 34.0029 40.6191 33.4924 40.6897C32.982 40.7603 32.6606 40.7072 31.6022 39.2935Z" fill="#ECC852"/>
<path d="M41.3883 37.501C42.879 32.4196 42.5218 25.66 42.1568 22.9153C42.815 21.5372 44.2522 22.6418 44.8885 23.3663L52.0317 38.1742L34.2734 71.6364L27.4774 69.8948C23.0918 68.5512 18.1774 63.8681 17.7805 63.338C17.3836 62.8078 16.8544 62.101 16.9679 61.5003C17.0815 60.8995 21.5442 54.8221 27.4714 52.3936C33.3986 49.9652 39.5249 43.8527 41.3883 37.501Z" fill="url(#paint1_linear_246_188)"/>
<path d="M39.6513 18.6331C33.6943 9.47247 19.7347 4.19411 13.4995 2.70001C13.613 2.09929 17.019 2.19705 18.7079 2.32102C30.8446 3.33375 41.1819 6.44468 44.8334 7.87355C50.3123 9.86226 63.3304 15.3878 71.5717 21.5805C81.8734 29.3213 88.4879 40.7896 90.3578 49.3064C92.2278 57.8232 94.2123 60.4739 95.9134 61.9937C97.2743 63.2096 96.5369 63.9551 95.998 64.1759C93.8397 64.4906 87.8024 65.982 80.9203 69.4299C72.3178 73.7396 57.7135 74.7355 54.9438 75.3622C52.1741 75.989 25.2639 71.0813 27.8258 69.8007C30.3876 68.5201 39.596 60.1289 43.6907 50.7385C47.7855 41.3481 47.0976 30.0839 39.6513 18.6331Z" fill="url(#paint2_linear_246_188)"/>
<path d="M62.0846 15.6767C60.4588 14.6341 60.7644 15.3555 60.903 15.7913C62.6797 18.3147 63.6271 22.1262 63.8788 23.7165C66.003 36.1471 63.9036 41.9952 59.4023 51.7831C55.8013 59.6134 53.1522 62.0566 50.5427 65.3426C46.3071 70.2185 43.975 72.6211 42.3269 73.7428L44.8979 74.1673C44.2851 75.3051 44.0437 75.4717 43.9996 75.4128C43.2583 76.5294 40.5963 77.6385 39.358 78.0536C38.39 78.2654 38.0534 78.819 38.0061 79.0693C37.6504 80.2495 41.0209 81.5287 42.7506 82.0208C48.8301 83.5202 54.44 82.7119 56.485 82.1204C66.9499 76.7242 65.0779 78.7382 68.8412 72.855C72.6044 66.9719 76.7757 52.7932 75.2849 38.7637C74.0923 27.5401 71.7467 22.1247 70.7229 20.82C67.5246 18.8052 63.6314 16.5516 62.0846 15.6767Z" fill="url(#paint3_linear_246_188)"/>
<path d="M82.127 54.704C81.6737 53.6051 80.4476 53.6924 79.7668 53.8273C79.3586 54.0635 79.1407 54.3723 79.1498 54.8927C79.1681 55.9331 80.4898 56.252 81.1486 56.2814C81.8233 56.2736 82.5803 55.8029 82.127 54.704Z" fill="#575853" stroke="#575853" stroke-width="0.416826"/>
<defs>
<linearGradient id="paint0_linear_246_188" x1="28.6797" y1="32.668" x2="40.5326" y2="47.8932" gradientUnits="userSpaceOnUse">
<stop stop-color="#F5D76A"/>
<stop offset="1" stop-color="#DAC371"/>
</linearGradient>
<linearGradient id="paint1_linear_246_188" x1="39.8166" y1="21.708" x2="31.6446" y2="71.2024" gradientUnits="userSpaceOnUse">
<stop stop-color="#575853"/>
<stop offset="1" stop-color="#202219"/>
</linearGradient>
<linearGradient id="paint2_linear_246_188" x1="59.6834" y1="8.74558" x2="48.7567" y2="74.9239" gradientUnits="userSpaceOnUse">
<stop stop-color="#F5FFFD"/>
<stop offset="1" stop-color="#EBEBEB"/>
</linearGradient>
<linearGradient id="paint3_linear_246_188" x1="66.049" y1="15.9757" x2="54.8013" y2="84.0978" gradientUnits="userSpaceOnUse">
<stop stop-color="#575853"/>
<stop offset="1" stop-color="#202219"/>
</linearGradient>
</defs>
</svg>
