<svg width="30" height="51" viewBox="0 0 30 51" fill="none" xmlns="http://www.w3.org/2000/svg">
<path d="M23.2775 21.6204C22.4338 21.3838 20.6057 21.9818 19.7972 22.3104C16.0004 25.2676 18.5316 30.196 18.5316 30.7875C18.5316 31.3789 19.7972 31.576 20.9573 31.7732C21.8854 31.9309 22.3987 31.4446 22.5393 31.1818C24.0158 29.4075 24.6486 26.056 24.4377 24.0846C24.2267 22.1132 24.3322 21.9161 23.2775 21.6204Z" fill="#E09868"/>
<path d="M5.46277 12.9462C4.53467 13.4982 3.20756 13.6341 2.18806 13.4041C0.0787332 13.1604 0.253711 14.0907 0.605265 14.8823C1.27322 15.9666 1.46073 16.5633 1.97632 17.3466C2.62519 18.3323 3.59544 17.5352 5.03544 15.6709C6.39516 13.9105 9.69939 14.158 10.6095 14.2262L10.6306 14.2277C13.1557 14.5866 13.6188 15.7392 13.3727 16.4949C12.6134 18.3086 9.89235 20.7992 8.62675 21.8177C7.57209 22.7049 5.80026 25.2677 7.15023 28.422C8.5002 31.5763 12.9157 34.1392 14.9547 35.0263C17.4508 36.2749 22.9701 39.536 22.9701 42.7149C22.9701 45.5735 22.3374 46.362 20.1226 47.1506C17.9078 47.9392 15.5444 47.4068 14.9547 44.6863C14.5274 42.7149 16.6367 41.6937 17.4804 42.2851C18.0078 42.6548 18.3242 42.9751 18.9515 44.2211C19.5038 45.318 20.1171 42.2851 17.7968 41.0037C16.4609 40.3466 14.1688 40.2703 12.7345 42.7149C11.3001 45.1595 12.3478 47.0494 12.9454 47.8051C14.6884 50.0092 17.4804 50.8609 21.4936 50.0092C25.0876 49.2464 25.9529 46.6223 26.2341 45.538C26.4802 43.7637 26.7458 39.6197 23.7084 37.0963C19.9116 33.942 18.9347 30.26 20.1226 23.8877C21.0663 18.8251 22.951 17.1605 23.492 16.8537C24.1248 16.4949 26.0232 15.4737 26.656 16.0651L27.1833 16.8537C28.1325 17.7409 28.9623 17.2361 29.1872 17.0509C29.709 16.6211 30.5582 15.0163 28.7708 14.2277C27.129 13.5034 27.1779 15.044 26.656 14.9809L26.2341 14.8823C25.7068 14.7837 23.492 12.3194 23.492 11.8266C23.492 10.3286 24.841 7.68886 25.3904 7.98229C26.1287 8.37657 26.8384 8.34519 27.0779 8.21488C27.5052 7.98229 28.3489 7.32773 27.5052 6.24345C26.8302 5.37602 25.9584 5.61916 25.6068 5.84916C24.3357 6.60229 25.3904 7.29229 24.7576 7.48943L24.1248 7.68657C20.6444 8.77086 19.3916 6.53959 19.1679 5.91229C18.8515 5.02515 19.2734 3.54687 19.8007 3.54687C20.2226 3.54687 20.7499 3.74401 21.2827 3.48334C22.5982 2.83973 22.0569 1.47687 21.3827 1.08283C20.539 0.589684 19.6903 0.545172 19.1734 1.3149C18.5351 2.26534 19.4843 2.758 19.1734 3.05401L18.5406 3.48334C18.1132 3.74412 15.2711 4.46906 14.6383 3.48334C14.1321 2.69477 13.443 2.8262 13.1618 2.99049C12.3126 3.34984 12.3181 5.0802 10.6306 7.91906C8.52129 11.4676 6.6229 12.2562 5.46277 12.9462Z" fill="url(#paint0_linear_752_1940)"/>
<path d="M11.6758 29.1138C9.98776 23.8895 12.4843 21.5567 14.1015 19.5524C14.7343 18.9609 14.5233 18.9609 14.9452 18.9609C15.2827 18.9609 15.1561 19.6838 15.0506 20.0452C12.203 25.3681 13.1517 30.3953 13.5736 31.1839C13.9111 31.8147 13.2924 31.7096 13.0463 31.5781C12.6244 31.0261 12.1327 29.9024 11.6758 29.1138Z" fill="#F5D687"/>
<path d="M19.0446 21.7912C17.5667 20.8064 16.3024 21.2988 15.3526 21.7912C14.4034 22.4812 15.3079 22.4009 16.0902 22.0874C16.8272 21.7921 17.5672 21.7912 18.8329 22.2845C19.1845 22.4817 19.9243 22.3775 19.0446 21.7912Z" fill="#F5D687"/>
<path d="M18.3739 24.3684C17.0618 23.3582 15.9393 23.8633 15.096 24.3684C14.2532 25.0762 15.0563 24.9938 15.7509 24.6722C16.4052 24.3693 17.0622 24.3684 18.186 24.8745C18.4981 25.0767 19.155 24.9698 18.3739 24.3684Z" fill="#F5D687"/>
<path d="M18.3255 26.5039C16.5874 25.78 15.3388 26.477 14.4227 27.1214C13.5425 27.9604 14.4843 27.73 15.2553 27.2901C15.9817 26.8756 16.7638 26.751 18.1899 27.0257C18.5967 27.1612 19.3602 26.9348 18.3255 26.5039Z" fill="#F5D687"/>
<path d="M18.6062 29.302C17.3631 28.2918 16.2997 28.7969 15.5008 29.302C14.7024 30.0098 15.4632 29.9274 16.1212 29.6058C16.7412 29.3029 17.3635 29.302 18.4282 29.8081C18.7239 30.0103 19.3462 29.9034 18.6062 29.302Z" fill="#F5D687"/>
<path d="M14.3961 9.19078C13.7671 9.06863 13.1561 9.67943 13.3185 10.0866C13.5782 10.7391 14.7 10.2974 14.8422 9.97582C14.933 9.77053 15.0844 9.32443 14.3961 9.19078Z" fill="#91705B"/>
<defs>
<linearGradient id="paint0_linear_752_1940" x1="15.1215" y1="0.722656" x2="15.1215" y2="50.3343" gradientUnits="userSpaceOnUse">
<stop stop-color="#F3C551"/>
<stop offset="1" stop-color="#F2BD6E"/>
</linearGradient>
</defs>
</svg>
