<svg width="38" height="63" viewBox="0 0 38 63" fill="none" xmlns="http://www.w3.org/2000/svg">
<path d="M29.4489 26.5529C28.3788 26.2528 26.06 27.0113 25.0345 27.428C20.2187 31.1789 23.4292 37.43 23.4292 38.1801C23.4292 38.9303 25.0345 39.1803 26.506 39.4304C27.6832 39.6304 28.3342 39.0136 28.5125 38.6802C30.3853 36.4298 31.188 32.1789 30.9204 29.6784C30.6529 27.1779 30.7867 26.9279 29.4489 26.5529Z" fill="#E09868"/>
<path d="M6.85331 15.551C5.67612 16.2511 3.99286 16.4235 2.69974 16.1318C0.024326 15.8227 0.246264 17.0026 0.692166 18.0067C1.53938 19.3819 1.77722 20.1388 2.43118 21.1323C3.25419 22.3826 4.48483 21.3715 6.31129 19.0069C8.03592 16.774 12.2269 17.088 13.3813 17.1744L13.4081 17.1764C16.6109 17.6316 17.1982 19.0935 16.8861 20.052C15.923 22.3525 12.4717 25.5115 10.8664 26.8034C9.52872 27.9287 7.28137 31.1793 8.99364 35.1802C10.7059 39.181 16.3064 42.4317 18.8927 43.5569C22.0586 45.1406 29.0592 49.277 29.0592 53.3089C29.0592 56.9347 28.2566 57.9349 25.4474 58.9351C22.6382 59.9353 19.6406 59.2601 18.8927 55.8095C18.3506 53.3089 21.0261 52.0137 22.0962 52.7639C22.7651 53.2327 23.1664 53.6391 23.9621 55.2194C24.6626 56.6107 25.4405 52.7639 22.4975 51.1385C20.8031 50.305 17.8958 50.2083 16.0765 53.3089C14.2573 56.4096 15.5861 58.8068 16.3441 59.7653C18.5549 62.5609 22.0962 63.6411 27.1864 62.5609C31.745 61.5934 32.8425 58.265 33.1992 56.8897C33.5113 54.6393 33.8482 49.3831 29.9956 46.1825C25.1799 42.1816 23.9408 37.5114 25.4474 29.429C26.6444 23.0077 29.035 20.8963 29.7212 20.5072C30.5238 20.052 32.9316 18.7568 33.7343 19.507L34.4031 20.5072C35.6071 21.6324 36.6595 20.9921 36.9448 20.7572C37.6067 20.2122 38.6838 18.1766 36.4166 17.1764C34.3342 16.2577 34.3962 18.2118 33.7343 18.1317L33.1992 18.0067C32.5303 17.8816 29.7212 14.756 29.7212 14.1309C29.7212 12.2309 31.4321 8.88266 32.129 9.25484C33.0654 9.75494 33.9657 9.71514 34.2694 9.54985C34.8114 9.25484 35.8815 8.42462 34.8114 7.04933C33.9552 5.9491 32.8494 6.2575 32.4035 6.54923C30.7913 7.50448 32.129 8.37966 31.3264 8.62971L30.5238 8.87976C26.1093 10.255 24.5203 7.42496 24.2366 6.6293C23.8352 5.50406 24.3703 3.62905 25.0392 3.62905C25.5743 3.62905 26.2431 3.8791 26.9189 3.54847C28.5875 2.73212 27.9008 1.0035 27.0457 0.503706C25.9756 -0.121784 24.8991 -0.178242 24.2435 0.798067C23.4339 2.00358 24.6379 2.62847 24.2435 3.00392L23.4409 3.54847C22.8988 3.87924 19.294 4.79873 18.4914 3.54847C17.8493 2.54827 16.9753 2.71497 16.6186 2.92334C15.5415 3.37914 15.5484 5.5739 13.4081 9.17464C10.7327 13.6756 8.32478 14.6758 6.85331 15.551Z" fill="url(#paint0_linear_752_1931)"/>
<path d="M14.7349 36.0574C12.5939 29.431 15.7605 26.472 17.8116 23.9298C18.6143 23.1797 18.3467 23.1797 18.8817 23.1797C19.3098 23.1797 19.1493 24.0965 19.0155 24.555C15.4037 31.3064 16.607 37.6827 17.1421 38.6829C17.5702 39.4831 16.7854 39.3497 16.4732 39.183C15.9381 38.4829 15.3146 37.0576 14.7349 36.0574Z" fill="#F5D687"/>
<path d="M24.0802 26.768C22.2058 25.5189 20.6022 26.1435 19.3974 26.768C18.1935 27.6431 19.3407 27.5413 20.333 27.1437C21.2679 26.7691 22.2064 26.768 23.8118 27.3937C24.2577 27.6438 25.1961 27.5117 24.0802 26.768Z" fill="#F5D687"/>
<path d="M23.2295 30.0484C21.5653 28.767 20.1415 29.4077 19.0719 30.0484C18.003 30.9461 19.0216 30.8417 19.9026 30.4338C20.7326 30.0495 21.5659 30.0484 22.9912 30.6903C23.3871 30.9468 24.2203 30.8113 23.2295 30.0484Z" fill="#F5D687"/>
<path d="M23.1661 32.7516C20.9615 31.8335 19.3779 32.7175 18.2159 33.5348C17.0995 34.599 18.294 34.3067 19.272 33.7487C20.1933 33.223 21.1852 33.065 22.9941 33.4134C23.5101 33.5854 24.4785 33.2981 23.1661 32.7516Z" fill="#F5D687"/>
<path d="M23.5238 36.2906C21.9471 35.0092 20.5982 35.6499 19.5849 36.2906C18.5722 37.1883 19.5372 37.0839 20.3718 36.676C21.1582 36.2917 21.9476 36.2906 23.298 36.9325C23.6731 37.189 24.4624 37.0535 23.5238 36.2906Z" fill="#F5D687"/>
<path d="M18.1782 10.7889C17.3803 10.634 16.6053 11.4087 16.8113 11.9251C17.1408 12.7528 18.5636 12.1925 18.744 11.7846C18.8591 11.5243 19.0512 10.9584 18.1782 10.7889Z" fill="#91705B"/>
<defs>
<linearGradient id="paint0_linear_752_1931" x1="19.1042" y1="0.046875" x2="19.1042" y2="62.9732" gradientUnits="userSpaceOnUse">
<stop stop-color="#F3C551"/>
<stop offset="1" stop-color="#F2BD6E"/>
</linearGradient>
</defs>
</svg>
