<svg width="70" height="119" viewBox="0 0 70 119" fill="none" xmlns="http://www.w3.org/2000/svg">
<path d="M54.3603 50.3469C52.3581 49.7855 48.02 51.2045 46.1013 51.9842C37.0915 59.0017 43.098 70.6967 43.098 72.1002C43.098 73.5036 46.1013 73.9715 48.8543 74.4393C51.0567 74.8135 52.2747 73.6596 52.6083 73.0358C56.1122 68.8255 57.6138 60.8726 57.1132 56.1944C56.6127 51.5162 56.863 51.0486 54.3603 50.3469Z" fill="#E09868"/>
<path d="M12.0869 29.7642C9.88455 31.074 6.73534 31.3966 4.31607 30.8508C-0.689335 30.2725 -0.274114 32.48 0.56012 34.3585C2.14516 36.9315 2.59013 38.3475 3.81363 40.2062C5.35338 42.5453 7.65577 40.6537 11.0729 36.2297C14.2995 32.0524 22.1404 32.6397 24.3 32.8015L24.3502 32.8052C30.3423 33.6567 31.4411 36.3918 30.8572 38.1851C29.0552 42.4891 22.5983 48.3992 19.595 50.8162C17.0923 52.9214 12.8878 59.003 16.0913 66.4881C19.2947 73.9732 29.7727 80.0548 34.6112 82.16C40.5343 85.1229 53.6318 92.8616 53.6318 100.405C53.6318 107.188 52.1301 109.06 46.8745 110.931C41.6188 112.802 36.0106 111.539 34.6112 105.083C33.5972 100.405 38.6026 97.9817 40.6047 99.3852C41.8561 100.262 42.6069 101.023 44.0955 103.979C45.4061 106.582 46.8615 99.3852 41.3555 96.3444C38.1855 94.785 32.7463 94.604 29.3426 100.405C25.9389 106.206 28.4249 110.691 29.8431 112.484C33.9792 117.714 40.6047 119.735 50.128 117.714C58.6564 115.904 60.7098 109.677 61.3772 107.104C61.9611 102.894 62.5914 93.0602 55.3836 87.0721C46.3739 79.587 44.0557 70.8497 46.8745 55.7283C49.1139 43.7148 53.5863 39.7647 54.8701 39.0367C56.3717 38.1851 60.8766 35.7619 62.3782 37.1654L63.6296 39.0367C65.882 41.1418 67.851 39.944 68.3847 39.5045C69.6231 38.4847 71.6382 34.6765 67.3966 32.8052C63.5006 31.0864 63.6166 34.7422 62.3782 34.5924L61.3772 34.3585C60.1258 34.1246 54.8701 28.2768 54.8701 27.1073C54.8701 23.5527 58.0712 17.2885 59.375 17.9848C61.1269 18.9205 62.8112 18.846 63.3793 18.5368C64.3934 17.9848 66.3955 16.4316 64.3934 13.8586C62.7916 11.8002 60.7227 12.3772 59.8885 12.923C56.8723 14.7101 59.375 16.3475 57.8734 16.8153L56.3717 17.2831C48.1128 19.8561 45.14 14.5613 44.6091 13.0728C43.8582 10.9676 44.8593 7.45964 46.1107 7.45964C47.1118 7.45964 48.3631 7.92745 49.6274 7.30889C52.7492 5.7816 51.4645 2.54755 49.8647 1.61249C47.8626 0.44227 45.8487 0.336645 44.622 2.16321C43.1074 4.41858 45.3599 5.58767 44.622 6.29009L43.1204 7.30889C42.1064 7.92772 35.362 9.64798 33.8604 7.30889C32.6591 5.43762 31.024 5.7495 30.3566 6.13935C28.3415 6.99209 28.3545 11.0982 24.3502 17.8348C19.3448 26.2555 14.8399 28.1268 12.0869 29.7642Z" fill="url(#paint0_linear_752_1922)"/>
<path d="M26.8348 68.1277C22.8292 55.7306 28.7535 50.1947 32.591 45.4386C34.0927 44.0352 33.592 44.0352 34.593 44.0352C35.3939 44.0352 35.0936 45.7505 34.8433 46.6081C28.086 59.2392 30.3373 71.1685 31.3384 73.0398C32.1392 74.5368 30.671 74.2873 30.087 73.9754C29.0858 72.6655 27.9192 69.999 26.8348 68.1277Z" fill="#F5D687"/>
<path d="M44.3154 50.7594C40.8085 48.4224 37.8083 49.5909 35.5543 50.7594C33.3019 52.3966 35.4483 52.2061 37.3047 51.4622C39.0537 50.7614 40.8096 50.7594 43.8132 51.9301C44.6475 52.3978 46.4031 52.1507 44.3154 50.7594Z" fill="#F5D687"/>
<path d="M42.7224 56.8763C39.6089 54.479 36.9451 55.6776 34.944 56.8763C32.9441 58.5557 34.8498 58.3602 36.498 57.5972C38.0509 56.8783 39.6099 56.8763 42.2766 58.0771C43.0172 58.5569 44.576 58.3034 42.7224 56.8763Z" fill="#F5D687"/>
<path d="M42.6098 61.9416C38.4853 60.224 35.5225 61.8779 33.3485 63.407C31.2598 65.3979 33.4948 64.8511 35.3243 63.8072C37.048 62.8236 38.9038 62.528 42.288 63.1798C43.2534 63.5015 45.0651 62.9642 42.6098 61.9416Z" fill="#F5D687"/>
<path d="M43.27 68.5716C40.3202 66.1743 37.7967 67.3729 35.9008 68.5716C34.0062 70.2511 35.8116 70.0556 37.3731 69.2926C38.8442 68.5736 40.3212 68.5716 42.8476 69.7725C43.5493 70.2523 45.026 69.9988 43.27 68.5716Z" fill="#F5D687"/>
<path d="M33.2754 20.8539C31.7827 20.5641 30.3328 22.0135 30.7181 22.9797C31.3345 24.5283 33.9965 23.4799 34.3339 22.7169C34.5494 22.2297 34.9088 21.1711 33.2754 20.8539Z" fill="#91705B"/>
<defs>
<linearGradient id="paint0_linear_752_1922" x1="34.4641" y1="0.757813" x2="56.467" y2="118.106" gradientUnits="userSpaceOnUse">
<stop stop-color="#F3C551"/>
<stop offset="1" stop-color="#F2B33A"/>
</linearGradient>
</defs>
</svg>
