<svg width="294" height="271" viewBox="0 0 294 271" fill="none" xmlns="http://www.w3.org/2000/svg">
<path d="M46.1953 273.706C40.8531 272.996 38.1198 273.777 25.2343 268.31C20.7451 266.406 8.71229 259.649 5.58896 229.975C5.28705 227.106 5.58853 208.89 25.8923 214.747C30.5772 216.099 45.5218 221.287 44.6341 217.481C43.1132 210.96 28.6399 187.687 33.7013 173.36C34.8245 169.418 39.1672 158.913 52.5062 161.256C61.0329 162.037 75.1211 174.991 80.1647 181.559C81.7267 182.731 80.692 179.595 80.1648 178.435C78.2125 174.14 73.5271 166.331 71.5749 154.618C69.482 142.06 70.0131 127.677 74.6987 114.402C78.6856 103.107 94.2212 96.0506 104.373 104.25C111.495 110.002 115.85 123.542 117.525 129.953C108.054 83.7894 124.073 56.8318 126.629 52.6097C132.537 42.8485 139.904 43.3427 145.761 47.6347C151.617 51.9267 157.474 63.6432 161.63 80.4306C162.238 81.5704 161.378 76.1723 161.63 71.4806C161.946 65.6161 168.32 46.7813 178.659 37.2355C186.931 29.5988 198.692 32.294 203.539 34.5961C206.011 35.3752 211.997 40.0687 216.166 52.6098C216.922 53.7691 217.518 53.8299 219.556 50.7612C228.536 37.2355 240.657 31.6671 244.23 30.8836C255.086 28.503 259.382 29.6744 265.238 33.9693C268.753 37.2355 272.522 40.306 271.876 50.7612C271.069 63.8301 257.43 72.9359 255.868 75.7471C253.915 79.2612 257.429 77.6994 264.067 78.0898C291.399 79.6976 286.648 101.125 281.247 109.326C276.171 117.033 275.055 119.23 257.429 132.362C255.087 134.108 253.916 134.705 248.84 137.438C246.106 139.391 252.309 138.97 257.039 142.124C264.067 146.809 268.638 150.323 264.458 161.256C259.382 174.531 245.099 181.517 221.118 188.978C203.548 194.444 189.647 192.492 189.101 194.444C188.71 197.568 197.375 197.291 204.719 202.253C208.374 204.399 212.918 211.624 208.623 221.385C205.359 228.804 198.862 232.708 195.348 234.661C190.147 237.55 182.463 239.736 166.455 243.25C153.857 246.016 147.457 245.334 150.056 245.984C154.741 247.155 157.246 247.799 159.817 249.888C172.311 260.04 158.204 273.247 157.084 273.706L46.1953 273.706Z" fill="#A16BBA"/>
<path fill-rule="evenodd" clip-rule="evenodd" d="M185.132 117.838C189.099 113.792 195.464 107.505 202.3 101.127C199.635 96.4784 198.481 93.5124 198.066 89.7034L198.023 89.3112C197.607 85.5044 197.283 82.5382 198.495 79.9177C199.493 77.7584 200.407 79.735 200.294 80.6756C200.294 82.9734 200.615 84.6092 200.865 85.8765C201.039 86.7624 201.178 87.4682 201.147 88.0942C202.605 91.7501 204.437 95.8828 206.13 97.5917C213.156 91.1805 220.298 85.0845 225.562 81.5313C225.139 82.1995 222.321 85.5845 214.438 93.7783C212.628 95.6599 210.619 97.6722 208.463 99.7998C208.994 100.41 210.076 101.285 212.261 102.544C217.122 105.348 219.528 105.326 223.859 105.288L223.86 105.288L223.864 105.288C224.39 105.283 224.945 105.278 225.536 105.278C230.221 105.277 230.736 106.714 229.441 108.011C228.269 109.182 217.337 108.791 215.775 108.401C212.142 107.493 207.864 105.436 204.632 103.557C204.065 104.111 203.491 104.671 202.91 105.237C194.34 113.6 184.382 123.318 175.48 133.669C173.813 135.607 170.994 138.824 167.289 143.016C169.573 143.574 172.283 143.661 173.997 143.661C174.362 143.641 174.754 143.622 175.165 143.602C178.267 143.454 182.487 143.252 185.132 141.974C186.189 141.15 188.597 139.862 189.224 140.803C190.006 141.979 185.609 146.33 181.806 147.268C178.002 148.206 176.73 148.221 169.311 148.221C166.687 148.221 164.761 147.846 163.437 147.367C152.609 159.577 136.584 177.499 119.759 196.157C121.207 196.799 123.128 197.471 125.581 198.2C126.837 198.588 132.049 199.451 135.342 198.981C138.075 198.59 138.075 200.543 136.904 200.933C135.645 202.237 128.704 203.276 124.019 202.495C121.321 202.045 118.498 201.155 116.132 200.178C104.499 213.063 92.6372 226.127 81.9766 237.752C84.406 239.156 87.9882 240.587 91.9993 240.587C94.4722 240.717 96.2943 241.368 99.8073 243.102C100.979 244.143 100.588 245.991 89.6556 245.054C86.6223 244.38 81.5599 243.106 78.1973 241.867C66.3866 254.711 56.3624 265.428 50.2485 271.617L44.7578 271.605C47.4894 269.19 57.4249 257.18 69.0417 243.139L69.0421 243.138L69.0424 243.138C70.4415 241.447 71.8649 239.726 73.3031 237.989C70.6126 234.853 65.5765 228.878 67.3999 220.065C69.2741 211.007 70.7847 218.591 70.915 223.797C71.4132 226.986 73.8949 231.471 76.6075 234.002C89.8554 218.033 103.716 201.548 110.909 194.519C106.042 191.736 104.773 185.091 104.035 181.223L104.035 181.222C103.919 180.617 103.816 180.079 103.715 179.635C102.966 176.356 104.514 170.659 105.692 169.885C106.635 169.266 107.19 170.375 107.35 171.007C107.863 184.121 112.216 189.178 115.056 190.452C128.317 177.401 144.078 161.465 161.46 143.166C159.836 140.936 157.41 137.306 156.426 135.337C155.165 132.815 154.083 130.261 154.495 124.828C154.872 119.849 157.562 120.698 157.877 122.867C157.924 123.188 157.97 123.568 158.021 123.987C158.254 125.914 158.587 128.657 159.549 130.261C161.694 135.162 164.452 137.137 166.19 138.171C172.33 131.666 178.656 124.881 185.132 117.838Z" fill="#8C4EB4"/>
</svg>
