<svg width="152" height="255" viewBox="0 0 152 255" fill="none" xmlns="http://www.w3.org/2000/svg">
<path d="M-31.9284 278.124C-31.9963 283.658 -30.126 290.239 -23.254 293.127L80.8933 263.879C81.6297 263.131 81.7668 259.152 78.3725 254.903C71.4928 246.29 63.9282 246.792 57.1747 245.85C54.8754 245.529 58.3414 241.418 66.8813 234.202C78.949 222.296 85.3428 211.849 87.7055 207.265C90.8558 201.153 86.5311 193.919 81.5238 191.107C76.5164 188.296 71.6154 188.077 67.9704 187.614C60.4254 186.164 57.3917 186.529 57.0355 186.223C55.6615 185.663 56.7291 182.822 71.9919 175.94C91.0705 167.337 103.316 151.732 100.254 140.831C97.193 129.929 91.1707 121.482 80.6581 121.595C72.248 121.686 71.0071 120.925 71.4379 120.534C75.2802 116.887 84.8784 106.296 92.5324 93.1159C102.1 76.6401 102.514 68.0069 100.614 61.2407C98.7141 54.4746 88.6131 48.2445 79.4857 50.4022C70.3584 52.5599 69.0787 50.8915 69.0324 49.2823C68.986 47.6731 68.7172 36.0326 67.8987 25.0736C67.2223 16.0188 58.1275 11.4604 55.1486 9.9989C49.9381 9.99933 42.3551 10.3024 39.0054 15.7042C35.6557 21.106 33.0044 32.778 33.1435 37.6056C33.2547 41.4676 32.3579 54.1068 31.5868 53.1874C21.4351 41.0835 14.2303 41.9874 11.9945 42.2096C7.34712 42.0276 -1.90876 45.8427 -5.89642 54.7492C-10.881 65.8824 -6.50228 77.084 -4.33461 81.6903C-1.21101 88.328 12.8673 106.599 11.9945 105.898C21.8256 115.269 24.5702 118.827 22.216 121.516C18.702 125.53 -22.8178 108.359 -25.4189 121.595C-28.933 139.477 -17.0622 142.994 -10.9723 147.676C-6.28912 151.277 -4.65541 164.611 -14.4339 157.828C-21.4581 152.956 -36.3437 149.095 -39.8656 149.629C-46.3067 150.762 -59.8279 163.638 -58.9977 179.303C-57.9599 198.884 -17.9098 197.992 -14.4339 200.26C-13.509 200.863 -11.3339 202.634 -12.1913 202.469C-18.4277 198.967 -21.652 201.013 -23.9453 202.467L-23.9704 202.483C-30.3906 208.504 -31.0979 217.057 -30.649 220.581C-29.7967 233.725 -21.6358 250.123 -18.1999 254.801C-16.1945 257.532 -15.2313 258.073 -14.4665 259.431C-19.848 258.964 -26.1313 263.407 -27.8141 265.256C-30.2936 267.98 -31.8765 273.897 -31.9284 278.124Z" fill="#E3577A"/>
<path fill-rule="evenodd" clip-rule="evenodd" d="M19.0918 255.431C20.447 251.078 22.2921 244.379 24.2615 236.022C18.7578 236.623 12.078 230.301 9.33014 226.929C7.76834 223.805 9.98089 223.545 11.2824 223.805C15.5841 230.114 21.7508 231.64 24.9479 231.646C25.0446 231.684 25.143 231.723 25.2423 231.764C29.2521 213.954 33.5196 189.934 35.1003 165.237C35.2058 163.662 35.3195 161.973 35.4403 160.188C30.7922 157.206 27.6198 153.665 26.9006 150.787C25.4847 145.119 28.8532 146.492 29.6337 148.444C31.5007 151.244 33.9726 153.339 35.8234 154.551C36.8954 138.846 38.3534 118.028 39.6615 100.615C38.6082 100.531 37.454 100.354 36.2721 100.031C31.9771 98.86 27.2917 96.1269 24.5586 91.8319C21.8254 87.537 21.8254 84.4134 23.7777 85.5847C26.5108 89.2289 33.2266 96.5173 38.2243 96.5173C38.6924 96.6343 39.2726 96.7496 39.9461 96.8494C40.8162 85.4129 41.5992 75.8278 42.1284 70.7482C42.7791 69.9673 44.0806 71.8414 44.0806 85.5853C44.0127 88.7542 43.9094 92.682 43.7686 97.1535C47.5387 97.2225 52.3697 96.6717 56.966 94.5651C58.6579 93.3937 62.5885 90.3482 64.775 87.537C65.5559 87.4068 66.6491 87.7712 64.775 90.2701C64.475 90.6701 64.175 91.1406 63.8463 91.656L63.8462 91.6561L63.8461 91.6562L63.8461 91.6563C61.608 95.1659 58.0392 100.762 44.0811 100.422C43.9612 100.448 43.82 100.475 43.6594 100.501C43.1177 116.58 42.1357 138.357 40.6324 157.336C42.9693 157.347 44.5832 157.375 45.7777 157.396C47.4158 157.425 48.2649 157.44 49.1082 157.377C50.0158 157.309 50.9167 157.152 52.787 156.824L52.7876 156.824L52.7877 156.824C53.7088 156.663 54.8651 156.46 56.373 156.207C64.4079 154.857 60.751 157.893 57.9182 159.58C52.7679 161.158 44.8635 161.41 40.3052 161.321C39.9059 166.014 39.4729 170.489 39.0048 174.609C36.9579 192.621 33.4579 215.082 30.4825 232.785C33.6808 233.94 39.1797 234.577 45.0132 231.268C47.9857 230.056 48.3759 233.18 45.389 234.932C43.7162 235.913 35.0141 238.72 29.7278 237.24C28.4646 244.64 27.336 250.965 26.5103 255.431H19.0918Z" fill="#B84A65"/>
</svg>
