<svg width="188" height="255" viewBox="0 0 188 255" fill="none" xmlns="http://www.w3.org/2000/svg">
<path d="M1.24296 238.991C-0.318845 244.301 -0.297464 251.142 5.53791 255.78H113.714C114.625 255.259 115.833 251.465 113.714 246.457C109.419 236.305 102.001 234.743 95.7534 232.01C93.6265 231.079 98.075 228.058 108.248 223.42C123.085 215.221 132.065 206.891 135.579 203.117C140.265 198.084 138.057 189.95 133.996 185.889C129.936 181.829 125.276 180.293 121.892 178.861C115.021 175.425 112.001 174.957 111.741 174.566C110.569 173.655 112.365 171.208 128.921 168.709C149.614 165.586 165.623 153.872 165.623 142.549C165.623 131.226 162.109 121.465 151.957 118.732C143.836 116.545 142.847 115.478 143.367 115.218C148.053 112.745 160.157 105.144 171.089 94.524C184.755 81.2487 187.488 73.049 187.488 66.0211C187.488 58.9932 182.803 48.4508 173.432 48.0604C164.061 47.6699 163.28 45.7176 163.671 44.1558C164.061 42.594 167.966 32.8328 167.185 21.5097C166.56 12.4513 161.458 5.76168 158.985 3.5492C155.471 -0.35531 145.71 -0.745761 141.025 3.5492C136.339 7.84415 130.092 20.3386 128.921 25.024C127.983 28.7723 126.187 27.8873 125.407 26.9762C120.409 16.6683 114.734 13.3101 112.522 12.9195C108.097 11.4878 97.6845 10.4987 91.4373 17.9953C83.6283 27.3661 82.8474 49.6218 83.2379 54.6977C83.5502 58.7584 82.3268 57.9515 81.6761 57.0405C74.4918 47.982 66.7088 49.6219 63.7153 51.5742C61.3726 53.136 56.3749 59.6175 55.1254 73.049C53.876 86.4805 56.3851 109.063 60.9822 115.218C64.5173 119.951 71.2957 132.591 63.7153 123.417C58.2701 116.827 52.4134 114.484 48.8782 114.046C42.3707 113.396 28.4967 115.92 25.0607 131.226C20.7657 150.358 36.4049 165.633 39.1381 168.757C39.8653 169.588 41.4808 171.88 40.6999 171.49C35.6424 166.433 31.9853 167.53 29.3841 168.31L29.3557 168.319C21.5466 172.38 18.5532 180.423 18.0326 183.937C15.2994 196.822 18.7227 214.816 20.7657 220.249C21.9582 223.42 22.7393 224.201 23.1084 225.715C18.0537 223.81 10.803 226.39 8.6829 227.715C5.5593 229.667 2.43569 234.935 1.24296 238.991Z" fill="#E890A6"/>
<path fill-rule="evenodd" clip-rule="evenodd" d="M111.994 96.1096C108.861 103.288 106.117 109.981 104.346 114.486C100.412 125.51 96.5346 136.091 92.7594 146.167C90.8709 145.33 87.779 142.909 85.2137 137.522C84.3027 135.57 82.2463 131.275 81.3092 129.713C80.5283 128.672 78.9665 127.839 78.9665 132.837C78.9665 138.104 82.0197 142.261 83.9136 144.84C84.266 145.32 84.5783 145.745 84.8233 146.112C85.7952 147.57 88.72 149.595 90.9516 150.974C82.6425 172.988 74.8749 192.458 68.1569 208.689C65.0625 208.617 59.1206 205.644 53.5872 193.747C53.1968 193.227 52.2597 192.42 51.635 193.357C50.8541 194.528 51.635 200.385 53.5872 203.118C53.8516 203.488 54.1533 203.944 54.4932 204.458C56.6632 207.739 60.3915 213.376 65.9267 214.051C57.762 233.585 51.3572 247.845 47.7305 255.439H53.9777C55.9988 250.355 58.4041 244.33 61.0476 237.709C63.6036 231.307 66.3822 224.347 69.2513 217.142C72.3687 217.769 77.5393 218.475 81.6997 217.955C86.6974 217.331 89.2484 213.79 89.8991 212.099C90.2896 210.276 90.5239 207.257 88.3373 209.756C86.1508 212.255 83.0012 213.14 81.6997 213.27C76.8124 213.813 73.1444 212.625 71.414 211.707C79.6657 190.954 88.3811 168.848 94.5348 152.532C95.7955 152.979 97.9114 153.323 101.222 153.14C107.385 152.8 109.333 151.271 111.803 149.33C112.165 149.047 112.537 148.754 112.936 148.455C116.059 146.112 117.231 142.208 116.059 141.427C115.122 140.802 113.586 142.989 112.936 144.16C110.749 146.659 106.819 147.544 105.127 147.674C103.808 147.938 99.4278 147.663 96.4508 147.415C98.7234 141.296 100.513 136.274 101.613 132.837C105.595 120.391 110.689 108.104 115.173 97.3916C119.199 97.881 126.869 98.2914 130.111 96.5227C133.547 94.6486 135.187 90.5358 135.578 88.7137C135.578 86.5012 135.265 83.0912 134.016 87.1519C132.454 92.2278 130.111 94.9609 123.864 94.18C119.283 93.6073 117.632 92.7721 117.289 92.3362C119.017 88.1955 120.598 84.3539 121.916 80.9071C125.977 70.2868 127.252 66.07 127.382 65.2891C123.442 71.3639 118.538 81.4443 114.11 91.3233C111.783 90.5104 107.57 87.9725 106.685 83.2475C106.164 81.8159 105.201 77.8593 105.513 73.4862C105.253 72.5752 104.498 71.2997 103.561 73.4862C102.39 76.2194 101.609 83.6379 103.561 87.1519C105.436 90.5265 107.67 92.8208 111.994 96.1096Z" fill="#E67591"/>
</svg>
