<svg width="378" height="286" viewBox="0 0 378 286" fill="none" xmlns="http://www.w3.org/2000/svg">
<path d="M126.756 288.543C140.008 312.139 170.154 313.378 175.841 314.061L297.209 306.364C304.865 284.256 306.754 216.238 304.059 207.616C301.229 198.558 289.325 188.636 281.427 189.294C274.96 189.833 274.421 190.558 271.188 191.449C260.965 194.266 250.26 200.232 249.633 200.071C246.399 201.149 242.627 204.382 244.783 198.455C249.149 186.449 255.022 187.138 259.333 166.661C263.551 146.623 253.944 136.484 240.472 131.634C234.378 129.44 224.844 130.017 223.228 130.017C218.917 130.556 216.867 132.114 217.3 130.556C219.994 120.856 224.864 88.7296 218.378 81.5183C211.891 74.3069 201.673 75.0517 197.9 73.974C194.583 73.026 195.206 72.3766 195.206 64.813C195.206 50.8022 191.434 40.5635 186.045 34.6359C171.06 18.1521 160.448 18.4568 155.868 18.469C148.659 17.706 129.463 26.5524 127.904 50.5003C127.335 59.2541 130.379 77.7849 133.501 83.6738C135.999 88.3849 135.143 89.1683 133.501 88.9542C118.859 82.99 109.937 84.7816 107.306 86.423C101.444 89.0382 89.847 97.6334 90.3559 111.092C90.9921 127.915 110.732 151.472 115.818 156.32C119.886 160.199 117.886 160.5 116.378 160.166C100.645 157.502 94.1725 166.368 92.9028 171.134C91.9405 174.899 92.7945 186.163 103.909 201.098C115.024 216.033 138.442 236.89 148.84 238.962C156.836 240.556 175.459 247.27 159.213 244.853C147.543 243.117 139.371 246.118 135.339 248.932C128.061 254.271 116.155 269.667 126.756 288.543Z" fill="#EFCB94"/>
<path fill-rule="evenodd" clip-rule="evenodd" d="M233.398 304.348C235.145 308.026 236.201 310.249 236.375 310.773L243.647 307.865C233.263 293.848 221.119 267.134 209.563 237.484C217.653 229.844 222.38 220.673 220.379 213.337C218.634 206.938 216.743 209.216 216.016 211.155C215.435 218.136 212.865 222.79 211.653 224.244C210.059 226.437 208.37 228.305 206.641 229.892C197.462 205.76 188.791 180.27 181.839 158.462C194.05 152.704 197.599 145.654 197.836 142.802C197.836 135.239 195.412 137.227 194.2 139.166C191.496 145.476 185.124 150.739 180.362 153.804C173.214 131.123 168.125 113.052 166.569 105.716C162.497 86.5193 159.54 84.144 158.57 85.3559C161.787 108.38 167.644 132.665 174.756 156.431C167.681 157.977 157.386 156.773 152.753 155.89C146.354 154.145 148.632 157.102 150.571 158.799C154.776 160.901 165.035 163.733 176.034 160.651C183.921 186.408 193.193 211.427 202.072 233.423C195.093 237.906 188.208 238.554 184.749 238.06C175.441 238.06 178.447 241.938 181.113 243.878C186.198 244.983 197.494 245.766 205.179 241.039C217.318 270.485 228.301 293.613 233.398 304.348Z" fill="#DCB06D"/>
</svg>
