<svg width="187" height="372" viewBox="0 0 187 372" fill="none" xmlns="http://www.w3.org/2000/svg">
<path d="M-76.6056 306.75C-78.1132 312.511 -77.8776 319.864 -71.4835 324.65L44.3771 320.945C45.3367 320.354 46.5125 316.234 44.0872 310.923C39.1716 300.158 31.1774 298.733 24.4015 296.009C22.0945 295.081 26.7651 291.681 37.5164 286.347C53.1526 277.025 62.5119 267.764 66.1582 263.586C71.02 258.016 68.4026 249.348 63.9272 245.122C59.4518 240.896 54.4137 239.405 50.7449 237.982C43.278 234.524 40.0295 234.123 39.7385 233.713C38.4556 232.773 40.3032 230.082 57.9566 226.828C80.0234 222.762 96.8049 209.622 96.4529 197.451C96.1008 185.279 92.0336 174.906 81.0758 172.316C72.3095 170.244 71.217 169.13 71.7664 168.833C76.7078 166.014 89.4353 157.429 100.814 145.639C115.038 130.9 117.71 121.992 117.492 114.438C117.273 106.883 108.391 97.7754 98.342 97.6766C88.2933 97.5778 87.3963 95.506 87.7659 93.8138C88.1355 92.1216 90.8785 79.8976 92.873 68.2436C94.5209 58.6147 86.25 51.5115 83.5327 49.2179C78.1161 47.8758 70.1544 46.2383 65.2697 51.0157C60.385 55.793 54.5982 67.2974 53.4893 72.3741C52.6022 76.4354 48.3882 89.4018 47.8254 88.2431C40.4148 72.9888 32.6903 72.0763 30.3084 71.7321C25.5245 70.3447 14.9119 71.9434 8.45401 80.2159C0.381623 90.5565 2.02506 103.381 3.08247 108.749C4.60618 116.485 14.4973 139.191 13.772 138.234C21.5588 150.552 23.4881 154.975 20.3427 157.176C15.6475 160.461 -23.0561 131.833 -29.1968 144.984C-37.4929 162.751 -26.0657 169.481 -20.9507 175.94C-17.0172 180.907 -18.781 195.25 -27.1851 185.648C-33.2219 178.751 -47.6938 170.883 -51.4937 170.534C-58.4838 170.057 -75.8832 180.019 -79.0873 196.589C-83.0925 217.302 -41.2267 226.69 -38.2022 229.954C-37.3975 230.823 -35.596 233.232 -36.4445 232.839C-42.0184 227.575 -45.9012 228.88 -48.663 229.808L-48.6931 229.818C-56.9306 234.451 -59.8867 243.199 -60.335 246.995C-62.8617 260.939 -58.6358 280.164 -56.2787 285.934C-54.9029 289.302 -54.042 290.115 -53.5996 291.73C-59.0726 289.856 -66.7582 292.877 -68.9877 294.374C-72.2725 296.58 -75.4542 302.349 -76.6056 306.75Z" fill="#673B81"/>
<path fill-rule="evenodd" clip-rule="evenodd" d="M-17.5675 296.234C-15.0294 292.037 -11.3736 285.518 -7.15849 277.298C-13.0364 276.504 -18.3428 268.18 -20.3256 263.95C-21.1398 260.286 -18.7719 260.585 -17.4862 261.193C-14.649 268.89 -8.63307 272.075 -5.3107 272.907C-5.21977 272.97 -5.1277 273.037 -5.03519 273.105C3.7494 255.547 14.4105 231.574 22.4541 206.2C22.9723 204.583 23.5282 202.849 24.1164 201.017C20.0595 196.705 17.6806 192.191 17.6788 189.002C17.6759 182.718 20.8222 185.022 21.1277 187.261C22.3419 190.664 24.3666 193.486 25.976 195.23C31.1614 179.109 38.0734 157.75 43.9468 139.908C42.8728 139.549 41.718 139.065 40.572 138.423C36.4102 136.092 32.2472 132.029 30.5188 126.839C28.7903 121.65 29.5999 118.388 31.3261 120.115C33.2232 124.625 38.3164 133.968 43.5126 135.258C43.9693 135.501 44.5434 135.772 45.2187 136.05C49.0872 124.336 52.3855 114.531 54.2521 109.365C55.1311 108.718 55.9985 111.01 52.4362 125.359C51.5444 128.65 50.4192 132.723 49.1141 137.354C53.0157 138.399 58.1804 139.07 63.5042 138.058C65.5669 137.271 70.4428 135.106 73.4448 132.736C74.2904 132.801 75.3327 133.464 72.7364 135.589C72.3208 135.929 71.8869 136.343 71.4115 136.796L71.4114 136.797C68.1748 139.883 63.0138 144.805 48.5898 140.846C48.4588 140.843 48.3057 140.835 48.133 140.821C43.4025 157.467 36.7376 179.947 30.2556 199.374C32.6841 199.989 34.3556 200.435 35.5926 200.766L35.5928 200.766L35.593 200.766L35.5931 200.766C37.2886 201.219 38.1676 201.454 39.0606 201.606C40.0219 201.769 40.9996 201.837 43.0296 201.978L43.0314 201.978L43.0363 201.978L43.0397 201.979C44.0376 202.048 45.2893 202.135 46.9173 202.259C55.6208 202.924 51.0319 205.15 47.6494 206.18C41.8842 206.498 33.5981 204.719 28.8825 203.45C27.2504 208.249 25.6397 212.811 24.0847 216.992C17.2886 235.267 7.82934 257.811 0.147871 275.524C3.17397 277.555 8.72562 279.639 15.6478 277.69C19.0523 277.193 18.6484 280.554 15.0888 281.613C13.0953 282.206 3.32112 282.89 -1.79159 279.981C-5.024 287.383 -7.8379 293.698 -9.85442 298.149L-17.5675 296.234Z" fill="#936FA8"/>
</svg>
