<svg width="180" height="71" viewBox="0 0 180 71" fill="none" xmlns="http://www.w3.org/2000/svg">
<path d="M17.7366 47.0247C7.42875 54.5213 2.24877 65.506 0.947266 70.0613V71.6233H162.203C174.385 51.3198 178.732 35.3113 179.383 29.845C180.685 21.6455 180.008 4.54378 166.889 1.73254C153.77 -1.07871 141.379 2.90389 136.824 5.24659C120.035 15.3983 112.616 25.55 111.835 29.845C111.054 34.1399 109.493 38.4349 109.102 36.0922C108.79 34.218 107.41 31.9274 106.759 31.0163C100.512 23.2073 89.1891 21.6455 76.3042 28.2831C65.9963 33.5933 58.9943 54.9639 56.7817 64.9855C55.8446 55.3023 50.9249 48.977 48.5822 47.0247C42.5953 43.9011 28.0445 39.528 17.7366 47.0247Z" fill="#EFCB94"/>
<path fill-rule="evenodd" clip-rule="evenodd" d="M107.541 71.8285L149.319 42.9351C152.182 41.6336 149.553 45.5902 116.131 71.8285H107.541ZM103.246 56.5999C103.506 55.819 104.183 56.7561 104.808 66.7516C104.938 68.3136 105.276 71.5155 105.589 71.8277H100.865C100.511 67.8917 100.528 59.922 103.246 56.5999Z" fill="#DCB06D"/>
</svg>
