<svg width="293" height="339" viewBox="0 0 293 339" fill="none" xmlns="http://www.w3.org/2000/svg">
<path d="M66.0961 331.827C65.6799 338.519 67.5455 346.593 75.6856 350.502L203.457 321.401C204.393 320.541 204.799 315.734 200.949 310.389C193.145 299.553 183.962 299.704 175.848 298.157C173.086 297.63 177.527 292.865 188.295 284.65C203.614 270.974 211.98 258.719 215.115 253.316C219.296 246.111 214.5 237.098 208.611 233.394C202.723 229.69 196.806 229.13 192.424 228.349C183.383 226.139 179.691 226.398 179.278 226.007C177.65 225.246 179.113 221.873 197.994 214.468C221.596 205.211 237.354 187.07 234.308 173.695C231.262 160.321 224.485 149.737 211.759 149.24C201.579 148.842 200.123 147.848 200.668 147.4C205.537 143.219 217.789 130.985 227.845 115.5C240.414 96.144 241.437 85.7237 239.546 77.4228C237.656 69.1219 229.285 57.9303 218.112 59.99C206.939 62.0497 205.491 59.9539 205.532 58.0042C205.573 56.0544 207.559 43.4747 203.591 30.3106C200.416 19.7794 192.59 13.2505 189.074 11.3025C183.874 7.6361 172.239 9.80084 167.86 16.1342C163.482 22.4676 159.464 38.9059 159.341 44.7551C159.242 49.4345 156.883 48.8723 155.716 48.0063C147.04 37.1757 139.434 34.7357 136.715 34.8695C131.103 34.369 118.539 36.0016 113.177 46.5368C106.475 59.7058 111.539 86.2029 113.366 92.0932C114.827 96.8054 113.165 96.1815 112.152 95.2805C101.229 86.5139 92.4774 90.5446 89.4669 93.6557C87.12 96.1307 82.9605 105.131 85.098 121.331C87.2355 137.532 96.2741 163.53 103.36 169.563C108.808 174.202 120.215 187.309 108.794 178.512C100.589 172.193 93.0414 171.002 88.7481 171.435C80.8867 172.417 65.1788 179.132 65.2379 198.134C65.3118 221.887 87.893 235.722 91.9616 238.676C93.0441 239.463 95.5689 241.736 94.5415 241.485C87.2075 236.872 83.1831 239.151 80.3206 240.773L80.2894 240.791C72.1582 247.688 70.7863 257.993 71.1167 262.284C71.3547 278.238 80.2387 298.57 84.1134 304.438C86.375 307.863 87.5077 308.575 88.351 310.264C81.8682 309.374 73.998 314.372 71.8504 316.507C68.6862 319.653 66.414 326.716 66.0961 331.827Z" fill="#E890A6"/>
<path fill-rule="evenodd" clip-rule="evenodd" d="M158.466 120.793C156.696 130.117 155.255 138.765 154.375 144.564C152.694 158.643 150.961 172.184 149.212 185.1C146.756 184.619 142.453 182.593 137.974 176.92C136.373 174.859 132.789 170.339 131.262 168.747C130.059 167.727 127.99 167.163 129.335 173.066C130.752 179.288 135.476 183.376 138.407 185.913C138.952 186.385 139.436 186.803 139.824 187.171C141.364 188.631 145.363 190.236 148.37 191.265C144.478 219.502 140.541 244.588 136.972 265.566C133.298 266.313 125.48 264.401 115.744 251.837C115.143 251.328 113.819 250.627 113.333 251.901C112.726 253.495 115.224 260.203 118.265 262.906C118.677 263.272 119.156 263.729 119.696 264.245C123.141 267.536 129.061 273.191 135.781 272.499C131.392 297.768 127.663 316.334 125.422 326.279L132.801 324.598C133.821 318.051 135.041 310.288 136.382 301.757C137.679 293.507 139.089 284.539 140.539 275.256C144.39 275.158 150.687 274.601 155.461 272.868C161.196 270.785 163.257 265.918 163.57 263.744C163.541 261.487 163.006 257.858 161.095 261.397C159.185 264.937 155.703 266.83 154.201 267.334C148.574 269.29 143.922 268.874 141.631 268.255C145.795 241.523 150.142 213.068 153.021 192.141C154.631 192.33 157.223 192.167 161.084 191.061C168.272 189 170.16 186.67 172.557 183.714C172.907 183.281 173.268 182.836 173.659 182.375C176.718 178.768 177.051 173.841 175.457 173.234C174.183 172.748 172.957 175.744 172.503 177.302C170.593 180.842 166.189 182.945 164.225 183.554C162.739 184.22 157.491 185.074 153.908 185.582C154.946 177.742 155.709 171.33 156.083 166.974C157.439 151.201 160.15 135.316 162.566 121.456C167.45 120.952 176.628 119.373 179.984 116.41C183.538 113.272 184.369 107.973 184.34 105.716C183.745 103.103 182.458 99.1591 182.075 104.291C181.596 110.707 179.564 114.565 171.975 115.324C166.384 115.882 164.215 115.332 163.706 114.909C164.632 109.557 165.465 104.598 166.094 100.176C168.034 86.5395 168.406 81.2157 168.349 80.2584C165.33 88.4922 162.25 101.715 159.678 114.572C156.709 114.236 151.058 112.37 148.743 107.032C147.743 105.481 145.541 101.067 144.733 95.8181C144.181 94.812 142.946 93.5086 142.427 96.3432C141.779 99.8866 142.852 108.859 146.104 112.484C149.224 115.964 152.48 118.073 158.466 120.793Z" fill="#E67591"/>
</svg>
