<svg width="217" height="233" viewBox="0 0 217 233" fill="none" xmlns="http://www.w3.org/2000/svg">
<path d="M-54.6989 223.221L-71.4883 232.201H2.30689H21.8294C28.6484 232.201 36.2761 225.954 31.5907 225.954C27.8424 225.954 17.0139 223.091 12.0682 221.659L42.5233 194.327C44.0851 196.41 51.2694 200.34 67.5121 199.403C83.7549 198.466 84.9523 195.629 83.5206 194.327C81.1779 193.937 74.6964 192.219 67.5121 188.471C60.3279 184.722 58.7921 181.963 58.9222 181.052C64.5187 176.106 76.1802 165.981 78.0543 165.044C79.9285 164.107 87.6854 163.612 91.3296 163.482C109.681 160.358 114.366 156.063 120.613 154.892C126.861 153.721 132.717 150.597 131.156 149.426C129.594 148.254 122.566 148.645 112.024 148.254C103.59 147.942 104.084 145 105.386 143.569C110.332 139.404 122.097 128.185 129.594 116.628C137.09 105.07 140.787 101.14 141.698 100.619C156.535 99.4479 163.173 96.7148 171.372 92.4198C177.932 88.9838 178.791 87.0836 178.4 86.563C177.88 85.7821 174.339 84.6889 164.344 86.563C154.348 88.4372 152.37 87.3439 152.63 86.563C162.522 71.9862 182.554 43.132 184.647 43.223C193.628 43.6135 198.443 42.8326 201.046 42.4421C215.103 40.4899 218.617 38.1472 214.322 35.4139C210.027 32.6807 194.799 29.5572 193.237 29.1668C191.988 28.8544 199.224 18.6246 202.999 13.5488C209.246 3.39704 206.903 0.663979 205.732 0.273438C198.235 0.273438 186.079 15.3708 182.305 22.1387C180.743 18.7027 176.057 10.4252 172.934 6.52056C168.928 1.51339 168.248 1.44479 167.077 1.83515C163.934 2.88262 168.248 21.7481 171.372 27.6049C173.871 32.2903 173.454 34.7632 172.934 35.4139C167.988 41.4006 157.238 54.6237 153.802 59.6218C150.366 64.62 148.726 64.3074 148.335 63.5264C146.383 61.1837 145.993 58.5806 145.212 57.2791C142.869 51.8129 142.088 48.2989 141.698 45.9561C141.377 44.0304 141.307 40.4892 140.136 39.7083C139.199 39.0836 138.184 39.3185 137.793 39.709C137.012 40.1 133.498 48.6893 132.717 53.3741C132.327 65.8691 133.889 63.5258 135.841 70.1635C137.403 75.4736 136.492 78.6233 135.841 79.5343C131.937 87.3433 123.737 99.0568 114.366 108.428C104.995 117.798 94.8437 127.56 93.6723 123.655C92.501 119.751 92.501 116.627 90.5487 112.723C88.9869 109.599 89.6377 99.9683 90.1583 95.5434C89.8459 91.7951 87.6854 92.4198 86.6442 93.2007C84.4577 95.6996 82.6096 99.1876 81.9588 100.619C71.4167 122.094 77.2734 134.198 77.2734 136.931C77.2734 139.118 76.7528 140.185 76.4925 140.445L52.2846 164.263C51.0351 166.137 49.161 165.825 48.3801 165.434C42.9138 163.091 42.5233 153.72 41.352 149.035C40.1806 144.349 39.0093 144.74 36.2761 146.692C33.5429 148.644 26.9053 165.824 27.6862 172.071C28.3109 177.069 27.6862 178.839 27.2957 179.099L18.3154 190.032C9.33501 200.965 -6.67347 210.336 -16.0443 213.069C-23.5409 215.255 -32.7035 215.542 -36.3477 215.411C-38.6904 215.021 -40.5646 215.412 -43.3758 206.041C-46.1871 196.67 -48.4517 195.889 -49.2326 196.67C-54.2304 206.041 -54.9592 218.275 -54.6989 223.221Z" fill="#672540"/>
</svg>
