<svg width="433" height="333" viewBox="0 0 433 333" fill="none" xmlns="http://www.w3.org/2000/svg">
<path d="M81.2705 342.587C78.2437 348.676 76.8045 356.958 82.8708 363.818L213.743 386.986C214.956 386.551 217.23 382.219 215.739 375.706C212.717 362.505 204.077 359.027 197.104 354.382C194.73 352.801 200.759 350.098 214.06 346.666C233.766 339.924 246.414 331.77 251.474 327.956C258.22 322.871 257.291 312.558 253.248 306.776C249.205 300.993 243.897 298.138 240.11 295.681C232.532 290.052 228.979 288.839 228.748 288.311C227.526 286.958 230.223 284.382 250.787 284.904C276.491 285.557 298.367 274.815 300.792 261.116C303.217 247.418 301.056 234.856 289.36 229.375C280.003 224.99 279.035 223.487 279.72 223.284C285.918 221.296 302.189 214.693 317.69 204.186C337.066 191.052 342.129 181.717 343.634 173.215C345.139 164.713 337.281 152.43 326.028 149.951C314.775 147.472 314.248 144.943 315.055 143.137C315.862 141.331 321.772 128.303 326.71 115.737C330.791 105.354 323.155 95.4585 320.637 92.2523C314.87 89.4741 306.315 85.7656 299.727 89.9582C293.139 94.1508 283.979 105.656 281.559 111.073C279.622 115.408 271.89 128.919 271.526 127.49C266.745 108.679 258.288 105.837 255.695 104.891C250.648 102.211 238.369 101.498 229.206 109.229C217.751 118.894 216.624 133.627 216.567 139.882C216.485 148.894 222.323 176.626 221.731 175.384C227.615 190.999 228.755 196.401 224.716 198.122C218.686 200.69 181.887 159.543 171.95 172.806C158.524 190.724 169.787 200.948 174.031 209.378C177.294 215.861 171.992 231.491 164.786 218.768C159.609 209.63 145.192 197.418 141.009 196.131C133.276 193.95 111.443 200.991 104.008 218.772C94.715 240.999 139.52 261.369 142.158 265.734C142.859 266.895 144.323 270.014 143.462 269.375C138.426 262.173 133.767 262.717 130.453 263.104L130.417 263.109C120.1 266.349 114.755 275.439 113.373 279.578C107.307 294.581 107.595 317.083 108.903 324.094C109.666 328.186 110.444 329.298 110.566 331.209C104.859 327.822 95.5348 329.39 92.6861 330.539C88.4891 332.232 83.5819 337.936 81.2705 342.587Z" fill="#E3577A"/>
<path fill-rule="evenodd" clip-rule="evenodd" d="M149.838 344.684C153.659 340.589 159.273 334.159 165.909 325.961C159.498 323.689 155.476 313.132 154.233 307.934C154.171 303.644 156.758 304.536 158.06 305.518C159.457 314.795 165.469 319.773 169.004 321.484C169.091 321.577 169.178 321.672 169.266 321.77C183.202 304.196 200.735 279.884 215.656 253.39C216.612 251.705 217.637 249.898 218.721 247.99C215.167 242.21 213.544 236.599 214.283 233.03C215.739 226.001 218.735 229.318 218.558 231.894C219.131 235.99 220.75 239.625 222.152 241.954C231.714 225.143 244.43 202.877 255.165 184.299C254.043 183.645 252.861 182.833 251.724 181.846C247.595 178.259 243.867 172.735 243.132 166.523C242.397 160.312 244.063 156.855 245.599 159.192C246.681 164.683 250.227 176.332 255.759 178.997C256.215 179.376 256.796 179.813 257.488 180.283C264.551 168.088 270.53 157.895 273.824 152.554C274.961 152.037 275.402 154.805 268.073 170.018C266.307 173.49 264.098 177.783 261.557 182.658C265.693 184.745 271.334 186.712 277.544 186.831C280.041 186.437 286.016 185.162 289.935 183.216C290.869 183.489 291.885 184.475 288.478 186.242C287.932 186.524 287.349 186.885 286.711 187.28L286.711 187.28C282.362 189.972 275.427 194.263 260.159 186.442C260.012 186.408 259.842 186.362 259.651 186.305C250.477 203.812 237.779 227.389 225.995 247.592C228.576 248.851 230.348 249.743 231.659 250.404C233.457 251.309 234.389 251.779 235.356 252.159C236.396 252.568 237.477 252.874 239.721 253.508L239.721 253.508L239.723 253.509L239.723 253.509C240.829 253.821 242.217 254.214 244.021 254.738C253.634 257.529 247.967 258.939 243.932 259.295C237.389 258.296 228.505 254.358 223.507 251.829C220.562 256.811 217.696 261.534 214.98 265.845C203.109 284.691 187.257 307.685 174.523 325.692C177.447 328.676 183.194 332.313 191.414 331.761C195.351 332.005 194.117 335.671 189.876 336.017C187.502 336.211 176.374 334.678 171.312 330.221C165.967 337.738 161.345 344.137 158.049 348.64L149.838 344.684Z" fill="#B84A65"/>
</svg>
