<svg width="486" height="311" viewBox="0 0 486 311" fill="none" xmlns="http://www.w3.org/2000/svg">
<path d="M249.919 365.737C254.128 368.357 255.612 370.511 267.961 374.165C272.263 375.438 284.76 377.677 304.334 358.429C306.226 356.569 316.666 343.456 298.821 335.74C294.703 333.96 281.055 328.904 283.912 326.72C288.806 322.978 312.696 314.915 317.482 301.78C318.989 298.324 322.049 288.323 311.205 282.186C304.693 277.753 287.111 278.713 279.688 280.428C277.894 280.347 280.462 278.725 281.515 278.209C285.414 276.301 293.308 273.495 301.546 266.318C310.377 258.624 318.412 248.099 322.848 235.93C326.623 225.577 319.717 211.48 307.712 211.365C299.289 211.285 288.277 218.354 283.338 221.927C317.064 194.681 321.454 166.167 322.109 161.674C323.622 151.286 318.101 147.329 311.431 146.951C304.762 146.574 293.749 151.469 280.979 160.961C279.881 161.415 283.649 158.084 286.214 154.605C289.42 150.255 295.909 133.151 294.149 120.324C292.741 110.063 282.812 105.098 278.024 103.899C275.813 103.006 268.816 102.838 258.521 109.307C257.305 109.688 256.846 109.382 257.194 106.011C258.727 91.1529 253.376 80.1089 251.296 77.4627C244.979 69.4227 241.243 67.7424 234.572 67.3672C230.166 67.6314 225.693 67.6075 220.037 75.4104C212.967 85.164 217.327 99.6079 216.792 102.518C216.123 106.155 214.541 102.991 209.599 99.386C189.248 84.5424 180.09 102.538 179.129 111.522C178.226 119.964 177.734 122.177 182.57 141.812C183.213 144.422 183.696 145.531 185.702 150.441C186.501 153.426 182.342 149.5 177.139 148.973C169.407 148.19 164.106 148.012 160.68 158.221C156.521 170.618 162.578 183.932 175.246 203.257C184.527 217.416 195.541 224.159 194.787 225.865C193.237 228.312 187.246 223.048 179.128 222.276C175.277 221.662 167.824 224.136 165.165 233.58C163.144 240.758 165.475 247.331 166.829 250.773C168.832 255.866 173.011 261.913 182.324 273.772C189.654 283.104 194.597 286.363 192.372 285.304C188.36 283.396 186.204 282.388 183.156 282.368C168.345 282.27 170.64 299.901 171.167 300.882L249.919 365.737Z" fill="#A16BBA"/>
<path fill-rule="evenodd" clip-rule="evenodd" d="M242.407 173.787C241.956 168.593 241.113 160.406 239.988 151.879C244.6 150.136 247.154 148.704 249.676 146.242L249.936 145.988L249.936 145.988C252.458 143.528 254.423 141.611 255.096 139.042C255.65 136.924 253.844 137.793 253.375 138.528C252.031 140.159 250.845 141.133 249.927 141.887C249.285 142.414 248.774 142.834 248.43 143.297C245.256 145.041 241.538 146.904 239.335 147.127C238.096 138.465 236.589 129.958 234.928 124.355C234.838 125.077 234.86 129.129 235.665 139.559C235.85 141.954 236.1 144.559 236.387 147.331C235.653 147.454 234.374 147.442 232.085 147.059C226.993 146.207 225.297 144.784 222.244 142.224L222.244 142.224C221.872 141.912 221.479 141.583 221.058 141.236C217.731 138.496 216.525 139.215 216.687 140.893C216.834 142.41 224.827 148.527 226.164 149.163C229.275 150.643 233.516 151.684 236.911 152.24C236.987 152.945 237.065 153.659 237.144 154.38L237.15 154.439C238.346 165.39 239.734 178.116 240.002 190.674C240.052 193.026 240.173 196.959 240.352 202.103C238.404 201.164 236.429 199.64 235.212 198.638C234.965 198.411 234.699 198.169 234.419 197.916L234.416 197.913C232.3 195.993 229.421 193.382 228.29 190.928C228.022 189.724 227.064 187.4 226.069 187.702C224.826 188.08 225.403 193.742 227.556 196.633C229.709 199.523 230.603 200.278 235.872 204.617C237.735 206.152 239.323 207.012 240.543 207.446C241.092 222.45 241.991 244.551 243.027 267.642C241.623 267.251 239.866 266.605 237.698 265.688C236.578 265.229 232.372 262.794 230.309 260.533C228.596 258.658 227.454 260.044 228.058 261.006C228.189 262.669 232.511 267.466 236.295 269.652C238.474 270.91 240.999 271.929 243.252 272.619C243.977 288.576 244.761 304.795 245.533 319.288C242.986 318.864 239.603 317.785 236.754 315.438C234.921 314.084 233.247 313.481 229.738 312.658C228.297 312.712 227.493 314.253 235.805 319.982C238.355 321.277 242.697 323.334 245.81 324.421C246.686 340.447 247.536 353.918 248.259 361.887L252.165 365.09C251.638 361.777 251.605 347.437 251.568 330.67C251.563 328.653 251.559 326.601 251.553 324.528C255.299 323.874 262.368 322.575 266.226 315.252C270.193 307.722 264.685 312.225 261.547 315.846C259.329 317.819 254.945 319.553 251.538 319.764C251.47 300.672 251.268 280.855 250.271 271.655C255.355 272.526 260.142 268.548 262.929 266.233C263.366 265.87 263.753 265.548 264.085 265.292C266.534 263.402 268.767 258.45 268.383 257.211C268.076 256.221 267.033 256.683 266.55 257.038C258.515 266.052 252.466 267.097 249.704 266.341C247.919 249.317 246.047 228.78 244.404 205.619C246.862 204.985 250.708 203.826 252.559 203.003C254.929 201.95 257.192 200.768 260.076 196.669C262.72 192.912 260.314 191.943 258.821 193.298C258.6 193.499 258.345 193.742 258.065 194.009C256.771 195.242 254.931 196.995 253.309 197.571C248.92 199.798 245.806 199.588 243.967 199.305C243.411 191.094 242.887 182.575 242.407 173.787Z" fill="#8C4EB4"/>
</svg>
