<svg width="193" height="156" viewBox="0 0 193 156" fill="none" xmlns="http://www.w3.org/2000/svg">
<path d="M12.1346 149.186L0.921875 155.175H50.2058H63.2438C67.7979 155.175 72.892 151.009 69.7629 151.009C67.2595 151.009 60.0278 149.099 56.7248 148.144L77.0642 129.915C78.1072 131.304 82.9052 133.925 93.7529 133.3C104.601 132.675 105.4 130.783 104.444 129.915C102.88 129.654 98.5509 128.509 93.7529 126.009C88.9549 123.509 87.9292 121.668 88.0161 121.061C91.7537 117.762 99.5418 111.009 100.793 110.384C102.045 109.759 107.226 109.429 109.659 109.342C121.915 107.259 125.044 104.394 129.216 103.613C133.389 102.832 137.3 100.748 136.257 99.9671C135.214 99.1859 130.52 99.4463 123.48 99.1859C117.847 98.9775 118.178 97.0157 119.047 96.0609C122.35 93.2831 130.207 85.8005 135.214 78.0922C140.221 70.3839 142.689 67.7624 143.298 67.4151C153.206 66.6339 157.639 64.811 163.115 61.9464C167.496 59.6547 168.07 58.3874 167.809 58.0402C167.461 57.5193 165.097 56.7902 158.422 58.0402C151.746 59.2902 150.425 58.561 150.599 58.0402C157.205 48.318 170.583 29.0733 171.981 29.134C177.979 29.3944 181.195 28.8736 182.933 28.6132C192.321 27.3112 194.668 25.7486 191.799 23.9256C188.931 22.1027 178.761 20.0195 177.718 19.759C176.884 19.5507 181.716 12.7278 184.237 9.34242C188.409 2.57161 186.845 0.748758 186.062 0.488281C181.056 0.488281 172.937 10.5577 170.417 15.0716C169.374 12.7799 166.245 7.25909 164.158 4.65487C161.483 1.31528 161.029 1.26953 160.247 1.52988C158.148 2.22851 161.029 14.8111 163.115 18.7173C164.784 21.8423 164.506 23.4916 164.158 23.9256C160.855 27.9186 153.676 36.7378 151.381 40.0714C149.086 43.405 147.991 43.1965 147.73 42.6756C146.427 41.1131 146.166 39.377 145.644 38.5089C144.08 34.8632 143.558 32.5194 143.298 30.9569C143.083 29.6725 143.037 27.3107 142.255 26.7899C141.629 26.3732 140.951 26.5299 140.69 26.7903C140.168 27.0511 137.822 32.7798 137.3 35.9044C137.039 44.2381 138.082 42.6752 139.386 47.1023C140.429 50.644 139.821 52.7446 139.386 53.3523C136.779 58.5606 131.303 66.3731 125.044 72.623C118.786 78.873 112.006 85.3834 111.224 82.7793C110.442 80.1751 110.442 78.0918 109.138 75.4876C108.095 73.4043 108.529 66.981 108.877 64.0297C108.668 61.5297 107.226 61.9464 106.53 62.4672C105.07 64.1339 103.836 66.4603 103.401 67.4151C96.3605 81.738 100.272 89.8109 100.272 91.6338C100.272 93.0921 99.9242 93.8039 99.7504 93.9775L83.5832 109.863C82.7488 111.113 81.4971 110.905 80.9756 110.644C77.3249 109.082 77.0642 102.831 76.2819 99.7064C75.4996 96.5815 74.7173 96.8419 72.892 98.1439C71.0667 99.446 66.6337 110.904 67.1552 115.071C67.5725 118.404 67.1552 119.585 66.8945 119.758L60.897 127.05C54.8995 134.342 44.2082 140.592 37.95 142.415C32.9434 143.873 26.8242 144.064 24.3904 143.977C22.8258 143.717 21.5742 143.977 19.6967 137.727C17.8192 131.477 16.3068 130.956 15.7853 131.477C12.4475 137.727 11.9608 145.887 12.1346 149.186Z" fill="#672540"/>
</svg>
