<svg width="61" height="243" viewBox="0 0 61 243" fill="none" xmlns="http://www.w3.org/2000/svg">
<path d="M10.9734 229.733L7.78312 242.038L41.1704 205.787L50.003 196.196C53.0881 192.846 53.4744 186.277 51.3545 188.578C49.6587 190.42 43.3548 194.445 40.4148 196.228L40.7849 168.918C42.5131 169.091 47.6918 167.338 54.5808 158.936C61.4698 150.533 60.6196 148.663 59.3334 148.778C58.0819 149.752 54.3066 152.16 49.2173 153.996C44.128 155.831 42.0795 155.339 41.6914 154.864C41.7971 149.88 42.1055 139.576 42.4937 138.232C42.8819 136.888 46.1487 132.854 47.7336 131.005C54.5038 120.578 54.5166 116.336 56.7683 112.738C59.0201 109.14 60.1375 104.851 58.8562 105.089C57.5749 105.327 54.5867 108.956 49.6256 113.959C45.6566 117.961 44.4374 116.389 44.3238 115.102C44.5182 110.791 44.3373 99.942 42.059 91.0373C39.7807 82.1327 39.5247 78.5409 39.6815 77.8581C45.8196 70.0402 47.4818 65.5445 49.0844 59.5759C50.3665 54.8011 49.8229 53.5205 49.3909 53.4771C48.7722 53.38 46.6342 54.6251 43.0314 60.3822C39.4286 66.1393 37.9972 66.6172 37.7318 66.1365C35.0556 54.691 29.963 31.813 30.9548 30.8258C35.2093 26.5906 37.0049 23.8721 37.9911 22.417C43.3928 14.6298 43.8333 11.845 40.5492 12.7199C37.2651 13.5948 28.8433 19.6641 27.9452 20.2549C27.2266 20.7276 25.4819 12.5506 24.6993 8.40299C22.5453 0.747187 20.1446 0.663146 19.423 1.06211C16.0313 4.74484 17.9383 17.538 19.5509 22.45C17.1586 21.6648 10.9779 20.2264 7.64907 19.9967C3.38029 19.702 3.03908 20.005 2.70063 20.7568C1.79246 22.7741 12.9999 29.1787 17.2864 30.2905C20.7156 31.1799 21.7404 32.5018 21.8241 33.0516C22.5236 38.1862 24.1469 49.4419 25.0445 53.3881C25.942 57.3344 25.0467 57.9987 24.4869 57.8376C22.4544 57.7382 21.0006 56.7539 20.0088 56.5494C16.2672 55.2305 14.1899 54.0263 12.8639 53.1596C11.7739 52.4471 10.0052 50.8813 9.09215 51.1039C8.36169 51.282 8.01763 51.8868 8.03253 52.255C7.87108 52.8153 10.4951 58.4225 12.4402 60.9229C18.3935 66.7603 17.9505 64.9343 22.0902 66.9744C25.402 68.6064 26.535 70.4771 26.6875 71.2084C28.7521 76.6549 30.789 85.9754 31.1466 94.8128C31.5043 103.65 31.7002 113.048 29.2547 111.859C26.8092 110.67 25.2768 109.259 22.478 108.454C20.2389 107.81 15.8085 103.138 13.8732 100.883C11.893 99.3432 11.222 100.687 11.134 101.551C11.3707 103.754 12.2458 106.238 12.6537 107.205C18.4196 122.087 27.0076 124.678 28.3485 125.913C29.4212 126.901 29.7092 127.639 29.7191 127.885L30.4515 150.538C30.8057 151.999 29.8045 152.779 29.2597 152.986C25.6372 154.613 20.8631 150.57 18.0345 149.029C15.2059 147.487 14.8675 148.239 14.5887 150.464C14.3099 152.688 19.7352 163.711 23.1533 166.151C25.8879 168.102 26.4736 169.208 26.4247 169.518L27.7252 178.869C29.0257 188.22 26.3803 200.319 23.4815 206.157C21.1625 210.828 17.1575 215.458 15.4449 217.19C14.1934 218.164 13.5371 219.261 7.66795 216.408C1.79874 213.555 0.391056 214.315 0.420858 215.051C2.75702 221.74 8.42929 227.626 10.9734 229.733Z" fill="#672540"/>
</svg>
