<svg width="289" height="232" viewBox="0 0 289 232" fill="none" xmlns="http://www.w3.org/2000/svg">
<path d="M17.3245 223.853L0.535156 232.834H74.3303H93.8529C100.672 232.834 108.3 226.587 103.614 226.587C99.8658 226.587 89.0373 223.723 84.0916 222.292L114.547 194.96C116.109 197.043 123.293 200.973 139.536 200.036C155.778 199.099 156.976 196.262 155.544 194.96C153.201 194.57 146.72 192.852 139.536 189.103C132.351 185.355 130.816 182.596 130.946 181.685C136.542 176.739 148.204 166.614 150.078 165.676C151.952 164.739 159.709 164.245 163.353 164.115C181.704 160.991 186.39 156.696 192.637 155.525C198.884 154.353 204.741 151.23 203.179 150.058C201.617 148.887 194.589 149.277 184.047 148.887C175.613 148.575 176.108 145.633 177.409 144.202C182.355 140.037 194.121 128.818 201.617 117.261C209.114 105.703 212.81 101.773 213.721 101.252C228.558 100.081 235.196 97.3476 243.395 93.0526C249.955 89.6166 250.814 87.7164 250.424 87.1958C249.903 86.4149 246.363 85.3217 236.367 87.1958C226.372 89.07 224.394 87.9768 224.654 87.1958C234.545 72.619 254.577 43.7648 256.671 43.8558C265.651 44.2463 270.467 43.4654 273.07 43.0749C287.126 41.1228 290.64 38.78 286.345 36.0467C282.05 33.3135 266.823 30.19 265.261 29.7996C264.011 29.4872 271.248 19.2574 275.022 14.1816C281.269 4.02986 278.926 1.29679 277.755 0.90625C270.258 0.90625 258.102 16.0036 254.328 22.7715C252.766 19.3355 248.081 11.058 244.957 7.15337C240.952 2.14621 240.272 2.0776 239.101 2.46796C235.957 3.51543 240.272 22.3809 243.395 28.2377C245.894 32.9231 245.478 35.396 244.957 36.0467C240.012 42.0335 229.261 55.2565 225.825 60.2547C222.389 65.2528 220.749 64.9402 220.359 64.1592C218.407 61.8166 218.016 59.2135 217.235 57.912C214.893 52.4457 214.112 48.9317 213.721 46.5889C213.4 44.6632 213.331 41.1221 212.159 40.3412C211.222 39.7164 210.207 39.9513 209.817 40.3418C209.036 40.7328 205.522 49.3221 204.741 54.0069C204.35 66.502 205.912 64.1587 207.864 70.7963C209.426 76.1064 208.515 79.2561 207.864 80.1671C203.96 87.9761 195.76 99.6896 186.39 109.06C177.019 118.431 166.867 128.193 165.696 124.288C164.524 120.384 164.524 117.26 162.572 113.355C161.01 110.232 161.661 100.601 162.182 96.1762C161.869 92.4279 159.709 93.0526 158.668 93.8335C156.481 96.3324 154.633 99.8204 153.982 101.252C143.44 122.727 149.297 134.831 149.297 137.564C149.297 139.75 148.776 140.818 148.516 141.078L124.308 164.896C123.059 166.77 121.184 166.457 120.404 166.067C114.937 163.724 114.547 154.353 113.375 149.668C112.204 144.982 111.033 145.373 108.3 147.325C105.566 149.277 98.9287 166.457 99.7096 172.704C100.334 177.702 99.7096 179.472 99.3192 179.732L90.3388 190.665C81.3584 201.598 65.35 210.968 55.9791 213.701C48.4825 215.888 39.3199 216.174 35.6757 216.044C33.333 215.654 31.4588 216.044 28.6476 206.674C25.8364 197.303 23.5717 196.522 22.7908 197.303C17.7931 206.674 17.0642 218.908 17.3245 223.853Z" fill="#672540"/>
</svg>
