<svg width="173" height="99" viewBox="0 0 173 99" fill="none" xmlns="http://www.w3.org/2000/svg">
<path fill-rule="evenodd" clip-rule="evenodd" d="M100.728 88.9305C99.5226 86.0177 105.593 80.5786 118.409 77.466C129.616 74.7439 140.693 80.4899 147.29 84.8537C149.674 82.0032 152.808 78.7419 155.209 77.6626C156.584 77.0444 156.396 78.4405 156.05 81.011C155.525 84.9146 154.635 91.5268 158.302 97.9049C157.939 99.2752 155.34 99.6203 147.975 91.8284C141.479 95.0875 134.744 96.3234 123.365 96.3234C117.793 96.3234 106.022 94.2223 100.728 88.9305Z" fill="#523E52" fill-opacity="0.55"/>
<path fill-rule="evenodd" clip-rule="evenodd" d="M0.421875 48.8958C1.15156 46.1935 3.4798 42.3944 11.5355 40.429C18.1984 38.8035 24.7876 41.9608 28.9908 44.6389C30.2439 42.935 31.7761 41.1381 32.9756 40.5048C33.7369 40.1028 33.6262 41.1072 33.433 42.8594C33.2926 44.1339 33.1085 45.8039 33.1846 47.616C33.2103 47.6345 33.2346 47.6518 33.2576 47.6679C33.2347 47.6829 33.2118 47.6979 33.1889 47.7128C33.2783 49.6125 33.6581 51.6626 34.6755 53.5733C34.4818 54.4326 33.1285 54.6674 29.3414 50.0702C25.4884 52.1948 21.3503 53.5637 14.6507 53.5637C11.1482 53.5637 3.74923 52.237 0.421875 48.8958Z" fill="#523E52" fill-opacity="0.55"/>
<path fill-rule="evenodd" clip-rule="evenodd" d="M163.484 6.26697C165.373 3.73879 167.616 1.15973 169.39 0.223283C170.551 -0.389954 170.38 1.03946 170.071 3.61999C169.596 7.5918 168.795 14.2906 172.023 20.4656C171.7 21.8976 169.298 22.21 162.36 13.2873C156.345 16.6302 149.913 18.7898 139.44 18.7898C134.015 18.7898 126.076 16.625 120.922 11.4497C123.269 7.53643 128.355 3.23312 136.18 1.27729C148.261 -1.74237 157.896 2.70802 163.484 6.26697Z" fill="#523E52" fill-opacity="0.55"/>
</svg>
