<svg width="153" height="59" viewBox="0 0 153 59" fill="none" xmlns="http://www.w3.org/2000/svg">
<path fill-rule="evenodd" clip-rule="evenodd" d="M51.8326 36.5741C53.4783 33.586 55.7064 30.1199 58.9662 29.3719C59.0739 29.3472 58.9977 29.889 58.8649 30.833C58.3707 34.3471 57.0927 43.4344 61.5993 49.6142C61.2897 50.9872 59.069 51.331 52.7706 43.4918C47.4715 47.1805 41.9425 49.5963 32.6684 49.5963C28.0779 49.5963 18.3805 47.4975 14.0195 42.2115C14.9759 37.9364 18.6895 35.6186 29.2476 32.5094C38.087 29.9063 46.5304 33.3994 51.8326 36.5741Z" fill="#523E52" fill-opacity="0.55"/>
<path fill-rule="evenodd" clip-rule="evenodd" d="M22.7191 4.05449C23.6906 2.72911 24.8864 1.32084 25.8205 0.827657C27.2887 0.0524334 27.3062 7.22326 27.1314 10.9056C26.984 11.5592 25.9668 11.7443 23.1369 8.34772C20.3836 10.2312 17.6186 11.7717 12.4558 11.7717C9.75481 11.7717 1.10998 10.598 0.71875 7.29803C1.28145 5.2141 2.97662 1.96553 9.3259 1.20701C15.2687 0.497043 19.8249 2.35037 22.7191 4.05449Z" fill="#523E52" fill-opacity="0.55"/>
<path fill-rule="evenodd" clip-rule="evenodd" d="M116.525 52.8675C117.296 50.015 119.753 46.0048 128.256 43.9303C135.288 42.2147 142.243 45.5461 146.679 48.3728C148.002 46.5746 149.619 44.6785 150.885 44.0102C152.894 42.9491 152.918 52.7645 152.679 57.8048C152.474 58.7118 151.046 58.9597 147.049 54.1082C142.983 56.3502 138.615 57.7947 131.545 57.7947C127.848 57.7947 120.038 56.3943 116.525 52.8675Z" fill="#523E52" fill-opacity="0.55"/>
</svg>
