<svg width="2560" height="1448" viewBox="0 0 2560 1448" fill="none" xmlns="http://www.w3.org/2000/svg">
<g clip-path="url(#clip0_768_2012)">
<rect width="2562.67" height="1448" fill="url(#paint0_linear_768_2012)"/>
<path d="M788.793 1145.79L760.66 1146.86C766.66 1147.39 776.527 1146.99 788.793 1145.79Z" fill="#1F1D39"/>
<path d="M1778.13 728.989C1786.53 771.389 1823.33 769.389 1823.33 769.389C1880.26 761.789 1925.06 721.389 1925.06 721.389C1963.73 667.789 1982.4 610.322 1982.4 610.322C2004.66 564.056 2029.2 539.256 2046.53 526.322C2018.93 528.189 2006.8 536.856 2006.8 536.856C1949.2 563.789 1826.4 640.189 1826.4 640.189C1819.2 646.722 1804.4 652.722 1787.73 657.122C1775.73 692.589 1778.13 728.989 1778.13 728.989Z" fill="#2E2D4B"/>
<path d="M2597.33 341.791C2501.2 325.391 2398.93 386.324 2398.93 386.324C2311.86 427.924 2257.6 452.191 2232.4 463.124L2232.26 475.657C2187.06 619.524 2009.6 913.658 2009.6 913.658L1548.66 935.658L1591.6 762.724C1612.26 744.058 1647.33 710 1647.33 710C1654.4 700.533 1626.67 709.333 1626.67 709.333C1613.33 708.8 1645.33 684 1645.33 684C1655.73 671.467 1643.33 672.667 1643.33 672.667C1629.87 675.467 1620 676 1620 676C1613.87 672.667 1627.47 650.667 1629.33 648C1628.4 647.733 1627.6 647.658 1627.6 647.658C1604 653.258 1529.33 736.191 1529.33 736.191C1505.86 738.591 1472.8 734.191 1472.8 734.191C1412.93 728.858 1341.86 758.458 1341.86 758.458C1264.26 784.724 1203.46 805.124 1203.46 805.124C1122.53 829.658 1109.46 822.724 1109.46 822.724C1076.79 805.391 1043.86 794.458 1043.86 794.458C1017.46 785.391 955.328 754.058 955.328 754.058C916.395 723.524 881.595 720.724 881.595 720.724C811.861 703.391 734.128 674.858 721.861 670.324C718.661 667.391 715.461 664.058 711.995 660.458C691.061 636.058 647.195 580.591 634.395 564.324L639.195 603.658C645.061 626.458 676.928 666.458 676.928 666.458C686.261 682.991 688.928 702.458 688.928 702.458L707.595 695.124C723.595 711.924 766.128 736.058 766.128 736.058C818.261 770.324 860.128 810.591 860.128 810.591C904.928 860.724 938.261 928.458 938.261 928.458C938.261 928.458 947.195 1013.39 956.528 1021.79L2557.73 1117.26L2597.33 341.791Z" fill="#2E2D4B"/>
<path d="M633.058 562.725C631.458 560.725 630.658 559.658 630.658 559.658L630.258 559.925C631.458 560.992 632.391 561.925 633.058 562.725Z" fill="#2E2D4B"/>
<path d="M543.598 798.856C478.131 767.389 420.131 710.322 420.131 710.322C404.264 687.122 379.331 640.989 379.331 640.989C376.531 624.722 344.531 591.256 344.531 591.256L346.264 589.656C363.731 583.256 376.398 581.656 391.864 576.589C374.398 563.922 370.798 557.789 361.064 551.522C346.131 539.656 335.598 531.922 335.598 531.922C297.331 485.256 266.531 461.389 266.531 461.389C118.264 410.722 -56.4026 334.855 -56.4026 334.855L-77.3359 910.456L232.131 1003.26L740.798 946.589C737.731 946.189 735.731 945.656 734.931 944.856C725.331 934.856 543.598 798.856 543.598 798.856Z" fill="#2E2D4B"/>
<path d="M1617.33 677.998C1617.33 677.998 1617.33 680.665 1633.33 677.998C1633.33 677.998 1653.73 668.131 1643.2 680.665C1643.2 680.665 1609.87 713.998 1623.47 715.39C1623.47 715.39 1654.53 699.332 1641.2 712.665C1641.2 712.665 1612.4 744.19 1591.74 762.724L1524.14 1003.26L2012.54 1003.79C2012.54 1003.79 2187.07 619.39 2232.4 475.524L2232.54 462.99C2221.47 467.79 2216 470.057 2216 470.057C2159.34 490.057 2118.8 505.924 2118.8 505.924C2108.94 513.39 2099.07 517.257 2099.07 517.257C2088.67 526.59 2063.87 526.057 2063.87 526.057C2057.47 525.79 2051.74 525.924 2046.54 526.324C2029.2 539.257 2004.67 564.19 1982.4 610.324C1982.4 610.324 1963.6 667.79 1925.07 721.39C1925.07 721.39 1880.27 761.79 1823.34 769.39C1823.34 769.39 1786.54 771.257 1778.14 728.99C1778.14 728.99 1775.74 692.59 1787.74 657.124C1760.94 664.19 1752.27 670.057 1721.2 651.657C1703.07 640.857 1671.87 670.19 1671.87 670.19C1666.54 678.057 1658.4 672.99 1658.4 672.99C1642.67 654.057 1633.07 649.257 1629.47 648.057C1629.33 649.331 1630 649.79 1630 649.924C1630 649.924 1629.87 649.39 1629.47 648.057C1629.4 648.033 1629.47 648.057 1629.33 647.998C1627.46 650.665 1615.33 669.998 1617.33 677.998Z" fill="#1F1D39"/>
<path d="M634.266 564.191C634.266 564.191 633.866 563.658 633.066 562.725C633.466 563.125 633.866 563.658 634.266 564.191Z" fill="#1F1D39"/>
<path d="M859.868 810.321C858.134 808.588 816.934 769.388 766.001 735.921C766.001 735.921 766.001 735.921 765.867 735.921C764.267 734.988 724.801 712.454 708.401 696.054C707.601 696.321 706.667 696.188 706.001 695.521L691.334 701.388C691.067 700.054 689.601 699.254 688.401 699.788C687.334 693.921 684.134 679.388 676.934 666.588C676.934 666.454 676.801 666.454 676.801 666.321C674.801 663.788 644.934 625.921 639.201 603.788C639.201 603.654 639.201 603.521 639.201 603.521L634.534 564.854C634.267 564.588 634.134 564.188 634.134 563.788C633.867 563.388 633.601 563.121 633.334 562.854C633.334 562.854 633.334 562.854 633.201 562.721C632.667 562.054 631.867 561.388 630.934 560.454C630.534 560.721 630.001 560.721 629.601 560.321L629.334 560.454C629.067 560.054 628.401 559.921 627.867 560.188C627.601 560.321 627.201 560.321 626.934 560.188C626.534 560.054 626.267 560.054 625.867 560.188C592.534 577.788 544.401 597.521 542.534 598.321H542.401C513.734 612.854 484.934 615.121 463.067 620.454C463.067 620.454 456.667 617.388 456.267 617.521C424.134 593.654 420.134 588.188 408.134 578.454C407.734 576.988 398.934 571.388 398.801 571.388C397.467 570.054 396.134 569.921 396.134 569.921C394.801 569.921 380.934 572.054 378.134 573.254C362.934 578.188 363.467 582.988 346.401 589.388C346.267 589.521 346.134 589.521 346.001 589.654C346.801 590.454 346.667 591.788 345.867 592.588C352.134 599.254 376.534 626.188 379.201 640.588C379.334 640.721 379.334 640.988 379.334 641.121C381.334 644.854 404.801 687.788 419.867 710.054C420.001 710.188 420.001 710.321 420.134 710.321C423.334 713.521 479.734 768.054 543.334 798.588C543.467 798.721 543.601 798.721 543.601 798.854C549.467 803.254 725.334 934.854 734.801 944.721C735.601 945.521 737.601 946.054 740.534 946.454C740.667 946.454 740.934 958.854 741.067 958.854L768.534 961.254C768.534 961.254 789.734 1023.39 789.334 1016.59C842.001 1013.79 955.468 1006.99 973.334 1004.59C972.668 1003.25 935.201 925.788 936.668 925.654C930.134 912.854 899.468 854.854 859.868 810.321C859.868 810.321 859.868 810.454 859.868 810.321Z" fill="#1F1D39"/>
<path d="M91.9902 472.325C91.9902 472.325 172.924 539.792 223.324 622.458C203.324 634.192 474.79 1011.39 509.457 1001.93C576.124 983.659 -75.4766 992.666 -75.4766 992.666L-60.1432 437.658L91.9902 472.325Z" fill="#1F1D39"/>
<path d="M368.259 587.792C375.593 590.325 379.059 600.192 381.993 606.725C387.326 618.725 392.659 630.592 397.859 642.592C407.859 664.992 416.526 688.992 431.193 708.992C444.659 727.525 461.859 742.459 478.526 758.059C495.459 773.925 510.393 790.992 522.659 810.592C527.193 804.725 531.726 798.859 536.259 792.992C510.393 784.059 486.393 770.992 464.793 754.592C461.726 761.925 458.659 769.259 455.593 776.592C460.126 777.659 464.526 778.725 469.059 779.792C474.393 781.125 479.726 778.859 482.659 774.325C490.259 762.059 481.459 750.592 473.193 741.525C465.593 733.125 457.326 725.392 449.459 717.392C433.993 701.792 421.993 685.259 414.259 664.725C406.526 644.459 401.059 623.125 390.659 603.925C379.726 583.659 359.726 561.525 334.659 574.059C328.126 577.392 326.526 588.059 332.259 592.859C351.859 609.525 359.459 634.192 366.526 657.925C371.059 672.992 392.126 666.459 389.726 651.525C386.926 634.725 380.393 618.725 370.926 604.725C362.259 592.059 341.859 603.659 350.259 616.859C359.059 630.859 368.259 644.592 378.126 657.792C387.193 669.925 396.393 687.125 412.926 688.459C420.659 689.125 426.659 680.325 424.526 673.259C421.193 662.459 417.726 651.659 414.393 640.725C407.059 643.792 399.726 646.859 392.393 649.925C409.993 674.592 428.526 698.592 448.393 721.525C458.126 732.725 467.993 743.792 478.259 754.459C486.926 763.659 496.126 772.992 499.059 785.792C502.526 800.859 525.726 794.459 522.259 779.392C519.059 765.525 510.659 754.192 501.326 743.925C491.059 732.592 480.526 721.659 470.393 710.192C450.126 687.125 431.059 662.859 413.326 637.925C405.859 627.525 387.059 633.259 391.326 647.125C394.659 657.925 398.126 668.725 401.459 679.659C405.326 674.592 409.193 669.525 413.059 664.459C414.793 664.592 411.326 661.659 410.793 660.992C408.659 658.459 406.659 655.792 404.659 653.259C400.793 648.192 396.926 642.992 393.193 637.792C385.459 627.125 378.126 616.059 371.193 604.859C364.259 608.859 357.326 612.992 350.526 616.992C359.059 629.525 364.526 643.125 366.926 658.059C374.659 655.925 382.393 653.792 390.126 651.659C381.993 624.059 372.393 595.125 349.726 575.925C348.926 582.192 348.126 588.459 347.326 594.725C353.726 591.525 360.659 600.725 363.726 604.992C368.793 612.059 372.793 619.925 376.259 627.925C383.326 644.592 387.859 662.192 394.926 678.859C402.259 696.592 412.259 711.925 425.326 726.059C431.993 733.259 439.059 740.059 445.993 746.992C449.193 750.192 452.393 753.392 455.459 756.725C456.926 758.325 458.526 760.059 459.993 761.792C460.793 762.459 461.326 763.259 461.859 764.192C462.659 765.525 462.926 764.859 462.659 762.059C467.193 760.192 471.726 758.325 476.259 756.592C471.726 755.525 467.326 754.459 462.793 753.392C448.793 750.059 443.059 767.392 453.593 775.392C476.926 793.125 503.059 806.725 530.793 816.325C540.659 819.792 549.726 807.259 544.393 798.725C531.059 777.392 514.926 758.459 496.526 741.259C479.859 725.659 461.593 710.725 448.926 691.259C434.926 669.659 425.726 644.459 415.326 620.992C406.259 600.459 399.059 572.859 375.593 564.725C359.993 559.525 353.726 582.725 368.259 587.792Z" fill="#2E2D4B"/>
<path d="M2594.13 307.257C2607.06 302.324 2616 300.057 2618.26 302.057L2656.8 1001.66L2194.93 986.324C2194.93 986.324 2309.33 814.458 2331.46 763.524C2331.46 763.524 2362.13 719.391 2359.33 635.257C2359.33 635.257 2386.4 448.724 2435.2 385.924C2484 323.124 2435.2 385.924 2435.2 385.924C2435.2 385.924 2544 326.457 2594.13 307.257Z" fill="#1F1D39"/>
<path d="M384.531 978.819C384.531 978.819 436.67 904.555 486.008 874.36C486.008 874.36 543.747 827.191 675.759 889.866C675.759 889.866 830.441 989.428 837.775 1000.36C845.242 1011.46 384.531 978.819 384.531 978.819Z" fill="#1F1D39"/>
<path d="M334.667 896C146.667 896 92 911.333 0 920V1476H2560V874.667C2466.88 874.667 1855.31 878.232 1561.33 874.667C1341.33 872 1249.45 929.647 825.333 966C642.776 981.647 459.702 896 334.667 896Z" fill="#D1B2B2"/>
<path d="M0 903.347C112.155 890.703 367.634 873.002 492.304 903.347C648.141 941.279 797.333 890.667 942.612 903.347C1051.59 912.858 1254.5 909.5 1356 890.667C1422.38 878.352 1330 925.334 1234 944.667C1212.08 949.082 1214 960.667 1268 960.667C1322.64 960.667 1451.61 949.427 1594.8 949.427C1647.93 949.427 1665.41 971.174 1670.7 980.784C1681.83 1001.01 1685.33 1002 1708.64 1013.15C1723.89 1020.45 1755.7 1026.3 1755.7 1026.3C1755.7 1026.3 1768 1028.67 1787.57 1030.85C1799.73 1032.21 1825.23 1039.33 1845.25 1054.62C1853.47 1060.9 1904.26 1080.4 1953.37 1078C2035.33 1074 2085.73 1097.11 2148.67 1200.67C2174.53 1243.22 2238.67 1279.33 2271.33 1286.67C2318 1297.14 2331.28 1290.44 2363.33 1286.67C2386 1284 2390.57 1280.3 2434 1284C2454.67 1285.76 2496.75 1307.98 2498 1308.67C2505.33 1312.67 2557.54 1341.44 2563.33 1362.67C2563.35 1362.72 2563.36 1362.78 2563.38 1362.84C2563.81 1347.58 2567.05 1376.15 2563.38 1362.84C2563.35 1363.89 2563.33 1365.16 2563.33 1366.67V1468L2550.67 1576.67L1940.37 1561.33H0V903.347Z" fill="url(#paint1_linear_768_2012)"/>
</g>
<defs>
<linearGradient id="paint0_linear_768_2012" x1="2269.39" y1="3.27897e-05" x2="135.542" y2="1431.96" gradientUnits="userSpaceOnUse">
<stop stop-color="#181336"/>
<stop offset="0.470696" stop-color="#382C66" stop-opacity="0.81"/>
<stop offset="1" stop-color="#464589" stop-opacity="0.42"/>
</linearGradient>
<linearGradient id="paint1_linear_768_2012" x1="1349.33" y1="561.334" x2="1349.33" y2="1434" gradientUnits="userSpaceOnUse">
<stop stop-color="#131549"/>
<stop offset="1" stop-color="#8277AB"/>
</linearGradient>
<clipPath id="clip0_768_2012">
<rect width="2560" height="1448" fill="white"/>
</clipPath>
</defs>
</svg>
