<svg width="116" height="95" viewBox="0 0 116 95" fill="none" xmlns="http://www.w3.org/2000/svg">
<path d="M13.575 67.0095C14.642 61.1608 20.6173 52.9305 21.3395 51.7966C22.1218 50.5685 22.773 49.5105 25.2716 46.7025C26.2515 45.6013 26.4638 45.8026 26.185 45.3048C24.3855 42.6973 24.7795 39.9678 25.249 38.787C27.0633 35.3632 29.6798 33.9773 31.5903 33.1483C36.2301 31.135 39.8829 30.9941 43.4071 32.4408C46.9313 33.8876 46.0093 34.5119 49.049 32.2171C51.4334 30.4171 58.7003 24.008 64.5963 23.0262C70.4922 22.0444 75.4945 25.6314 77.7423 28.327C79.808 30.8043 79.677 30.974 80.0743 30.674C84.1957 28.3408 86.1867 27.0497 87.7222 23.1279C88.9505 19.9904 91.4975 19.1672 92.6175 19.1478C95.3519 19.1841 101.522 20.7525 104.33 26.7352C107.84 34.2135 107.738 35.8487 106.595 39.2611C105.681 41.9911 103.704 42.5787 101.155 42.8737C93.4845 42.5045 92.9884 42.7794 92.0137 42.907C87.5886 43.4863 87.3224 43.6166 88.0191 44.8606C88.4398 45.6119 89.7982 47.7952 90.8316 51.0945C91.8651 54.3938 90.2636 56.3398 89.3336 56.9004C84.9584 59.992 79.5335 61.9643 74.3711 61.6833C70.8718 61.4929 71.5438 61.4814 70.2123 62.1326C68.0819 63.1748 59.9661 67.4618 58.4952 67.8643C57.0244 68.2667 58.6596 69.3692 59.6352 71.1115C60.6109 72.8537 59.7315 73.7068 59.2919 74.1333C58.6323 74.773 56.2131 76.5109 51.3925 75.7781C48.4258 75.3271 47.4147 74.9448 46.9425 75.1011C40.9322 77.0905 37.9781 77.2679 32.0696 77.6212C23.8632 78.1118 19.2728 76.3768 17.3755 75.6139C14.929 74.2741 12.508 72.8583 13.575 67.0095Z" fill="white"/>
<path d="M101.155 42.8753C93.485 42.5062 92.9888 42.781 92.0141 42.9086C92.8353 40.7015 94.3094 37.7012 92.576 33.7296C90.8427 29.758 87.5832 26.0257 86.3662 25.6698C87.1526 24.651 87.6294 23.3548 87.7226 23.1295C88.951 19.992 91.498 19.1688 92.6179 19.1494C95.3523 19.1857 101.523 20.7541 104.33 26.7368C107.84 34.2151 107.738 35.8503 106.596 39.2627C105.682 41.9927 103.704 42.5803 101.155 42.8753Z" fill="url(#paint0_linear_752_1949)"/>
<path d="M74.3701 61.6869C70.8708 61.4965 71.5428 61.485 70.2113 62.1362C70.6573 60.6251 70.1942 55.8844 70.1145 53.598C70.1667 49.4506 68.1405 42.1979 59.8128 35.8083C54.9344 32.0653 51.7083 31.6347 50.1785 31.3262C52.5628 29.5262 58.6994 24.0116 64.5953 23.0298C70.4912 22.048 75.4936 25.635 77.7413 28.3306C79.807 30.8078 78.5031 29.2011 80.5689 31.6783C81.5079 32.8043 87.3214 43.6201 88.0181 44.8642C88.4388 45.6154 89.7972 47.7987 90.8307 51.098C91.8641 54.3974 90.2626 56.3434 89.3326 56.904C84.9574 59.9955 79.5326 61.9679 74.3701 61.6869Z" fill="url(#paint1_linear_752_1949)"/>
<path d="M51.3922 75.776C48.4255 75.3251 47.4144 74.9428 46.9422 75.0991C44.1718 75.9674 41.8241 76.5374 40.9965 76.7139C40.2996 75.4694 40.1104 72.7083 40.4662 70.3148C41.979 58.4772 40.1845 55.9632 38.3925 53.8902C36.4661 51.6619 33.9519 50.0381 32.79 49.3382C29.3927 47.5124 26.4086 46.8754 25.2713 46.7005C26.2512 45.5993 26.4634 45.8006 26.1847 45.3028C24.3852 42.6953 24.7792 39.9658 25.2487 38.785C27.063 35.3612 29.6794 33.9753 31.59 33.1463C36.2298 31.133 39.8826 30.9921 43.4068 32.4388C46.931 33.8856 46.2507 34.0356 47.7945 33.1202C50.8507 31.3081 63.8582 56.1102 60.8985 66.8179C59.98 67.292 59.1409 67.6855 58.495 67.8623C57.0241 68.2647 58.6593 69.3672 59.635 71.1095C60.6107 72.8517 59.7313 73.7048 59.2916 74.1313C58.6321 74.7709 56.2129 76.5089 51.3922 75.776Z" fill="url(#paint2_linear_752_1949)"/>
<path d="M13.5743 67.0061C14.6413 61.1573 20.6166 52.9271 21.3388 51.7932C26.5425 51.784 30.2647 53.4881 31.33 54.4898C36.2093 59.078 35.1418 66.2587 34.2534 68.9128C32.243 74.919 31.7279 76.0763 32.069 77.6177C23.8625 78.1084 19.2722 76.3733 17.3749 75.6104C14.9283 74.2707 12.5073 72.8549 13.5743 67.0061Z" fill="url(#paint3_linear_752_1949)"/>
<path d="M22.3477 64.0674C22.3612 64.9997 21.9135 66.8216 20.0144 66.6503C17.6405 66.4361 18.4744 62.67 22.3477 64.0674Z" fill="#8D583A"/>
<path d="M32.0058 77.6243L31.8539 76.7474C31.5627 75.6216 34.1384 69.9226 34.748 66.7707C35.3577 63.6188 35.4098 59.4714 32.1021 55.3822C29.4559 52.1108 25.865 52.726 21.9477 51.7886L21.4026 51.4211" stroke="url(#paint4_linear_752_1949)" stroke-width="0.83376"/>
<path d="M40.9964 76.7154C40.8571 76.4666 40.3891 73.2077 40.9987 70.0558C41.6084 66.9039 41.3692 61.6306 40.2043 57.1273C39.0394 52.624 35.6422 50.7982 33.7407 49.8259C31.6631 48.7636 28.0911 47.4108 26.0204 46.9441L25.4753 46.5766" stroke="url(#paint5_linear_752_1949)" stroke-width="0.83376"/>
<path d="M48.0622 32.9924C48.8861 33.8577 52.144 35.4347 57.8077 48.5178C62.4429 59.2251 60.1217 64.8248 61.2367 66.8159" stroke="url(#paint6_linear_752_1949)" stroke-width="0.83376"/>
<path d="M79.7461 30.8125C80.9756 31.7964 83.8776 35.767 87.8052 43.9919" stroke="url(#paint7_linear_752_1949)" stroke-width="0.83376"/>
<path d="M50.1777 31.3242C50.8622 31.9406 54.6034 32.7879 56.6811 33.8502C57.6318 34.3363 61.0291 36.1622 65.8451 41.733C69.6979 46.1897 70.3128 52.336 70.1387 54.8521L70.2758 61.7606L70.4152 62.0095" stroke="url(#paint8_linear_752_1949)" stroke-width="0.83376"/>
<path d="M86.3667 25.6647C86.9118 26.0322 88.1484 26.8611 89.9283 28.9956C91.9941 31.4728 93.236 33.0847 93.4502 37.1019C93.6376 40.6174 92.1935 41.5215 92.3578 43.0265" stroke="url(#paint9_linear_752_1949)" stroke-width="0.83376"/>
<defs>
<linearGradient id="paint0_linear_752_1949" x1="89.9271" y1="20.0648" x2="101.394" y2="43.5056" gradientUnits="userSpaceOnUse">
<stop stop-color="#E59E75"/>
<stop offset="1" stop-color="#DD8A59"/>
</linearGradient>
<linearGradient id="paint1_linear_752_1949" x1="61.2357" y1="23.9738" x2="79.8192" y2="61.9621" gradientUnits="userSpaceOnUse">
<stop stop-color="#E59E75"/>
<stop offset="1" stop-color="#DD8A59"/>
</linearGradient>
<linearGradient id="paint2_linear_752_1949" x1="32.9734" y1="32.4437" x2="54.6107" y2="76.6748" gradientUnits="userSpaceOnUse">
<stop stop-color="#E69E75"/>
<stop offset="1" stop-color="#D0855A"/>
</linearGradient>
<linearGradient id="paint3_linear_752_1949" x1="17.416" y1="53.7122" x2="29.6816" y2="78.7856" gradientUnits="userSpaceOnUse">
<stop stop-color="#E59E75"/>
<stop offset="1" stop-color="#DD8A59"/>
</linearGradient>
<linearGradient id="paint4_linear_752_1949" x1="23.2285" y1="50.5279" x2="35.6191" y2="75.8567" gradientUnits="userSpaceOnUse">
<stop stop-color="#B87B58"/>
<stop offset="1" stop-color="#B87B58"/>
</linearGradient>
<linearGradient id="paint5_linear_752_1949" x1="28.5636" y1="45.0658" x2="43.4574" y2="75.5116" gradientUnits="userSpaceOnUse">
<stop stop-color="#B87B58"/>
<stop offset="1" stop-color="#B87B58"/>
</linearGradient>
<linearGradient id="paint6_linear_752_1949" x1="46.4409" y1="33.7856" x2="62.3358" y2="66.2782" gradientUnits="userSpaceOnUse">
<stop stop-color="#B87B58"/>
<stop offset="1" stop-color="#B87B58"/>
</linearGradient>
<linearGradient id="paint7_linear_752_1949" x1="80.1227" y1="30.6283" x2="86.8812" y2="44.444" gradientUnits="userSpaceOnUse">
<stop stop-color="#B87B58"/>
<stop offset="1" stop-color="#B87B58"/>
</linearGradient>
<linearGradient id="paint8_linear_752_1949" x1="54.1795" y1="29.3666" x2="70.1996" y2="62.115" gradientUnits="userSpaceOnUse">
<stop stop-color="#B87B58"/>
<stop offset="1" stop-color="#B87B58"/>
</linearGradient>
<linearGradient id="paint9_linear_752_1949" x1="85.774" y1="25.9546" x2="93.7841" y2="42.3288" gradientUnits="userSpaceOnUse">
<stop stop-color="#B87B58"/>
<stop offset="1" stop-color="#B87B58"/>
</linearGradient>
</defs>
</svg>
