<svg width="66" height="46" viewBox="0 0 66 46" fill="none" xmlns="http://www.w3.org/2000/svg">
<path d="M6.17825 29.7725C7.4009 26.5846 11.6357 22.5151 12.1624 21.945C12.7329 21.3276 13.2116 20.7936 14.9149 19.4479C15.5829 18.9202 15.6808 19.0531 15.5771 18.7474C14.8435 17.1145 15.3557 15.6171 15.7453 14.9972C17.1297 13.2418 18.7478 12.7063 19.9098 12.4182C22.7319 11.7184 24.7998 11.979 26.6264 13.12C28.4529 14.261 27.8683 14.5261 29.8211 13.5192C31.3528 12.7294 36.1196 9.80354 39.5378 9.80033C42.956 9.79713 45.3853 12.2785 46.3614 14.0026C47.2585 15.5871 47.1668 15.6703 47.4221 15.5386C49.9869 14.6108 51.2434 14.0704 52.5241 12.0092C53.5486 10.3601 55.0677 10.1345 55.6992 10.2278C57.2321 10.5026 60.533 11.9582 61.4737 15.5818C62.6495 20.1112 62.418 21.0207 61.4126 22.8323C60.6083 24.2815 59.4341 24.4277 57.9702 24.3564C53.6987 23.4353 53.3906 23.5436 52.8292 23.5246C50.2805 23.4385 50.1171 23.4869 50.3761 24.2509C50.5325 24.7123 51.0634 26.0657 51.2928 28.0161C51.5222 29.9665 50.4148 30.9112 49.8325 31.1398C47.0442 32.4702 43.7853 33.0739 40.9139 32.4357C38.9675 32.0031 39.3464 32.0591 38.5287 32.3012C37.2204 32.6887 32.2026 34.343 31.3331 34.4323C30.4636 34.5217 31.2651 35.2934 31.6279 36.3634C31.9907 37.4333 31.4056 37.8309 31.113 38.0297C30.6743 38.3279 29.1295 39.0795 26.4983 38.2191C24.879 37.6896 24.3515 37.3807 24.0694 37.4246C20.4797 37.9835 18.8005 37.8083 15.4422 37.4571C10.7778 36.9693 8.3828 35.5671 7.39776 34.9618C6.16545 33.9812 4.95561 32.9603 6.17825 29.7725Z" fill="white"/>
<path d="M57.9673 24.3556C53.6959 23.4344 53.3877 23.5427 52.8263 23.5237C53.5229 22.3597 54.671 20.8106 54.1198 18.4173C53.5687 16.0239 52.1344 13.623 51.4883 13.3098C52.0388 12.8104 52.4448 12.1263 52.5212 12.0083C53.5457 10.3593 55.0649 10.1336 55.6964 10.2269C57.2292 10.5017 60.5301 11.9573 61.4708 15.5809C62.6466 20.1103 62.4151 21.0199 61.4097 22.8314C60.6053 24.2807 59.4311 24.4269 57.9673 24.3556Z" fill="url(#paint0_linear_752_1962)"/>
<path d="M40.9142 32.4383C38.9678 32.0057 39.3467 32.0618 38.529 32.3038C38.9406 31.4961 39.1853 28.7886 39.3841 27.4963C39.8551 25.1702 39.4889 20.9055 35.4892 16.5397C33.1462 13.9822 31.3789 13.44 30.552 13.1243C32.0838 12.3345 36.1199 9.80616 39.5381 9.80295C42.9563 9.79974 45.3856 12.2811 46.3617 14.0052C47.2588 15.5897 46.6971 14.5653 47.5943 16.1498C48.0021 16.87 50.1173 23.4895 50.3764 24.2535C50.5328 24.7149 51.0637 26.0683 51.2931 28.0187C51.5225 29.9691 50.4151 30.9138 49.8327 31.1424C47.0445 32.4728 43.7856 33.0765 40.9142 32.4383Z" fill="url(#paint1_linear_752_1962)"/>
<path d="M26.4993 38.2199C24.88 37.6904 24.3525 37.3815 24.0704 37.4254C22.4209 37.6556 21.0408 37.7575 20.5569 37.7797C20.2978 37.0155 20.4855 35.4461 20.9405 34.134C23.0515 27.6218 22.3108 26.042 21.5244 24.7102C20.6791 23.2786 19.4391 22.1321 18.8606 21.6306C17.1458 20.2884 15.5366 19.6528 14.916 19.4486C15.584 18.9209 15.6818 19.0538 15.5782 18.7481C14.8446 17.1152 15.3567 15.6178 15.7464 14.9979C17.1307 13.2425 18.7488 12.707 19.9108 12.4189C22.7329 11.7191 24.8008 11.9797 26.6274 13.1207C28.4539 14.2617 28.0556 14.2827 29.0207 13.9119C30.9313 13.1778 35.5999 28.3273 32.796 34.0698C32.2293 34.2508 31.7159 34.3938 31.334 34.4331C30.4645 34.5224 31.2661 35.2942 31.6288 36.3641C31.9916 37.4341 31.4065 37.8317 31.114 38.0305C30.6752 38.3286 29.1305 39.0803 26.4993 38.2199Z" fill="url(#paint2_linear_752_1962)"/>
<path d="M6.18001 29.7737C7.40265 26.5859 11.6375 22.5163 12.1642 21.9462C15.0896 22.4253 17.0001 23.7293 17.4921 24.3914C19.7456 27.424 18.3808 31.3604 17.5988 32.7694C15.8292 35.9579 15.4164 36.5604 15.444 37.4584C10.7796 36.9706 8.38455 35.5684 7.3995 34.9631C6.1672 33.9825 4.95737 32.9615 6.18001 29.7737Z" fill="url(#paint3_linear_752_1962)"/>
<path d="M11.4218 28.9377C11.3301 29.463 10.8844 30.4453 9.83524 30.1723C8.5238 29.831 9.39367 27.792 11.4218 28.9377Z" fill="#8D583A"/>
<path d="M15.4041 37.4522L15.4121 36.9452C15.3684 36.2854 17.423 33.3221 18.1013 31.6074C18.7797 29.8928 19.2507 27.5667 17.8273 24.9607C16.6885 22.876 14.6049 22.8876 12.5031 21.9963L12.2359 21.7391" stroke="#B87B58" stroke-width="0.83376"/>
<path d="M20.5538 37.7826C20.502 37.6297 20.5861 35.7546 21.2644 34.04C21.9428 32.3253 22.3701 29.3394 22.195 26.7001C22.02 24.0608 20.3052 22.7185 19.3401 21.9952C18.2856 21.2049 16.4221 20.1122 15.3081 19.6573L15.0409 19.4" stroke="#B87B58" stroke-width="0.83376"/>
<path d="M29.1844 13.8602C29.5553 14.4231 31.2183 15.6125 33.0078 23.4924C34.4724 29.9413 32.5714 32.8724 32.986 34.0952" stroke="#B87B58" stroke-width="0.83376"/>
<path d="M47.2227 15.5859C47.8088 16.2533 49.0168 18.7548 50.348 23.7428" stroke="#B87B58" stroke-width="0.83376"/>
<path d="M30.5508 13.125C30.8698 13.5351 32.8822 14.3594 33.9367 15.1497C34.4193 15.5114 36.1341 16.8536 38.2474 20.4326C39.9381 23.2958 39.629 26.8073 39.2631 28.2052L38.6043 32.1006L38.6562 32.2535" stroke="#B87B58" stroke-width="0.83376"/>
<path d="M51.4884 13.3109C51.7555 13.5682 52.3622 14.1491 53.1352 15.5143C54.0323 17.0988 54.5586 18.1203 54.2511 20.3979C53.982 22.3912 53.0741 22.7649 53.0062 23.626" stroke="#B87B58" stroke-width="0.83376"/>
<defs>
<linearGradient id="paint0_linear_752_1962" x1="54.0866" y1="10.491" x2="58.2827" y2="24.6584" gradientUnits="userSpaceOnUse">
<stop stop-color="#E59E75"/>
<stop offset="1" stop-color="#CF7C4C"/>
</linearGradient>
<linearGradient id="paint1_linear_752_1962" x1="37.5494" y1="10.0209" x2="44.3497" y2="32.9808" gradientUnits="userSpaceOnUse">
<stop stop-color="#E59E75"/>
<stop offset="1" stop-color="#CF7C4C"/>
</linearGradient>
<linearGradient id="paint2_linear_752_1962" x1="20.7632" y1="12.1527" x2="28.6809" y2="38.8857" gradientUnits="userSpaceOnUse">
<stop stop-color="#E69E75"/>
<stop offset="1" stop-color="#C97B4F"/>
</linearGradient>
<linearGradient id="paint3_linear_752_1962" x1="9.75508" y1="22.6597" x2="14.2434" y2="37.814" gradientUnits="userSpaceOnUse">
<stop stop-color="#E59E75"/>
<stop offset="1" stop-color="#CF7C4C"/>
</linearGradient>
</defs>
</svg>
