<svg width="410" height="233" viewBox="0 0 410 233" fill="none" xmlns="http://www.w3.org/2000/svg">
<path d="M468.075 177.694L495.297 180.708L396.753 220.169L370.683 230.609C361.578 234.255 348.051 229.992 354.308 227.486C359.314 225.482 372.242 215.868 378.081 211.312L322.797 191.099C321.825 194.715 314.333 203.806 292.142 211.24C269.951 218.674 266.835 215.526 268.051 213.022C270.97 211.248 278.707 205.488 286.296 196.641C293.885 187.794 294.461 183.288 293.8 182.141C283.682 178.529 262.695 171.244 259.691 170.994C256.687 170.745 246.065 174.233 241.129 176.008C214.953 181.649 206.399 178.419 197.431 180.196C188.462 181.972 178.971 180.933 180.43 178.534C181.889 176.134 191.483 172.898 205.352 166.739C216.447 161.812 214.214 158.149 211.71 156.933C202.879 154.016 181.168 145.326 164.977 133.901C148.787 122.477 141.749 119.205 140.254 118.996C119.815 125.366 109.489 125.266 96.2434 123.915C85.6466 122.834 83.4834 120.756 83.7264 119.852C84.004 118.531 88.1467 115.178 102.497 112.336C116.847 109.494 118.904 106.976 118.139 106.072C97.1351 91.8962 54.9555 64.077 52.2087 65.318C40.4254 70.6415 33.5773 72.1738 29.8925 73.0443C10.0784 77.9538 4.13309 76.7044 8.40685 70.7578C12.6806 64.8113 31.3449 52.4976 33.2217 51.1411C34.7231 50.0559 19.5897 40.2648 11.8353 35.505C-1.93552 25.2893 -0.268612 20.3869 1.08674 19.239C11.0975 15.2303 35.4034 28.8907 44.0625 35.9099C44.3108 30.4865 46.1413 16.9275 48.2245 10.0431C50.896 1.21475 51.7671 0.759637 53.54 0.654548C58.2973 0.372565 62.624 27.8721 61.5846 37.3633C60.7531 44.9563 62.6316 48.0357 63.6748 48.6263C73.4804 53.9762 94.907 65.8852 102.168 70.7223C109.429 75.5594 111.452 74.265 111.555 73.0132C112.91 68.841 112.039 65.1561 112.386 63.0006C112.591 54.4484 111.755 49.3383 111.024 46.001C110.422 43.2579 108.622 38.492 109.768 36.8229C110.686 35.4875 112.167 35.2584 112.897 35.571C114.149 35.6756 123.434 45.2664 126.982 51.1047C134.185 67.5814 130.847 65.2874 131.789 75.195C132.543 83.1212 135.444 86.8399 136.8 87.7085C146.19 96.0486 163.403 107.306 180.927 114.808C198.451 122.311 217.227 129.917 216.704 124.077C216.18 118.237 214.51 114.066 215.029 107.808C215.444 102.801 209.425 90.2889 206.364 84.6584C204.777 79.486 207.996 79.1649 209.804 79.6509C214.06 81.8187 218.393 85.4882 220.027 87.052C245.588 110.091 244.24 129.387 245.701 133.036C246.871 135.956 248.136 137.103 248.623 137.311L293.686 156.172C296.356 158.006 298.692 156.587 299.526 155.648C305.573 149.596 301.083 136.874 300.142 129.991C299.201 123.108 300.974 123.003 305.667 124.148C310.361 125.293 328.411 144.685 330.709 153.445C332.547 160.453 334.328 162.483 334.989 162.622L352.827 172.419C370.665 182.216 397.053 186.169 411.028 184.808C422.208 183.719 434.597 179.202 439.393 177.079C442.313 175.305 445.025 174.824 443.768 160.808C442.511 146.791 445.117 144.537 446.578 145.162C458.263 155.003 465.778 170.951 468.075 177.694Z" fill="#672540"/>
</svg>
