<svg width="270" height="174" viewBox="0 0 270 174" fill="none" xmlns="http://www.w3.org/2000/svg">
<path d="M91.3985 205.913C101 223.01 122.843 223.908 126.964 224.402L214.902 218.825C220.449 202.807 221.818 153.523 219.866 147.276C217.815 140.713 209.19 133.524 203.467 134.001C198.781 134.391 198.391 134.917 196.048 135.562C188.641 137.604 180.885 141.926 180.43 141.81C178.087 142.591 175.354 144.933 176.916 140.638C180.079 131.939 184.335 132.439 187.458 117.602C190.515 103.083 183.554 95.7365 173.792 92.2225C169.377 90.633 162.469 91.0511 161.298 91.0511C158.174 91.4416 156.69 92.5702 157.003 91.4416C158.955 84.4135 162.484 61.1356 157.784 55.9106C153.084 50.6855 145.68 51.2251 142.947 50.4442C140.543 49.7574 140.995 49.2868 140.995 43.8066C140.995 33.6549 138.261 26.2363 134.357 21.9414C123.499 9.9978 115.81 10.2186 112.492 10.2274C107.268 9.67457 93.3596 16.0843 92.2303 33.4361C91.8175 39.7788 94.0231 53.2055 96.2856 57.4724C98.0957 60.8858 97.4755 61.4535 96.2856 61.2984C85.6764 56.9769 79.2116 58.2751 77.3054 59.4643C73.058 61.3592 64.6554 67.5869 65.0241 77.3384C65.4851 89.5278 79.7882 106.597 83.473 110.109C86.4209 112.92 84.9717 113.138 83.8786 112.896C72.4793 110.965 67.7895 117.39 66.8695 120.843C66.1723 123.571 66.7911 131.732 74.8446 142.554C82.898 153.375 99.8658 168.487 107.4 169.988C113.193 171.143 126.686 176.008 114.915 174.257C106.46 172.999 100.538 175.174 97.6172 177.212C92.3438 181.08 83.7173 192.236 91.3985 205.913Z" fill="#EFCB94"/>
<path fill-rule="evenodd" clip-rule="evenodd" d="M161.338 173.105C162.275 175.08 162.842 176.274 162.936 176.555L166.841 174.994C161.265 167.467 154.744 153.122 148.539 137.201C152.882 133.099 155.421 128.174 154.346 124.235C153.409 120.799 152.394 122.023 152.004 123.064C151.691 126.812 150.312 129.311 149.661 130.092C148.805 131.269 147.898 132.273 146.969 133.125C142.041 120.167 137.385 106.48 133.652 94.7708C140.209 91.6789 142.114 87.8935 142.242 86.3617C142.242 82.301 140.941 83.3682 140.29 84.4094C138.838 87.7979 135.416 90.6238 132.859 92.2694C129.021 80.091 126.288 70.3872 125.453 66.4484C123.266 56.1405 121.678 54.865 121.158 55.5158C122.885 67.8786 126.03 80.9187 129.849 93.6802C126.05 94.51 120.522 93.8636 118.034 93.3898C114.598 92.4527 115.822 94.0406 116.863 94.9516C119.121 96.0805 124.629 97.6011 130.535 95.9461C134.77 109.776 139.749 123.21 144.516 135.021C140.769 137.428 137.072 137.776 135.214 137.511C130.217 137.511 131.831 139.593 133.262 140.634C135.993 141.228 142.058 141.648 146.184 139.11C152.703 154.922 158.6 167.341 161.338 173.105Z" fill="#DCB06D"/>
</svg>
