<svg width="307" height="507" viewBox="0 0 307 507" fill="none" xmlns="http://www.w3.org/2000/svg">
<path d="M379.105 441.245C381.273 449.533 380.934 460.11 371.737 466.994L205.077 461.665C203.696 460.815 202.005 454.889 205.494 447.248C212.565 431.763 224.064 429.713 233.811 425.795C237.129 424.461 230.411 419.57 214.946 411.897C192.454 398.488 178.991 385.166 173.746 379.156C166.752 371.144 170.517 358.675 176.955 352.597C183.392 346.518 190.64 344.373 195.917 342.326C206.658 337.351 211.331 336.776 211.749 336.185C213.594 334.834 210.937 330.962 185.543 326.282C153.801 320.432 129.662 301.532 130.168 284.024C130.675 266.515 136.525 251.595 152.287 247.869C164.897 244.888 166.469 243.286 165.678 242.858C158.571 238.804 140.263 226.455 123.894 209.494C103.434 188.294 99.5901 175.481 99.9044 164.614C100.219 153.747 112.996 140.645 127.451 140.503C141.905 140.361 143.196 137.381 142.664 134.947C142.132 132.513 138.187 114.929 135.318 98.1654C132.947 84.3146 144.845 74.097 148.753 70.7977C156.545 68.8672 167.997 66.5118 175.024 73.3838C182.05 80.2557 190.374 96.8042 191.969 104.107C193.245 109.949 199.307 128.6 200.117 126.934C210.776 104.991 221.888 103.678 225.314 103.183C232.195 101.188 247.461 103.487 256.75 115.387C268.362 130.261 265.998 148.709 264.477 156.431C262.285 167.558 248.057 200.22 249.101 198.843C237.9 216.562 235.125 222.924 239.649 226.09C246.403 230.816 302.076 189.636 310.909 208.553C322.843 234.109 306.405 243.791 299.048 253.082C293.39 260.226 295.927 280.859 308.016 267.046C316.699 257.125 337.516 245.808 342.982 245.305C353.037 244.619 378.066 258.949 382.675 282.784C388.436 312.579 328.214 326.083 323.863 330.778C322.706 332.028 320.114 335.493 321.335 334.928C329.353 327.357 334.938 329.234 338.911 330.569L338.954 330.583C350.803 337.247 355.055 349.831 355.7 355.29C359.335 375.349 353.256 403.003 349.865 411.304C347.886 416.148 346.648 417.317 346.012 419.641C353.884 416.944 364.94 421.29 368.147 423.443C372.872 426.616 377.449 434.916 379.105 441.245Z" fill="#673B81"/>
<path fill-rule="evenodd" clip-rule="evenodd" d="M294.181 426.125C290.531 420.091 285.275 410.717 279.214 398.898C287.669 397.757 295.302 385.783 298.155 379.698C299.326 374.427 295.92 374.858 294.07 375.732C289.989 386.804 281.335 391.385 276.556 392.582C276.425 392.674 276.293 392.769 276.16 392.868C263.522 367.61 248.184 333.12 236.611 296.616C235.866 294.289 235.067 291.796 234.221 289.161C240.059 282.957 243.483 276.462 243.485 271.873C243.489 262.835 238.964 266.148 238.524 269.369C236.777 274.267 233.862 278.329 231.546 280.837C224.087 257.649 214.145 226.927 205.697 201.262C207.241 200.746 208.902 200.05 210.55 199.127C216.537 195.773 222.525 189.929 225.011 182.464C227.498 174.999 226.333 170.308 223.85 172.792C221.121 179.28 213.795 192.719 206.32 194.574C205.664 194.924 204.838 195.313 203.867 195.713C198.302 178.86 193.557 164.755 190.871 157.323C189.607 156.392 188.359 159.69 193.484 180.33C194.767 185.064 196.386 190.925 198.264 197.589C192.651 199.092 185.222 200.058 177.563 198.601C174.596 197.47 167.582 194.356 163.264 190.946C162.048 191.04 160.549 191.993 164.283 195.05C164.881 195.54 165.505 196.135 166.189 196.787L166.189 196.787C170.845 201.227 178.269 208.306 199.017 202.613C199.206 202.608 199.426 202.596 199.675 202.575C206.479 226.519 216.065 258.853 225.389 286.794C221.897 287.678 219.494 288.32 217.716 288.796C215.277 289.447 214.012 289.785 212.728 290.003C211.345 290.239 209.939 290.336 207.019 290.539L207.018 290.539C205.581 290.639 203.776 290.764 201.426 290.943C188.907 291.9 195.508 295.102 200.373 296.583C208.664 297.041 220.58 294.484 227.364 292.658C229.712 299.561 232.029 306.124 234.266 312.14C244.042 338.429 257.65 370.859 268.7 396.339C264.347 399.261 256.361 402.258 246.405 399.455C241.508 398.739 242.089 403.574 247.209 405.097C250.077 405.95 264.135 406.934 271.49 402.75C276.139 413.396 280.185 422.478 283.086 428.879L294.181 426.125Z" fill="#936FA8"/>
</svg>
