<svg width="423" height="288" viewBox="0 0 423 288" fill="none" xmlns="http://www.w3.org/2000/svg">
<path d="M356.786 393.144C364.471 392.123 368.402 393.246 386.937 385.383C393.395 382.644 410.704 372.924 415.196 330.239C415.631 326.113 415.197 299.91 385.991 308.335C379.252 310.279 357.755 317.743 359.032 312.268C361.22 302.887 382.039 269.411 374.758 248.801C373.142 243.132 366.896 228.02 347.708 231.391C335.443 232.514 315.178 251.148 307.923 260.596C305.676 262.281 307.164 257.77 307.923 256.102C310.731 249.924 317.471 238.691 320.279 221.842C323.289 203.778 322.525 183.088 315.785 163.993C310.05 147.745 287.703 137.596 273.1 149.39C262.856 157.665 256.591 177.141 254.182 186.363C267.805 119.958 244.762 81.1812 241.087 75.108C232.588 61.0669 221.991 61.7777 213.566 67.9516C205.141 74.1254 196.716 90.9791 190.738 115.127C189.865 116.766 191.102 109.002 190.738 102.253C190.284 93.817 181.116 66.7241 166.243 52.9929C154.344 42.0079 137.427 45.8847 130.455 49.1962C126.899 50.3169 118.288 57.0683 112.292 75.108C111.204 76.7757 110.346 76.8632 107.415 72.449C94.4975 52.9929 77.0617 44.9829 71.9221 43.8559C56.3062 40.4315 50.1275 42.1166 41.703 48.2945C36.6479 52.9928 31.2259 57.4097 32.155 72.4489C33.3162 91.248 52.9355 104.346 55.1821 108.39C57.9904 113.445 52.9356 111.198 43.3877 111.76C4.07251 114.073 10.9062 144.895 18.6753 156.691C25.9767 167.778 27.5828 170.938 52.9357 189.829C56.3055 192.339 57.9903 193.198 65.2917 197.13C69.2232 199.938 60.3016 199.333 53.4973 203.87C43.3877 210.609 36.8132 215.664 42.8261 231.39C50.1275 250.486 70.6718 260.535 105.168 271.267C130.442 279.13 150.437 276.322 151.223 279.13C151.785 283.623 139.322 283.225 128.757 290.363C123.499 293.45 116.963 303.843 123.141 317.884C127.836 328.555 137.182 334.171 142.237 336.98C149.718 341.136 160.771 344.281 183.799 349.336C201.92 353.314 211.125 352.333 207.388 353.267C200.648 354.952 197.045 355.879 193.347 358.884C175.374 373.487 195.667 392.484 197.278 393.144L356.786 393.144Z" fill="#A16BBA"/>
<path fill-rule="evenodd" clip-rule="evenodd" d="M156.931 168.944C151.223 163.123 142.065 154.077 132.23 144.902C136.065 138.214 137.725 133.947 138.322 128.467L138.383 127.903C138.982 122.427 139.448 118.16 137.706 114.391C136.27 111.285 134.954 114.128 135.118 115.481C135.118 118.786 134.655 121.139 134.296 122.962C134.045 124.237 133.846 125.252 133.891 126.152C131.792 131.413 129.157 137.359 126.72 139.816C116.616 130.596 106.344 121.829 98.7731 116.718C99.3823 117.68 103.435 122.549 114.774 134.335C117.376 137.04 120.265 139.933 123.365 142.992C122.6 143.87 121.044 145.127 117.904 146.938C110.911 150.971 107.45 150.94 101.22 150.885L101.219 150.885C100.46 150.878 99.6599 150.871 98.8077 150.871C92.068 150.87 91.3275 152.936 93.1913 154.801C94.8762 156.486 110.602 155.925 112.849 155.363C118.074 154.057 124.226 151.099 128.875 148.396C129.692 149.194 130.52 150.002 131.357 150.818C143.684 162.848 158.009 176.826 170.813 191.716C173.211 194.504 177.266 199.131 182.596 205.162C179.311 205.964 175.412 206.089 172.947 206.089C172.422 206.06 171.861 206.033 171.27 206.005L171.267 206.005C166.805 205.791 160.735 205.501 156.931 203.663C155.41 202.477 151.945 200.624 151.044 201.978C149.919 203.67 156.244 209.929 161.715 211.278C167.185 212.627 169.016 212.649 179.687 212.649C183.462 212.649 186.233 212.108 188.137 211.42C203.712 228.983 226.764 254.764 250.965 281.602C248.882 282.525 246.12 283.493 242.591 284.541C240.784 285.099 233.288 286.341 228.55 285.664C224.619 285.102 224.619 287.911 226.304 288.472C228.115 290.348 238.098 291.842 244.838 290.719C248.719 290.072 252.78 288.792 256.184 287.385C272.917 305.92 289.98 324.712 305.314 341.435C301.82 343.454 296.666 345.514 290.894 345.514C287.337 345.701 284.716 346.638 279.663 349.132C277.978 350.63 278.54 353.288 294.266 351.94C298.63 350.97 305.914 349.137 310.751 347.355C327.74 365.829 342.159 381.245 350.953 390.147L358.852 390.131C354.922 386.656 340.63 369.381 323.92 349.183L323.92 349.182L323.919 349.182C321.907 346.749 319.859 344.274 317.79 341.775C321.661 337.263 328.902 328.67 326.279 315.995C323.584 302.965 321.411 313.875 321.223 321.363C320.507 325.949 316.938 332.4 313.037 336.04C293.981 313.069 274.042 289.357 263.696 279.245C270.698 275.243 272.522 265.684 273.584 260.12C273.751 259.248 273.898 258.475 274.044 257.836C275.122 253.12 272.895 244.924 271.2 243.811C269.845 242.921 269.046 244.516 268.816 245.424C268.078 264.289 261.816 271.563 257.731 273.396C238.656 254.623 215.984 231.699 190.98 205.378C193.317 202.169 196.806 196.948 198.223 194.115C200.036 190.488 201.592 186.813 201 178.999C200.457 171.837 196.588 173.058 196.134 176.178C196.067 176.639 196.001 177.185 195.928 177.786L195.928 177.788C195.592 180.561 195.114 184.506 193.729 186.813C190.645 193.864 186.678 196.705 184.176 198.192C175.345 188.834 166.245 179.075 156.931 168.944Z" fill="#8C4EB4"/>
</svg>
