<svg width="229" height="195" viewBox="0 0 229 195" fill="none" xmlns="http://www.w3.org/2000/svg">
<path d="M51.1291 256.687C50.8076 261.856 52.2485 268.092 58.5351 271.11L157.214 248.635C157.937 247.971 158.25 244.259 155.277 240.13C149.25 231.762 142.158 231.879 135.891 230.684C133.758 230.277 137.188 226.597 145.504 220.252C157.335 209.69 163.796 200.226 166.218 196.053C169.446 190.489 165.742 183.528 161.195 180.667C156.647 177.807 152.077 177.374 148.693 176.771C141.711 175.064 138.859 175.264 138.54 174.962C137.283 174.374 138.413 171.769 152.995 166.05C171.223 158.901 183.393 144.89 181.04 134.561C178.688 124.232 173.454 116.058 163.626 115.674C155.763 115.367 154.639 114.599 155.06 114.253C158.82 111.024 168.282 101.576 176.049 89.6168C185.756 74.6678 186.546 66.6202 185.086 60.2093C183.626 53.7985 177.161 45.1551 168.532 46.7459C159.903 48.3366 158.785 46.718 158.817 45.2122C158.848 43.7064 160.382 33.9909 157.317 23.8243C154.865 15.6909 148.822 10.6486 146.106 9.14418C142.089 6.31256 133.104 7.98441 129.722 12.8757C126.341 17.7671 123.238 30.4624 123.143 34.9798C123.067 38.5937 121.244 38.1596 120.343 37.4908C113.642 29.1262 107.768 27.2418 105.669 27.3451C101.335 26.9585 91.6313 28.2195 87.4901 36.3559C82.3136 46.5264 86.2252 66.9903 87.6359 71.5394C88.7645 75.1786 87.4809 74.6968 86.698 74.001C78.2625 67.2304 71.5035 70.3434 69.1785 72.7461C67.3659 74.6575 64.1536 81.6083 65.8044 94.1201C67.4552 106.632 74.4358 126.71 79.908 131.37C84.1161 134.953 92.9256 145.075 84.1047 138.281C77.7684 133.401 71.9391 132.481 68.6233 132.816C62.552 133.574 50.4207 138.76 50.4663 153.436C50.5233 171.78 67.963 182.465 71.1052 184.747C71.9412 185.354 73.8911 187.109 73.0977 186.915C67.4335 183.353 64.3255 185.113 62.1148 186.366L62.0906 186.38C55.8109 191.706 54.7513 199.665 55.0065 202.979C55.1903 215.3 62.0515 231.003 65.044 235.535C66.7906 238.18 67.6654 238.73 68.3167 240.035C63.31 239.347 57.2318 243.207 55.5731 244.856C53.1294 247.286 51.3745 252.74 51.1291 256.687Z" fill="#E890A6"/>
<path fill-rule="evenodd" clip-rule="evenodd" d="M122.467 103.341C121.101 110.539 119.989 117.213 119.309 121.69C118.011 132.563 116.672 143.021 115.322 152.996C113.425 152.625 110.102 151.06 106.643 146.679C105.406 145.087 102.638 141.596 101.459 140.366C100.53 139.579 98.9323 139.144 99.9706 143.703C101.065 148.507 104.714 151.665 106.977 153.624C107.398 153.988 107.771 154.311 108.071 154.596C109.261 155.723 112.349 156.963 114.672 157.757C111.666 179.565 108.625 198.939 105.869 215.14C103.031 215.718 96.9937 214.241 89.4744 204.538C89.0101 204.144 87.9876 203.603 87.6125 204.587C87.1435 205.818 89.0726 210.998 91.4213 213.086C91.7394 213.369 92.1094 213.722 92.5262 214.12C95.1873 216.662 99.7593 221.029 104.949 220.495C101.559 240.011 98.6796 254.349 96.949 262.03L102.648 260.732C103.435 255.675 104.378 249.68 105.413 243.091C106.415 236.72 107.503 229.793 108.624 222.624C111.598 222.548 116.461 222.118 120.148 220.78C124.577 219.172 126.169 215.412 126.411 213.734C126.389 211.99 125.975 209.187 124.499 211.921C123.024 214.655 120.335 216.117 119.175 216.506C114.829 218.016 111.237 217.695 109.467 217.217C112.683 196.572 116.04 174.596 118.264 158.434C119.507 158.58 121.508 158.454 124.491 157.599C130.042 156.008 131.5 154.209 133.351 151.926C133.622 151.592 133.901 151.247 134.202 150.892C136.565 148.106 136.822 144.301 135.591 143.832C134.607 143.457 133.66 145.77 133.31 146.974C131.835 149.708 128.433 151.332 126.917 151.802C125.769 152.316 121.716 152.976 118.949 153.368C119.75 147.314 120.339 142.361 120.628 138.998C121.676 126.819 123.769 114.554 125.634 103.851C129.406 103.462 136.492 102.243 139.083 99.955C141.828 97.5315 142.469 93.4391 142.447 91.6959C141.987 89.6776 140.994 86.632 140.698 90.5957C140.328 95.5504 138.758 98.5303 132.897 99.1159C128.589 99.5464 126.912 99.1244 126.514 98.7977C127.23 94.6607 127.874 90.8272 128.36 87.4087C129.858 76.8772 130.145 72.7656 130.102 72.0262C127.769 78.3871 125.39 88.6033 123.403 98.5361C121.111 98.277 116.744 96.8366 114.955 92.7125C114.182 91.5147 112.482 88.1056 111.858 84.0516C111.431 83.2746 110.478 82.268 110.077 84.4572C109.577 87.1938 110.406 94.1232 112.917 96.9231C115.327 99.6113 117.842 101.24 122.467 103.341Z" fill="#E67591"/>
</svg>
