<svg width="246" height="266" viewBox="0 0 246 266" fill="none" xmlns="http://www.w3.org/2000/svg">
<path d="M264.873 400.497C264.97 408.458 262.28 417.924 252.395 422.077L102.584 380.006C101.525 378.931 101.328 373.206 106.21 367.094C116.106 354.706 126.987 355.428 136.702 354.072C140.01 353.611 135.024 347.697 122.74 337.317C105.381 320.191 96.1837 305.163 92.785 298.57C88.2535 289.778 94.4743 279.372 101.677 275.328C108.88 271.283 115.93 270.969 121.173 270.302C132.026 268.216 136.39 268.742 136.902 268.302C138.879 267.496 137.343 263.409 115.388 253.509C87.9445 241.135 70.3302 218.688 74.7339 203.007C79.1376 187.326 87.8005 175.174 102.922 175.337C115.02 175.468 116.805 174.374 116.185 173.811C110.658 168.565 96.8516 153.331 85.8416 134.372C72.0792 110.672 71.4831 98.2534 74.2163 88.5206C76.9496 78.7879 91.4794 69.8262 104.609 72.9299C117.738 76.0337 119.579 73.6337 119.645 71.319C119.712 69.0042 120.099 52.2599 121.276 36.4959C122.249 23.471 135.332 16.9139 139.617 14.8116C147.112 14.8123 158.019 15.2482 162.838 23.0184C167.656 30.7886 171.47 47.5782 171.27 54.5225C171.11 60.078 172.4 78.2588 173.509 76.9363C188.112 59.5253 198.476 60.8256 201.692 61.1452C208.377 60.8835 221.691 66.3713 227.427 79.1829C234.597 95.1974 228.298 111.31 225.18 117.936C220.687 127.484 200.436 153.767 201.692 152.758C187.55 166.238 183.602 171.356 186.989 175.224C192.043 180.998 251.768 156.298 255.509 175.337C260.564 201.06 243.488 206.119 234.728 212.854C227.992 218.034 225.642 237.214 239.708 227.457C249.812 220.448 271.224 214.894 276.29 215.663C285.555 217.292 305.005 235.815 303.811 258.348C302.318 286.514 244.708 285.23 239.708 288.493C238.377 289.361 235.248 291.908 236.482 291.671C245.453 286.634 250.091 289.576 253.389 291.668L253.425 291.691C262.661 300.352 263.678 312.655 263.032 317.724C261.806 336.631 250.067 360.219 245.125 366.949C242.24 370.877 240.855 371.654 239.755 373.608C247.496 372.936 256.534 379.328 258.955 381.988C262.521 385.906 264.798 394.417 264.873 400.497Z" fill="#E3577A"/>
<path fill-rule="evenodd" clip-rule="evenodd" d="M191.482 367.875C189.533 361.613 186.879 351.979 184.047 339.959C191.964 340.822 201.572 331.729 205.524 326.878C207.771 322.385 204.588 322.011 202.716 322.385C196.528 331.461 187.658 333.656 183.059 333.665C182.92 333.718 182.779 333.774 182.636 333.833C176.868 308.215 170.729 273.662 168.455 238.135C168.303 235.869 168.14 233.44 167.966 230.873C174.651 226.583 179.214 221.49 180.248 217.351C182.285 209.197 177.439 211.173 176.317 213.98C173.632 218.008 170.077 221.02 167.415 222.764C165.873 200.173 163.776 170.228 161.894 145.18C163.41 145.06 165.071 144.804 166.772 144.341C172.95 142.656 179.689 138.724 183.621 132.546C187.552 126.368 187.552 121.875 184.744 123.56C180.813 128.802 171.152 139.286 163.963 139.286C163.29 139.454 162.454 139.62 161.485 139.764C160.233 123.312 159.107 109.524 158.345 102.217C157.409 101.093 155.537 103.789 155.537 123.559C155.635 128.118 155.783 133.768 155.986 140.201C150.563 140.3 143.615 139.507 137.004 136.477C134.571 134.793 128.917 130.412 125.771 126.368C124.648 126.181 123.076 126.705 125.771 130.299C126.203 130.875 126.635 131.552 127.108 132.293C130.327 137.342 135.46 145.392 155.539 144.902C155.711 144.94 155.913 144.979 156.143 145.016C156.922 168.144 158.335 199.466 160.497 226.765C157.134 226.781 154.812 226.822 153.094 226.852C150.737 226.894 149.516 226.915 148.303 226.825C146.997 226.727 145.701 226.5 143.01 226.029L143.01 226.029C141.685 225.797 140.022 225.505 137.853 225.141C126.295 223.2 131.555 227.567 135.63 229.994C143.039 232.264 154.411 232.626 160.968 232.498C161.542 239.25 162.165 245.688 162.839 251.615C165.783 277.525 170.817 309.833 175.097 335.298C170.496 336.959 162.587 337.875 154.196 333.115C149.921 331.372 149.359 335.865 153.656 338.386C156.062 339.798 168.579 343.835 176.183 341.707C178 352.351 179.623 361.45 180.811 367.875H191.482Z" fill="#B84A65"/>
</svg>
