<svg width="271" height="265" viewBox="0 0 271 265" fill="none" xmlns="http://www.w3.org/2000/svg">
<path d="M268.823 343.222C271.07 350.86 271.039 360.701 262.645 367.373H107.039C105.728 366.624 103.991 361.166 107.039 353.961C113.217 339.359 123.888 337.112 132.875 333.181C135.934 331.842 129.535 327.496 114.902 320.824C93.5594 309.03 80.6415 297.048 75.5867 291.619C68.847 284.38 72.0226 272.679 77.8637 266.838C83.7048 260.997 90.4071 258.788 95.2747 256.729C105.16 251.786 109.503 251.112 109.877 250.551C111.562 249.24 108.979 245.72 85.1651 242.126C55.3979 237.632 32.3704 220.783 32.3704 204.496C32.3704 188.208 37.4252 174.167 52.028 170.235C63.7102 167.09 65.1331 165.555 64.3842 165.18C57.6445 161.623 40.2335 150.69 24.5074 135.413C4.84982 116.318 0.918304 104.523 0.918304 94.4134C0.918304 84.3041 7.65805 69.1393 21.1375 68.5777C34.617 68.016 35.7403 65.2078 35.1786 62.9612C34.617 60.7147 29.0005 46.6735 30.1238 30.3858C31.0225 17.3557 38.3613 7.73301 41.9184 4.55046C46.9732 -1.06599 61.0143 -1.62764 67.7541 4.55046C74.4938 10.7286 83.4801 28.7012 85.1651 35.4409C86.513 40.8327 89.0966 39.5597 90.2199 38.2492C97.4089 23.4217 105.572 18.5911 108.754 18.0292C115.119 15.9698 130.097 14.5469 139.083 25.3305C150.316 38.81 151.439 70.8238 150.878 78.1252C150.428 83.9663 152.188 82.8056 153.124 81.4952C163.458 68.465 174.654 70.8239 178.96 73.6321C182.33 75.8787 189.519 85.202 191.316 104.523C193.113 123.843 189.504 156.327 182.891 165.18C177.806 171.988 168.056 190.172 178.96 176.975C186.792 167.495 195.217 164.125 200.302 163.495C209.663 162.559 229.62 166.191 234.563 188.208C240.741 215.728 218.245 237.701 214.313 242.194C213.267 243.39 210.943 246.687 212.066 246.126C219.341 238.851 224.602 240.429 228.344 241.552L228.385 241.564C239.617 247.405 243.923 258.975 244.672 264.03C248.604 282.564 243.68 308.448 240.741 316.263C239.025 320.824 237.902 321.948 237.371 324.126C244.642 321.386 255.072 325.096 258.121 327.002C262.615 329.811 267.108 337.389 268.823 343.222Z" fill="#E890A6"/>
<path fill-rule="evenodd" clip-rule="evenodd" d="M110.502 118.601C115.008 128.926 118.955 138.553 121.503 145.033C127.161 160.89 132.739 176.111 138.169 190.604C140.886 189.4 145.333 185.919 149.023 178.17C150.334 175.362 153.292 169.184 154.64 166.937C155.763 165.439 158.01 164.241 158.01 171.43C158.01 179.007 153.618 184.986 150.894 188.696C150.387 189.386 149.938 189.998 149.585 190.526C148.187 192.623 143.98 195.536 140.77 197.519C152.722 229.186 163.895 257.192 173.559 280.539C178.01 280.436 186.557 276.16 194.517 259.047C195.078 258.298 196.426 257.137 197.325 258.485C198.448 260.17 197.325 268.595 194.517 272.526C194.136 273.059 193.702 273.715 193.213 274.454C190.092 279.173 184.729 287.281 176.767 288.252C188.511 316.352 197.725 336.864 202.941 347.787H193.955C191.048 340.475 187.588 331.808 183.786 322.284C180.109 313.075 176.112 303.064 171.985 292.699C167.5 293.601 160.063 294.617 154.078 293.869C146.889 292.97 143.22 287.878 142.284 285.444C141.722 282.823 141.385 278.48 144.53 282.074C147.676 285.669 152.206 286.942 154.078 287.129C161.108 287.91 166.385 286.202 168.874 284.881C157.004 255.029 144.467 223.231 135.616 199.761C133.802 200.404 130.759 200.899 125.996 200.636C117.131 200.146 114.33 197.946 110.776 195.155C110.256 194.747 109.72 194.326 109.147 193.896C104.654 190.526 102.969 184.91 104.654 183.786C106.001 182.888 108.211 186.033 109.147 187.718C112.292 191.312 117.946 192.586 120.38 192.773C122.276 193.152 128.577 192.757 132.859 192.4C129.59 183.598 127.016 176.374 125.434 171.43C119.706 153.529 112.38 135.856 105.93 120.448C100.141 121.153 89.1011 121.745 84.4349 119.199C79.4924 116.503 77.1335 110.587 76.5719 107.966C76.5719 104.784 77.0212 99.8788 78.8184 105.72C81.065 113.021 84.4349 116.953 93.4212 115.829C100.034 115.003 102.402 113.796 102.884 113.171C100.399 107.215 98.1245 101.689 96.2289 96.7314C90.3877 81.4547 88.553 75.3889 88.3658 74.2656C94.0343 83.0046 101.089 97.5064 107.458 111.718C110.807 110.546 116.86 106.896 118.133 100.104C118.882 98.0442 120.268 92.3529 119.818 86.0624C120.193 84.7519 121.278 82.9172 122.626 86.0624C124.311 89.994 125.435 100.665 122.626 105.72C119.931 110.572 116.717 113.872 110.502 118.601Z" fill="#E67591"/>
</svg>
