<svg width="414" height="267" viewBox="0 0 414 267" fill="none" xmlns="http://www.w3.org/2000/svg">
<path d="M389.447 321.316L413.598 334.234H307.447H279.364C269.556 334.234 258.584 325.248 265.323 325.248C270.715 325.248 286.291 321.129 293.406 319.07L249.597 279.755C247.351 282.75 237.016 288.404 213.652 287.056C190.288 285.708 188.565 281.627 190.625 279.755C193.994 279.193 203.318 276.722 213.652 271.33C223.986 265.938 226.195 261.969 226.008 260.659C217.958 253.545 201.184 238.979 198.488 237.631C195.792 236.283 184.634 235.572 179.392 235.385C152.994 230.892 146.255 224.714 137.268 223.029C128.282 221.344 119.857 216.851 122.104 215.166C124.35 213.481 134.46 214.042 149.624 213.481C161.756 213.031 161.045 208.8 159.172 206.741C152.058 200.75 135.134 184.612 124.35 167.987C113.567 151.363 108.25 145.709 106.939 144.96C85.597 143.275 76.049 139.344 64.2545 133.165C54.8188 128.223 53.5832 125.49 54.1448 124.741C54.8937 123.617 59.9859 122.045 74.364 124.741C88.7422 127.437 91.5878 125.864 91.2134 124.741C76.9851 103.773 48.1698 62.2672 45.1585 62.3981C32.2407 62.9598 25.3137 61.8365 21.5694 61.2748C1.35019 58.4668 -3.70459 55.0968 2.47348 51.1651C8.65158 47.2335 30.5558 42.7406 32.8023 42.1789C34.5996 41.7296 24.1904 27.0145 18.7612 19.7131C9.77487 5.11035 13.1447 1.17896 14.8297 0.617188C25.6133 0.617188 43.0992 22.3341 48.5284 32.0693C50.775 27.1268 57.5147 15.22 62.0079 9.60338C67.7698 2.40081 68.7476 2.30212 70.4326 2.86364C74.9538 4.37037 68.7476 31.5075 64.2545 39.9322C60.6599 46.6719 61.259 50.229 62.0079 51.1651C69.122 59.7767 84.586 78.7975 89.5285 85.9871C94.4709 93.1768 96.8299 92.7271 97.3915 91.6036C100.2 88.2338 100.761 84.4894 101.885 82.6172C105.255 74.7543 106.378 69.6995 106.939 66.3295C107.401 63.5595 107.501 58.4657 109.186 57.3425C110.534 56.4438 111.994 56.7817 112.556 57.3433C113.679 57.9059 118.734 70.2612 119.857 77C120.419 94.9736 118.172 91.6028 115.364 101.151C113.118 108.789 114.428 113.32 115.364 114.63C120.981 125.863 132.775 142.712 146.255 156.192C159.734 169.671 174.337 183.713 176.022 178.096C177.707 172.48 177.707 167.987 180.515 162.37C182.762 157.877 181.825 144.024 181.077 137.659C181.526 132.267 184.634 133.165 186.131 134.289C189.277 137.883 191.935 142.901 192.871 144.96C208.036 175.85 199.611 193.261 199.611 197.193C199.611 200.338 200.36 201.873 200.734 202.248L235.556 236.508C237.353 239.204 240.049 238.755 241.173 238.193C249.036 234.823 249.597 221.343 251.282 214.603C252.967 207.864 254.652 208.425 258.584 211.234C262.515 214.042 272.063 238.754 270.94 247.74C270.041 254.93 270.94 257.476 271.501 257.85L284.419 273.576C297.337 289.302 320.365 302.782 333.844 306.713C344.628 309.858 357.808 310.27 363.05 310.083C366.419 309.521 369.115 310.083 373.159 296.604C377.203 283.124 380.461 282.001 381.584 283.124C388.773 296.604 389.821 314.202 389.447 321.316Z" fill="#672540"/>
</svg>
