<svg width="389" height="282" viewBox="0 0 389 282" fill="none" xmlns="http://www.w3.org/2000/svg">
<path d="M200.044 293.161C203.407 295.255 204.593 296.975 214.459 299.895C217.897 300.912 227.882 302.701 243.521 287.322C245.033 285.836 253.375 275.358 239.117 269.193C235.827 267.771 224.922 263.732 227.204 261.987C231.115 258.997 250.203 252.555 254.026 242.059C255.231 239.298 257.676 231.307 249.012 226.404C243.808 222.862 229.76 223.629 223.829 224.999C222.395 224.934 224.448 223.638 225.289 223.226C228.404 221.702 234.712 219.46 241.294 213.725C248.35 207.578 254.77 199.168 258.314 189.445C261.33 181.173 255.812 169.909 246.22 169.818C239.491 169.754 230.692 175.402 226.746 178.257C253.693 156.487 257.201 133.705 257.723 130.115C258.933 121.815 254.521 118.652 249.192 118.351C243.863 118.049 235.064 121.961 224.861 129.545C223.984 129.908 226.994 127.246 229.044 124.466C231.605 120.991 236.79 107.324 235.384 97.076C234.259 88.8772 226.326 84.9105 222.5 83.9519C220.733 83.2388 215.142 83.1046 206.916 88.2729C205.945 88.5773 205.579 88.3332 205.857 85.6397C207.082 73.768 202.806 64.9438 201.144 62.8295C196.097 56.4055 193.112 55.063 187.782 54.7632C184.261 54.9743 180.687 54.9552 176.168 61.1897C170.519 68.9828 174.003 80.5236 173.575 82.8486C173.041 85.755 171.777 83.2266 167.828 80.3463C151.568 68.4862 144.25 82.8651 143.482 90.0426C142.761 96.788 142.368 98.5565 146.232 114.245C146.746 116.33 147.131 117.216 148.734 121.139C149.373 123.524 146.05 120.387 141.892 119.966C135.715 119.34 131.479 119.199 128.742 127.356C125.418 137.261 130.258 147.899 140.38 163.34C147.795 174.652 156.595 180.04 155.993 181.403C154.755 183.358 149.968 179.152 143.482 178.536C140.404 178.045 134.45 180.022 132.325 187.568C130.711 193.303 132.573 198.554 133.655 201.304C135.255 205.374 138.594 210.206 146.036 219.681C151.892 227.137 155.842 229.741 154.064 228.895C150.858 227.37 149.136 226.565 146.7 226.549C134.866 226.471 136.7 240.558 137.121 241.341L200.044 293.161Z" fill="#A16BBA"/>
<path fill-rule="evenodd" clip-rule="evenodd" d="M194.043 139.787C193.682 135.637 193.009 129.095 192.11 122.281C195.795 120.888 197.836 119.745 199.851 117.777L200.059 117.574C202.074 115.609 203.644 114.077 204.181 112.024C204.624 110.332 203.181 111.026 202.806 111.613C201.732 112.917 200.785 113.695 200.052 114.298C199.539 114.719 199.13 115.055 198.855 115.424C196.319 116.818 193.348 118.307 191.589 118.485C190.598 111.564 189.394 104.767 188.068 100.291C187.996 100.868 188.013 104.106 188.656 112.439C188.804 114.352 189.004 116.433 189.233 118.648C188.646 118.746 187.624 118.736 185.796 118.43C181.727 117.749 180.372 116.613 177.933 114.567C177.635 114.318 177.322 114.055 176.985 113.778C174.327 111.588 173.364 112.163 173.493 113.504C173.61 114.716 179.996 119.603 181.065 120.111C183.551 121.294 186.939 122.126 189.651 122.57C189.713 123.134 189.775 123.706 189.838 124.283L189.843 124.329C190.798 133.079 191.907 143.247 192.121 153.28C192.161 155.159 192.258 158.302 192.401 162.412C190.845 161.662 189.266 160.444 188.294 159.643C188.096 159.461 187.882 159.267 187.658 159.064C185.967 157.53 183.667 155.444 182.764 153.483C182.549 152.521 181.784 150.664 180.989 150.906C179.995 151.208 180.457 155.732 182.177 158.041C183.897 160.35 184.612 160.954 188.821 164.421C190.31 165.647 191.579 166.334 192.554 166.681C192.992 178.669 193.71 196.328 194.538 214.778C193.417 214.465 192.013 213.949 190.28 213.216C189.386 212.85 186.025 210.904 184.376 209.098C183.008 207.599 182.096 208.707 182.578 209.476C182.683 210.804 186.136 214.637 189.159 216.383C190.9 217.389 192.918 218.203 194.718 218.754C195.298 231.501 195.923 244.457 196.54 256.035C194.505 255.696 191.803 254.834 189.527 252.96C188.063 251.878 186.725 251.396 183.921 250.738C182.77 250.781 182.127 252.013 188.769 256.59C190.805 257.625 194.274 259.268 196.761 260.137C197.461 272.944 198.141 283.711 198.718 290.08L201.839 292.639C201.418 289.992 201.392 278.534 201.362 265.138C201.359 263.523 201.355 261.881 201.351 260.222C204.343 259.7 209.992 258.663 213.075 252.81C216.245 246.794 211.843 250.392 209.337 253.286C207.564 254.862 204.061 256.247 201.339 256.416C201.284 241.164 201.122 225.334 200.326 217.984C204.388 218.68 208.214 215.501 210.44 213.652L210.441 213.651C210.789 213.362 211.099 213.105 211.363 212.9C213.321 211.39 215.105 207.433 214.798 206.444C214.552 205.652 213.719 206.022 213.333 206.305C206.913 213.507 202.08 214.343 199.873 213.738C198.447 200.136 196.951 183.727 195.639 165.221C197.603 164.715 200.675 163.788 202.154 163.131C204.048 162.289 205.856 161.345 208.161 158.07C210.273 155.069 208.35 154.294 207.158 155.377C206.981 155.537 206.778 155.731 206.555 155.944L206.553 155.945C205.52 156.93 204.05 158.33 202.754 158.791C199.247 160.57 196.759 160.402 195.289 160.176C194.845 153.616 194.426 146.809 194.043 139.787Z" fill="#8C4EB4"/>
</svg>
