<svg width="254" height="176" viewBox="0 0 254 176" fill="none" xmlns="http://www.w3.org/2000/svg">
<path d="M47.291 200.369C45.5185 203.935 44.6757 208.785 48.2282 212.802L124.867 226.369C125.577 226.115 126.909 223.578 126.036 219.764C124.266 212.033 119.206 209.996 115.123 207.277C113.733 206.351 117.264 204.768 125.052 202.758C136.592 198.81 143.999 194.035 146.962 191.802C150.913 188.824 150.369 182.784 148.001 179.398C145.633 176.012 142.525 174.34 140.307 172.901C135.87 169.605 133.789 168.894 133.654 168.585C132.938 167.793 134.518 166.285 146.56 166.59C161.612 166.973 174.423 160.682 175.843 152.66C177.263 144.638 175.997 137.282 169.148 134.072C163.669 131.505 163.102 130.625 163.503 130.505C167.133 129.341 176.661 125.474 185.738 119.322C197.085 111.63 200.05 106.164 200.931 101.185C201.812 96.2061 197.211 89.0135 190.621 87.5617C184.031 86.1098 183.723 84.6288 184.195 83.5713C184.668 82.5138 188.129 74.8849 191.021 67.526C193.41 61.4458 188.939 55.651 187.464 53.7734C184.087 52.1465 179.077 49.9748 175.219 52.43C171.361 54.8852 165.997 61.6225 164.58 64.7951C163.446 67.3331 158.917 75.2453 158.705 74.4086C155.905 63.3929 150.953 61.7288 149.434 61.1746C146.479 59.6053 139.288 59.1876 133.922 63.7152C127.214 69.3747 126.554 78.0026 126.521 81.6652C126.472 86.943 129.891 103.182 129.545 102.455C132.99 111.599 133.658 114.763 131.293 115.771C127.761 117.275 106.212 93.1785 100.393 100.946C92.5305 111.439 99.1264 117.425 101.611 122.362C103.522 126.159 100.417 135.311 96.1974 127.861C93.1662 122.509 84.7237 115.358 82.2741 114.605C77.7454 113.327 64.9601 117.451 60.6064 127.864C55.1641 140.879 81.4018 152.808 82.9464 155.364C83.3574 156.044 84.2144 157.871 83.7101 157.496C80.7614 153.279 78.0329 153.598 76.0921 153.824L76.0709 153.827C70.0293 155.724 66.8998 161.047 66.0903 163.471C62.538 172.257 62.7065 185.434 63.4726 189.54C63.9197 191.936 64.3751 192.587 64.4467 193.706C61.1045 191.723 55.6442 192.641 53.976 193.314C51.5182 194.305 48.6446 197.646 47.291 200.369Z" fill="#E3577A"/>
<path fill-rule="evenodd" clip-rule="evenodd" d="M87.4445 201.607C89.6823 199.209 92.9698 195.443 96.8558 190.642C93.1015 189.312 90.7465 183.129 90.0187 180.086C89.9818 177.573 91.4972 178.096 92.2595 178.671C93.0774 184.103 96.5979 187.018 98.6682 188.021C98.7191 188.075 98.7703 188.131 98.8216 188.188C106.983 177.897 117.25 163.66 125.987 148.146C126.547 147.158 127.148 146.101 127.782 144.983C125.701 141.598 124.75 138.312 125.183 136.222C126.035 132.106 127.79 134.048 127.686 135.557C128.022 137.955 128.97 140.085 129.791 141.449C135.391 131.603 142.838 118.564 149.125 107.685C148.468 107.301 147.775 106.826 147.11 106.248C144.692 104.147 142.508 100.912 142.078 97.2751C141.648 93.6377 142.623 91.6131 143.523 92.982C144.156 96.1976 146.233 103.019 149.473 104.58C149.74 104.802 150.08 105.058 150.485 105.333C154.621 98.1915 158.122 92.2232 160.051 89.0959C160.717 88.793 160.975 90.4142 156.683 99.3225C155.649 101.355 154.355 103.869 152.868 106.724C155.29 107.946 158.593 109.097 162.23 109.167C163.692 108.936 167.191 108.19 169.486 107.05C170.033 107.21 170.628 107.788 168.633 108.822C168.313 108.988 167.972 109.199 167.598 109.43L167.598 109.43C165.051 111.006 160.99 113.519 152.049 108.939C151.963 108.919 151.864 108.893 151.751 108.859C146.379 119.112 138.942 132.919 132.041 144.751C133.553 145.488 134.591 146.011 135.359 146.398L135.359 146.398L135.36 146.398L135.361 146.399L135.361 146.399L135.362 146.399L135.362 146.399C136.414 146.929 136.96 147.204 137.526 147.426C138.135 147.666 138.769 147.845 140.083 148.217C140.731 148.4 141.544 148.63 142.6 148.937C148.229 150.571 144.911 151.397 142.548 151.606C138.715 151.02 133.511 148.713 130.585 147.232C128.86 150.149 127.182 152.915 125.592 155.439C118.64 166.475 109.357 179.94 101.9 190.486C103.612 192.233 106.977 194.362 111.791 194.039C114.096 194.182 113.374 196.329 110.891 196.532C109.5 196.645 102.984 195.747 100.019 193.138C96.8897 197.54 94.1828 201.287 92.253 203.924L87.4445 201.607Z" fill="#B84A65"/>
</svg>
