<svg width="269" height="99" viewBox="0 0 269 99" fill="none" xmlns="http://www.w3.org/2000/svg">
<path d="M233.521 66.9048C248.349 77.6883 267.128 131.947 269 138.5V166H45C27.4767 136.794 1.93619 50.0556 1.00012 42.1926C-0.87204 30.398 0.101501 5.79798 18.9728 1.75414C37.844 -2.2897 55.6669 3.43907 62.2194 6.80895C86.3701 21.4117 97.0414 36.0145 98.1647 42.1926C99.288 48.3707 101.535 54.5488 102.096 51.1789C102.546 48.483 104.53 45.188 105.466 43.8775C114.452 32.6446 130.74 30.398 149.274 39.9459C164.102 47.5843 174.174 78.325 177.357 92.7406C178.705 78.8118 185.781 69.713 189.151 66.9048C197.763 62.4116 218.694 56.1212 233.521 66.9048Z" fill="#EFCB94"/>
<path fill-rule="evenodd" clip-rule="evenodd" d="M104.349 102.584L44.2526 61.0222C40.1339 59.15 43.9156 64.8414 91.9924 102.584H104.349ZM110.525 80.6796C110.15 79.5564 109.177 80.9043 108.278 95.2824C108.091 97.5292 107.604 102.135 107.155 102.584H113.949C114.459 96.9223 114.435 85.4583 110.525 80.6796Z" fill="#DCB06D"/>
</svg>
