<svg width="102" height="275" viewBox="0 0 102 275" fill="none" xmlns="http://www.w3.org/2000/svg">
<path d="M72.2299 249.713C74.6898 247.013 79.9917 239.695 81.5206 232.014C81.4401 231.204 79.7835 230.591 73.8006 234.622C67.8176 238.653 66.9312 237.554 65.4125 236.682C63.2731 235.053 58.1809 230.608 54.9269 225.857C50.8594 219.919 46.1081 207.092 46.0953 196.659L46.0825 186.227C45.9815 185.896 46.4524 184.594 49.1444 182.036C52.5095 178.837 56.7526 165.936 56.1061 163.546C55.4596 161.155 54.9739 160.385 52.1161 162.51C49.2582 164.635 44.6559 169.797 40.4432 168.579C39.8153 168.436 38.6004 167.739 38.7636 166.086L36.0873 141.187C36.0604 140.917 36.2623 140.065 37.2842 138.818C38.5615 137.259 47.5588 133.093 51.5822 115.917C51.8801 114.796 52.4561 111.943 52.3768 109.496C52.1479 108.564 51.2076 107.198 49.2777 109.19C47.5066 111.957 43.3768 117.754 41.0262 118.806C38.0879 120.121 36.6281 121.902 34.1352 123.582C31.6423 125.261 30.414 114.949 29.4486 105.225C28.4832 95.5007 29.2808 84.9876 30.7034 78.7088C30.758 77.885 31.7103 75.6628 35.0828 73.3639C39.2985 70.4904 39.0941 72.5569 44.711 65.2476C46.4551 62.2105 48.465 55.6691 48.2023 55.0811C48.1621 54.6759 47.6928 54.0675 46.8664 53.9859C45.8333 53.8839 44.1387 55.8711 43.0557 56.8195C41.7381 57.9733 39.6504 59.6127 35.7595 61.6356C34.7059 62.013 33.2666 63.3152 31.0583 63.739C30.4705 64.002 29.3891 63.4139 29.7652 58.9573C30.1414 54.5007 30.1894 41.9344 30.1664 36.2083C30.1736 35.5939 31.0918 33.9888 34.7068 32.4842C39.2256 30.6035 50.5033 21.8595 49.2001 19.7931C48.7144 19.0231 48.2946 18.7445 43.6698 19.7284C40.0634 20.4956 33.5224 23.0271 31.0258 24.257C32.0359 18.6329 32.1583 4.34057 27.8824 0.837C27.0318 0.512322 24.4182 0.976321 23.237 9.68622C23.0176 14.3453 22.3641 23.562 21.5055 23.1562C20.4322 22.649 10.2871 17.3139 6.55997 16.8656C2.83286 16.4173 3.74227 19.3959 10.8472 27.0786L10.9705 27.2149C12.2987 28.6848 14.6942 31.336 19.8357 35.188C21.0723 36.1145 19.013 61.9342 17.8423 74.8712C17.6258 75.4383 15.9865 75.1373 11.1613 69.3969C6.33598 63.6565 3.80581 62.6255 3.14391 62.8276C2.67791 62.9421 2.27985 64.4274 4.41545 69.4528C7.08493 75.7346 9.59351 80.3956 17.5088 87.9979C17.7851 88.7206 18.0564 92.6899 16.9309 102.785C15.8055 112.881 17.273 124.779 18.1475 129.466C18.2207 130.89 17.1282 132.799 12.1718 129.036C5.97638 124.332 2.15021 120.824 0.711968 120.763C-0.726274 120.701 1.15443 125.22 4.17023 128.807C7.18604 132.395 7.85121 137.034 16.8584 147.393C18.8761 149.17 23.0693 153.077 23.7003 154.488C24.3314 155.898 26.2505 167.123 27.1311 172.56C26.7796 173.14 24.6141 173.996 18.7646 172.777C12.9151 171.557 8.41534 169.508 6.89665 168.636C5.47183 168.709 4.82877 170.887 13.6552 179.012C22.4817 187.138 28.4164 188.254 30.2804 187.796L34.8777 217.618C31.3877 216.123 23.8732 212.696 21.7353 210.944C19.0629 208.754 20.4939 215.882 24.3833 219.069L35.5184 228.193C37.2151 230.584 41.7058 237.24 46.0953 244.737L52.2214 253.326L54.9269 256.841L57.6877 259.769C54.8679 260.094 52.2214 260.55 47.536 259.769C46.8852 261.005 47.3017 264.181 54.1737 266.992C57.1264 268.099 62.7635 270.506 67.0584 268.944L72.2299 274.802L101.809 274.802L91.6569 267.772L84.2384 262.306L77.6007 256.059L72.2299 249.713Z" fill="#672540"/>
</svg>
