<svg width="102" height="253" viewBox="0 0 102 253" fill="none" xmlns="http://www.w3.org/2000/svg">
<path d="M72.1674 249.068C74.6273 246.369 79.9292 239.05 81.4581 231.37C81.3776 230.559 79.721 229.946 73.7381 233.977C67.7551 238.008 66.8687 236.91 65.35 236.037C63.2106 234.409 58.1184 229.963 54.8644 225.212C50.7969 219.274 46.0456 206.448 46.0328 196.015L46.02 185.582C45.919 185.251 46.3899 183.95 49.0819 181.391C52.447 178.193 56.6901 165.292 56.0436 162.901C55.3971 160.51 54.9114 159.74 52.0536 161.865C49.1957 163.99 44.5934 169.153 40.3807 167.934C39.7528 167.792 38.5379 167.094 38.7011 165.441L36.0248 140.543C35.9979 140.273 36.1998 139.421 37.2217 138.174C38.499 136.615 47.4963 132.448 51.5197 115.272C51.8176 114.152 52.3936 111.299 52.3143 108.851C52.0854 107.919 51.1451 106.553 49.2152 108.545C47.4441 111.312 43.3143 117.11 40.9637 118.161C38.0254 119.476 36.5656 121.258 34.0727 122.937C31.5798 124.617 30.3515 114.305 29.3861 104.58C28.4207 94.8562 29.2183 84.3431 30.6409 78.0643C30.6955 77.2405 31.6478 75.0182 35.0203 72.7194C39.236 69.8459 39.0316 71.9123 44.6485 64.603C46.3926 61.566 48.4025 55.0246 48.1398 54.4366C48.0996 54.0314 47.6303 53.423 46.8039 53.3414C45.7708 53.2393 44.0762 55.2266 42.9932 56.175C41.6756 57.3288 39.5879 58.9681 35.697 60.9911C34.6434 61.3684 33.2041 62.6707 30.9958 63.0945C30.408 63.3575 29.3266 62.7694 29.7027 58.3127C30.0789 53.8561 30.1269 41.2899 30.1039 35.5638C30.1111 34.9493 31.0293 33.3442 34.6443 31.8397C39.1631 29.959 50.4408 21.215 49.1376 19.1486C48.6519 18.3785 48.2321 18.0999 43.6073 19.0838C40.0009 19.8511 33.4599 22.3826 30.9633 23.6125C31.9734 17.9883 32.0958 3.69604 27.8199 0.192469C26.9693 -0.132209 24.3557 0.33179 23.1745 9.04169C22.9551 13.7008 22.3016 22.9175 21.443 22.5117C20.3697 22.0045 10.2246 16.6694 6.49747 16.2211C2.77036 15.7728 3.67977 18.7514 10.7847 26.434L10.908 26.5704C12.2362 28.0403 14.6317 30.6914 19.7732 34.5435C21.0098 35.4699 18.9505 61.2897 17.7798 74.2267C17.5633 74.7937 15.924 74.4928 11.0988 68.7524C6.27348 63.012 3.74331 61.981 3.08141 62.1831C2.61541 62.2976 2.21735 63.7829 4.35295 68.8083C7.02243 75.09 9.53101 79.7511 17.4463 87.3533C17.7226 88.0761 17.9939 92.0454 16.8684 102.141C15.743 112.237 17.2105 124.134 18.085 128.821C18.1582 130.246 17.0657 132.155 12.1093 128.391C5.91388 123.687 2.08771 120.18 0.649468 120.118C-0.788774 120.056 1.09193 124.575 4.10773 128.163C7.12354 131.751 7.78871 136.39 16.7959 146.748C18.8136 148.525 23.0068 152.433 23.6378 153.843C24.2689 155.253 26.188 166.479 27.0686 171.915C26.7171 172.496 24.5516 173.352 18.7021 172.132C12.8526 170.912 8.35284 168.863 6.83415 167.991C5.40933 168.064 4.76627 170.242 13.5927 178.368C22.4192 186.493 28.3539 187.609 30.2179 187.151L34.8152 216.974C31.3252 215.479 23.8107 212.051 21.6728 210.3C19.0004 208.11 20.4314 215.238 24.3208 218.425L35.4559 227.548C37.1526 229.939 41.6433 236.595 46.0328 244.092L52.1589 252.682L54.8644 256.196L57.6252 259.124C54.8054 259.45 52.1589 259.905 47.4735 259.124C46.8227 260.361 47.2392 263.536 54.1112 266.348C57.0639 267.454 62.701 269.861 66.9959 268.3L72.1674 274.157L101.746 274.157L91.5944 267.128L84.1759 261.662L77.5382 255.414L72.1674 249.068Z" fill="#672540"/>
</svg>
